<?xml version="1.0" standalone="no"?>
<!DOCTYPE svg PUBLIC "-//W3C//DTD SVG 20010904//EN"
 "http://www.w3.org/TR/2001/REC-SVG-20010904/DTD/svg10.dtd">
<svg version="1.0" xmlns="http://www.w3.org/2000/svg"
 width="300.000000pt" height="200.000000pt" viewBox="0 0 300.000000 200.000000"
 preserveAspectRatio="xMidYMid meet">
<metadata>
Created by potrace 1.10, written by Peter Selinger 2001-2011
</metadata>
<g transform="translate(0.000000,200.000000) scale(0.100000,-0.100000)"
fill="#000000" stroke="none">
<path d="M1401 1585 c-60 -17 -81 -30 -81 -52 0 -23 27 -26 77 -9 64 22 151
20 217 -5 108 -40 193 -157 200 -271 2 -40 8 -60 24 -76 12 -12 24 -22 27 -22
12 0 4 131 -11 180 -57 192 -263 308 -453 255z"/>
<path d="M1226 1491 c-15 -16 -15 -19 -1 -31 19 -16 45 2 45 31 0 24 -22 24
-44 0z"/>
<path d="M1151 1450 c-14 -40 2 -81 38 -103 34 -20 49 -21 87 -7 l28 11 -64
64 c-36 36 -67 65 -71 65 -4 0 -12 -13 -18 -30z m62 -51 c20 -22 17 -35 -6
-26 -15 5 -31 47 -18 47 3 0 15 -9 24 -21z"/>
<path d="M1620 1463 c-21 -3 -47 -16 -65 -33 -16 -15 -47 -35 -67 -44 -21 -8
-38 -22 -38 -30 0 -19 18 -20 57 -5 15 7 60 15 98 18 64 5 70 8 73 30 4 28 -6
72 -16 69 -4 0 -23 -3 -42 -5z"/>
<path d="M1276 1441 c-15 -16 -15 -19 -1 -31 13 -11 19 -10 35 5 19 18 17 45
-5 45 -6 0 -19 -8 -29 -19z"/>
<path d="M1133 1313 c-12 -60 -8 -153 10 -208 54 -161 240 -276 401 -248 34 6
73 16 88 22 25 9 27 13 17 35 -11 24 -12 24 -56 9 -62 -21 -174 -13 -233 16
-61 31 -116 85 -148 146 -23 43 -27 62 -27 141 0 82 -2 93 -22 108 -22 16 -22
15 -30 -21z"/>
<path d="M1581 1300 c11 -28 19 -75 19 -108 0 -100 -51 -152 -150 -152 -80 0
-104 36 -75 113 6 15 1 17 -51 15 -43 -1 -49 -2 -21 -5 35 -4 37 -6 37 -39 0
-35 13 -68 34 -90 20 -19 83 -26 128 -13 95 27 141 114 120 229 -6 30 -8 57
-5 60 2 3 13 -6 24 -20 38 -49 40 -56 18 -84 -24 -31 -24 -31 24 -7 l37 19
-42 63 c-38 57 -47 64 -80 67 l-37 3 20 -51z"/>
<path d="M1200 1233 l0 -38 105 1 c60 0 110 5 116 11 6 6 9 21 7 34 -3 23 -6
24 -115 27 l-113 3 0 -38z"/>
<path d="M1677 1178 c-15 -11 -8 -13 43 -13 54 0 63 -3 92 -32 30 -31 31 -33
14 -51 -16 -19 -16 -20 8 -24 14 -3 28 -3 31 0 21 21 -24 90 -76 117 -34 18
-89 19 -112 3z"/>
<path d="M1210 1161 c0 -44 61 -134 116 -172 42 -29 45 -29 177 -29 l135 0 28
38 28 37 -33 -28 c-34 -28 -35 -28 -166 -26 l-132 2 -42 35 c-23 19 -53 56
-67 83 -22 45 -23 54 -1 50 5 -1 6 3 2 9 -8 13 -45 13 -45 1z"/>
<path d="M1745 1026 c-16 -8 -43 -28 -59 -45 -30 -31 -30 -31 -13 -66 20 -42
73 -71 110 -61 73 18 110 104 67 159 -24 30 -57 34 -105 13z m53 -38 c25 -25
2 -78 -33 -78 -18 0 -45 27 -45 45 0 35 53 58 78 33z"/>
<path d="M1065 754 c-22 -8 -41 -14 -42 -14 -12 -1 -33 -68 -33 -104 0 -36 6
-52 29 -78 27 -30 34 -33 90 -33 67 1 76 5 67 33 -6 16 -13 18 -55 14 -42 -4
-50 -1 -65 19 -23 33 -20 85 5 110 18 18 29 20 64 16 37 -6 44 -4 48 13 4 16
-1 21 -21 26 -15 3 -32 7 -37 9 -6 1 -29 -3 -50 -11z"/>
<path d="M1290 763 c-62 -17 -90 -56 -90 -127 0 -130 184 -160 221 -37 15 50
5 102 -25 130 -25 23 -80 41 -106 34z m62 -60 c24 -27 30 -57 18 -89 -14 -35
-26 -44 -62 -44 -38 0 -62 39 -55 88 10 58 65 83 99 45z"/>
<path d="M792 644 l3 -115 83 -2 c79 -2 82 -1 82 21 0 20 -4 22 -60 22 -60 0
-60 0 -60 30 0 29 1 30 50 30 43 0 50 3 50 20 0 17 -7 20 -50 20 -47 0 -50 1
-50 26 0 26 1 27 55 21 53 -5 55 -5 55 19 0 23 -2 24 -80 24 l-81 0 3 -116z"/>
<path d="M1472 643 l3 -117 25 0 c23 0 25 4 24 42 -1 57 25 57 59 0 19 -32 32
-43 51 -44 32 -2 33 6 0 57 l-26 41 21 15 c31 21 28 76 -5 102 -21 16 -41 21
-91 21 l-64 0 3 -117z m109 67 c37 -20 11 -60 -39 -60 -16 0 -19 6 -16 33 1
17 3 33 3 35 2 6 34 1 52 -8z"/>
<path d="M1700 641 l0 -118 25 0 25 0 0 118 0 119 -25 0 -25 0 0 -119z"/>
<path d="M1800 646 c0 -125 0 -126 65 -126 103 0 165 75 135 165 -17 52 -59
75 -137 75 l-63 0 0 -114z m136 53 c19 -16 18 -88 -3 -111 -9 -10 -30 -18 -47
-18 l-31 0 0 76 0 76 33 -6 c19 -3 40 -10 48 -17z"/>
<path d="M2050 643 l0 -118 85 0 c81 0 85 1 85 23 0 20 -4 22 -60 22 l-60 0 0
31 c0 31 0 31 50 27 46 -3 50 -1 50 20 0 20 -5 22 -50 22 -47 0 -50 1 -50 26
0 26 1 27 55 20 54 -6 55 -6 55 19 0 25 -1 25 -80 25 l-80 0 0 -117z"/>
<path d="M1120 451 c0 -22 5 -43 10 -46 6 -4 10 12 10 39 0 25 -4 46 -10 46
-5 0 -10 -18 -10 -39z"/>
<path d="M1375 451 c0 -22 4 -43 8 -47 4 -4 7 14 7 39 0 26 -3 47 -7 47 -5 0
-8 -18 -8 -39z"/>
<path d="M1282 442 c2 -26 8 -38 21 -40 9 -2 17 1 17 7 0 6 -7 11 -15 11 -8 0
-15 7 -15 15 0 8 5 15 10 15 16 0 12 17 -6 24 -12 5 -15 -1 -12 -32z"/>
<path d="M1740 445 c0 -23 6 -38 15 -42 23 -8 33 7 12 18 -21 12 -22 29 -2 29
20 0 19 16 -1 24 -24 9 -24 9 -24 -29z"/>
<path d="M1062 458 c-25 -25 -8 -58 29 -58 16 0 10 18 -8 23 -14 4 -12 5 5 6
12 0 22 5 22 9 0 9 -21 32 -30 32 -3 0 -11 -5 -18 -12z"/>
<path d="M1161 452 c-14 -27 9 -58 35 -47 17 7 17 8 -6 15 -25 8 -25 8 -2 9
17 1 22 6 20 18 -5 25 -35 28 -47 5z"/>
<path d="M1229 454 c-9 -11 -10 -20 -2 -32 12 -20 43 -29 43 -13 0 6 -7 11
-15 11 -20 0 -19 20 3 36 15 12 15 13 1 14 -9 0 -22 -7 -30 -16z"/>
<path d="M1331 433 c2 -31 3 -33 6 -10 2 15 9 27 14 27 5 0 9 5 9 10 0 6 -7
10 -15 10 -11 0 -15 -10 -14 -37z"/>
<path d="M1414 456 c-9 -24 0 -51 19 -54 9 -2 17 1 17 7 0 6 -7 11 -15 11 -8
0 -15 7 -15 15 0 8 7 15 15 15 8 0 15 5 15 10 0 15 -30 12 -36 -4z"/>
<path d="M1495 460 c-4 -6 -1 -17 5 -25 9 -11 9 -15 1 -15 -6 0 -11 -4 -11
-10 0 -5 7 -10 15 -10 19 0 33 32 17 38 -7 2 -12 8 -12 13 0 6 5 7 10 4 6 -3
10 -1 10 4 0 14 -27 14 -35 1z"/>
<path d="M1549 454 c-9 -11 -10 -20 -2 -32 12 -20 43 -29 43 -13 0 6 -7 11
-15 11 -8 0 -15 7 -15 15 0 8 7 15 15 15 8 0 15 5 15 10 0 16 -26 12 -41 -6z"/>
<path d="M1607 464 c-13 -13 -7 -55 9 -61 24 -9 51 23 38 45 -12 19 -36 27
-47 16z"/>
<path d="M1677 464 c-13 -13 -7 -55 9 -61 24 -9 51 23 38 45 -12 19 -36 27
-47 16z"/>
<path d="M1794 456 c-10 -26 1 -51 24 -54 29 -4 29 15 0 21 l-23 4 23 2 c17 1
22 6 20 18 -4 23 -36 29 -44 9z"/>
<path d="M1861 433 c2 -31 3 -33 6 -10 2 15 9 27 14 27 5 0 9 5 9 10 0 6 -7
10 -15 10 -11 0 -15 -10 -14 -37z"/>
<path d="M1904 458 c-4 -6 1 -17 11 -25 17 -12 17 -13 2 -13 -9 0 -17 -4 -17
-10 0 -14 37 -13 46 2 4 6 0 16 -9 23 -18 13 -24 30 -7 20 6 -3 10 -1 10 4 0
15 -27 14 -36 -1z"/>
</g>
</svg>
