<?xml version="1.0" encoding="UTF-8" standalone="no"?>
<svg 
  version="1.1" 
  xmlns="http://www.w3.org/2000/svg" 
  xmlns:xlink="http://www.w3.org/1999/xlink" 
  xmlns:svg="http://www.w3.org/2000/svg"
  xmlns:rdf="http://www.w3.org/1999/02/22-rdf-syntax-ns#"
  xmlns:cc="http://creativecommons.org/ns#"
  xmlns:dc="http://purl.org/dc/elements/1.1/"
  viewBox="0 0 768 768"
  width="768"
  height="768"
>
<style>svg {background-color: white; }</style>"
<metadata id="metadata1">
Created by https://svgstud.io and licensed under CC-BY-SA 4.0 license. Please attribute https://svgstud.io
</metadata>
<metadata id="prompt">
electric scooter
</metadata>
<metadata id="version">
7
</metadata>
<metadata id="metadata2">
<rdf:RDF>
<cc:Work
    rdf:about="">
    <cc:license
    rdf:resource="http://creativecommons.org/licenses/by-sa/4.0/" />
    <dc:creator>
        <cc:Agent>
            <dc:title>https://svgstud.io</dc:title>
        </cc:Agent>
    </dc:creator>
</cc:Work>
<cc:License
    rdf:about="http://creativecommons.org/licenses/by-sa/4.0/">
    <cc:permits
    rdf:resource="http://creativecommons.org/ns#Reproduction" />
    <cc:permits
    rdf:resource="http://creativecommons.org/ns#Distribution" />
    <cc:requires
    rdf:resource="http://creativecommons.org/ns#Notice" />
    <cc:requires
    rdf:resource="http://creativecommons.org/ns#Attribution" />
    <cc:permits
    rdf:resource="http://creativecommons.org/ns#DerivativeWorks" />
    <cc:requires
    rdf:resource="http://creativecommons.org/ns#ShareAlike" />
</cc:License>
</rdf:RDF>
</metadata>
<metadata id="uid">
b5e0d60b9909cef76ae1e157df3838d35d0db5723a9c098c99dbae0316835242
</metadata>
<path stroke="none" fill="black" fill-rule="evenodd" d="M583.2,736.9C582.3,736.8 577.9,736.4 573.5,735.9C569.1,735.5 562.4,734.5 558.7,733.6C555.0,732.7 548.8,730.7 544.9,729.0C541.0,727.4 534.5,723.7 530.3,720.8C526.1,717.9 519.2,711.7 514.8,706.9C510.4,702.2 504.2,694.2 501.0,689.1C497.5,683.5 493.5,675.4 491.1,668.7C488.9,662.5 486.5,655.2 485.8,652.5C485.0,649.3 484.6,640.0 484.6,627.2C484.7,606.9 484.7,606.9 476.9,607.6C470.7,608.1 468.1,607.9 464.3,606.5C459.8,604.9 459.1,604.9 456.3,606.3C454.6,607.2 450.2,608.6 446.4,609.4C442.6,610.3 432.8,612.1 424.6,613.5C416.4,614.9 407.4,616.0 404.7,616.0C402.0,616.0 393.8,615.3 386.6,614.5C379.4,613.6 366.5,612.0 358.0,611.0C349.5,609.9 336.0,608.4 328.0,607.6C320.0,606.7 307.4,605.3 300.0,604.4C292.6,603.4 283.5,602.7 279.8,602.8C274.6,602.8 272.4,603.3 270.4,604.9C268.7,606.2 265.6,607.1 261.1,607.6C254.3,608.2 254.3,608.2 252.2,616.4C251.1,620.9 248.8,628.0 247.1,632.2C245.3,636.4 242.2,642.5 240.2,645.8C238.2,649.2 233.7,655.3 230.2,659.5C225.5,665.2 221.4,668.7 214.2,673.4C208.9,676.9 201.9,680.7 198.8,681.8C195.7,683.0 189.4,684.4 184.8,685.0C179.2,685.7 173.9,685.7 168.8,685.0C164.6,684.5 158.3,683.1 154.9,682.0C151.5,680.8 146.6,678.8 144.1,677.5C141.6,676.2 138.3,674.3 136.9,673.3C135.4,672.3 131.5,669.0 128.0,666.0C124.6,663.1 119.9,657.9 117.6,654.5C115.2,651.2 111.0,643.8 108.2,638.0C104.3,630.0 102.6,624.9 101.1,616.7C99.9,610.5 99.0,602.0 99.0,596.7C99.0,591.6 99.5,584.2 100.0,580.2C100.5,576.1 102.4,568.7 104.1,563.7C105.8,558.6 109.4,550.1 112.1,544.8C117.0,535.1 117.0,535.1 113.5,536.6C111.3,537.5 106.6,538.0 100.6,538.0C95.4,538.0 90.0,537.6 88.6,537.0C87.2,536.5 85.6,535.2 85.0,534.1C84.2,532.6 84.3,530.3 85.5,525.3C86.3,521.5 88.7,514.2 90.7,509.0C92.8,503.7 97.3,495.2 101.1,489.5C104.7,484.0 109.2,478.1 110.9,476.5C112.9,474.7 116.9,467.9 120.9,459.5C124.7,451.8 128.0,444.7 128.3,443.8C128.9,442.2 128.0,442.1 117.2,442.7C110.8,443.0 104.9,443.7 104.3,444.3C103.6,444.8 103.0,445.8 103.0,446.6C103.0,447.3 104.0,448.4 105.1,449.1C106.3,449.7 108.8,450.0 110.6,449.8C113.2,449.5 114.0,449.8 114.0,450.9C114.0,451.8 113.1,454.7 112.1,457.5C111.0,460.2 109.4,465.6 108.6,469.5C107.7,473.3 106.6,476.8 106.1,477.3C105.6,477.8 103.9,478.0 102.5,477.6C101.0,477.2 98.8,475.9 97.5,474.6C96.3,473.3 94.7,470.0 94.1,467.2C93.3,463.5 93.3,460.6 94.1,457.2C94.6,454.6 96.5,450.0 98.3,447.1C100.1,444.1 102.8,440.8 104.3,439.6C106.8,437.8 108.6,437.5 118.8,437.4C130.5,437.3 130.5,437.3 132.4,433.9C133.5,432.0 137.4,426.2 141.1,421.0C145.4,415.0 151.0,408.8 156.5,404.0C161.3,399.9 167.8,394.8 171.1,392.8C174.4,390.8 181.0,387.5 185.8,385.5C190.6,383.5 199.0,380.8 204.4,379.5C209.8,378.1 217.9,376.6 222.4,375.9C226.8,375.3 230.8,374.6 231.2,374.4C231.6,374.1 232.0,371.5 232.0,368.6C232.0,365.5 231.5,362.8 230.8,362.3C230.1,361.7 221.4,361.0 211.5,360.7C200.1,360.3 192.0,359.6 189.5,358.7C187.4,358.0 184.8,356.2 183.7,354.8C182.5,353.2 181.7,349.9 181.3,344.9C180.8,338.6 181.1,336.7 183.0,332.3C184.3,329.3 187.1,325.3 189.7,322.9C192.1,320.7 196.3,317.9 198.8,316.7C202.1,315.2 206.2,314.5 212.5,314.2C218.0,314.0 224.2,314.4 228.5,315.3C232.3,316.1 240.0,318.0 245.5,319.5C254.8,322.0 257.0,322.2 276.1,322.3C289.4,322.4 297.2,322.1 298.1,321.4C298.9,320.8 302.2,319.7 305.5,318.9C308.8,318.1 316.2,317.5 322.0,317.5C329.6,317.5 334.0,318.1 338.0,319.4C341.0,320.4 345.6,322.3 348.1,323.6C350.7,324.9 354.2,327.6 355.9,329.7C357.6,331.8 360.2,335.7 361.5,338.4C363.0,341.5 364.0,345.1 364.0,347.8C364.0,350.5 363.1,353.8 361.8,356.2C360.6,358.3 358.0,361.1 356.0,362.3C352.9,364.2 350.8,364.5 338.5,364.9C330.8,365.0 324.2,365.6 323.9,366.2C323.6,366.7 323.7,369.0 324.1,371.3C324.5,373.6 324.9,377.3 325.0,379.4C325.0,381.7 326.0,385.1 327.5,387.6C329.6,391.2 330.4,395.1 332.5,411.7C333.8,422.6 336.3,440.7 337.9,452.0C339.6,463.3 342.1,480.3 343.5,489.9C345.1,500.2 346.9,508.8 348.0,511.0C349.0,513.0 352.0,517.0 354.6,519.9C357.3,522.9 360.8,525.9 362.6,526.6C364.3,527.3 372.6,528.4 381.1,529.0C389.6,529.7 399.6,530.8 403.5,531.5C407.5,532.2 411.2,532.4 412.1,532.0C412.9,531.5 414.5,529.2 415.5,526.8C416.5,524.4 419.3,518.1 421.6,512.8C424.0,507.5 429.4,494.7 433.6,484.3C437.8,474.0 442.5,462.4 444.0,458.5C445.5,454.6 451.3,440.5 456.8,427.0C462.3,413.5 467.7,400.4 468.9,397.7C470.9,393.0 470.9,393.0 467.1,369.2C464.9,356.2 462.6,340.8 462.0,335.0C461.3,329.2 460.1,320.7 459.3,316.0C458.5,311.3 457.5,304.6 457.0,301.0C456.5,297.4 454.5,283.2 452.5,269.5C450.5,255.8 448.4,241.1 447.8,237.0C447.3,232.9 445.5,220.3 443.9,209.0C442.3,197.7 439.9,180.8 438.5,171.5C437.1,162.2 434.8,148.3 433.3,140.8C431.0,128.8 430.4,127.1 428.5,126.6C427.3,126.3 421.4,125.8 415.3,125.4C404.9,124.8 404.0,124.8 401.5,126.9C399.0,128.8 397.6,129.0 387.1,128.9C380.7,128.9 369.8,128.5 362.7,128.1C350.0,127.4 350.0,127.4 346.3,123.8C343.2,120.7 342.6,119.3 342.2,114.6C342.0,111.6 342.1,107.9 342.4,106.5C342.8,105.1 344.6,102.2 346.6,100.0C348.5,97.9 351.7,95.6 353.6,95.0C356.1,94.1 359.9,94.1 368.2,95.0C374.4,95.6 383.8,96.7 389.0,97.6C396.6,98.8 399.2,99.7 402.0,101.9C405.3,104.5 406.5,104.8 417.1,105.5C428.6,106.2 428.6,106.2 433.8,101.7C436.7,99.3 440.8,96.8 442.9,96.2C445.0,95.5 448.9,95.0 451.6,95.0C454.3,95.0 457.1,95.4 457.9,95.9C458.6,96.4 458.9,97.3 458.6,97.9C458.2,98.5 456.6,99.0 455.1,99.0C453.6,99.0 450.1,99.7 447.3,100.5C444.6,101.3 441.5,102.9 440.5,104.0C438.9,105.8 438.8,106.4 439.8,108.1C440.9,109.8 440.7,110.0 438.8,110.0C437.5,110.0 432.4,109.3 427.5,108.5C422.6,107.7 416.1,107.0 413.2,107.0C408.0,107.0 408.0,107.0 408.0,111.5C408.0,115.3 408.3,116.0 410.2,116.4C411.5,116.7 418.7,117.3 426.3,117.9C436.2,118.7 440.8,118.7 442.2,117.9C443.3,117.3 446.9,114.8 450.2,112.3C453.4,109.8 456.8,106.7 457.7,105.4C458.5,104.1 464.1,99.0 470.1,94.0C481.0,85.0 481.0,85.0 479.6,82.2C478.8,80.7 477.6,76.7 477.0,73.2C476.3,69.8 476.0,64.3 476.3,61.1C476.6,57.2 477.9,53.2 479.9,49.3C481.9,45.6 485.2,41.6 488.6,38.7C491.7,36.1 496.1,33.5 498.3,32.9C500.6,32.3 505.2,31.7 508.5,31.7C512.0,31.6 516.8,32.4 520.0,33.4C523.6,34.7 527.2,37.0 530.8,40.4C533.8,43.2 537.1,47.2 538.1,49.2C539.2,51.3 540.7,55.9 541.5,59.5C542.5,63.4 542.8,67.6 542.4,69.8C542.0,71.8 540.9,75.8 539.8,78.7C538.4,82.4 536.3,85.3 532.3,89.0C529.2,91.8 524.5,95.2 521.8,96.6C519.0,98.0 515.1,99.1 512.6,99.2C510.2,99.2 505.9,98.7 503.0,98.0C497.8,96.7 497.8,96.7 493.2,101.3C490.2,104.3 488.9,106.3 489.3,107.4C489.7,108.3 491.0,109.0 492.4,109.0C493.7,109.0 496.2,107.8 497.9,106.4C500.8,104.0 501.3,103.9 506.2,104.9C509.1,105.5 517.5,106.4 524.8,107.0C532.9,107.6 539.2,108.6 541.0,109.5C542.6,110.3 544.4,111.8 544.9,112.8C545.4,113.7 545.9,115.6 546.0,117.0C546.1,118.4 546.2,120.7 546.1,122.3C546.0,124.0 544.5,126.7 541.9,129.5C539.7,131.9 536.9,134.2 535.9,134.5C534.8,134.9 530.9,134.7 527.2,134.1C523.5,133.5 515.2,132.9 508.6,132.7C497.6,132.5 496.6,132.3 495.2,130.2C494.0,128.4 492.8,128.0 488.7,128.0C485.0,128.0 482.4,128.8 478.4,131.1C473.6,133.8 473.0,134.5 473.0,137.3C473.0,139.1 473.9,146.3 474.9,153.5C476.0,160.7 477.6,171.0 478.4,176.5C479.3,182.0 481.1,192.6 482.5,200.0C483.8,207.4 486.8,223.4 489.0,235.5C491.3,247.6 495.1,267.9 497.6,280.5C500.1,293.1 502.8,306.9 503.6,311.0C504.5,315.1 507.1,328.9 509.5,341.5C511.9,354.1 515.0,370.6 516.4,378.0C517.9,385.4 520.2,396.9 521.7,403.5C523.1,410.1 524.5,417.0 524.8,418.8C525.1,421.1 525.8,422.1 527.4,422.4C528.5,422.7 531.2,423.1 533.4,423.4C535.5,423.7 539.3,424.9 541.9,426.2C546.0,428.3 546.7,429.1 548.6,434.5C549.8,437.9 552.2,447.4 553.9,455.7C555.6,463.9 557.0,471.9 557.0,473.3C557.0,474.8 555.9,476.7 554.2,478.2C552.7,479.5 551.1,481.0 550.7,481.6C550.3,482.3 550.9,485.4 552.0,488.6C553.1,491.8 554.4,494.8 554.9,495.3C555.3,495.7 561.1,496.1 567.6,496.1C575.7,496.1 582.7,496.8 589.5,498.2C595.0,499.3 604.4,502.0 610.4,504.3C616.4,506.5 623.8,510.1 626.9,512.1C630.0,514.2 634.9,518.2 637.8,520.9C640.9,523.8 643.0,526.7 643.0,527.9C643.0,529.2 641.1,531.9 638.6,534.3C636.2,536.6 632.0,539.9 629.2,541.5C626.3,543.1 624.0,544.8 624.0,545.1C624.0,545.4 626.8,547.7 630.3,550.3C633.8,552.8 639.8,558.2 643.6,562.2C647.4,566.2 652.7,573.2 655.3,577.7C657.9,582.1 661.6,589.7 663.6,594.4C665.5,599.2 667.7,606.3 668.6,610.3C669.4,614.3 670.5,622.0 671.0,627.5C671.6,633.7 671.5,641.2 670.9,647.3C670.4,652.7 668.8,660.9 667.5,665.6C666.1,670.2 663.4,677.3 661.4,681.3C659.4,685.3 655.4,692.1 652.4,696.6C649.5,701.0 643.8,707.8 639.7,711.7C635.6,715.6 628.7,721.1 624.5,724.0C619.9,727.1 613.4,730.3 608.4,732.1C603.7,733.6 596.5,735.4 592.4,736.0C588.2,736.5 584.1,736.9 583.2,736.9zM566.6,706.9C572.1,707.0 577.7,706.4 581.1,705.4C584.1,704.5 588.6,702.5 591.1,700.9C593.6,699.3 598.8,694.8 602.7,690.8C606.5,686.8 611.4,680.4 613.5,676.7C615.5,672.9 618.3,666.9 619.6,663.2C620.8,659.5 622.4,652.5 623.1,647.6C623.9,640.8 623.9,636.5 623.1,629.6C622.4,624.6 621.2,617.8 620.4,614.5C619.5,611.2 616.8,604.4 614.4,599.5C611.9,594.5 608.0,588.1 605.7,585.2C603.4,582.4 598.4,577.6 594.6,574.6C590.8,571.6 584.3,567.7 580.1,566.0C573.7,563.3 570.8,562.7 561.9,562.3C552.9,561.8 551.1,562.0 549.7,563.5C548.8,564.4 548.0,566.2 548.0,567.6C548.0,568.9 548.9,570.9 550.0,572.0C551.6,573.6 553.3,574.0 559.4,574.0C563.9,574.0 569.3,574.8 573.2,576.0C576.8,577.1 582.4,579.7 585.7,581.9C589.0,584.0 594.1,588.6 596.9,592.0C599.7,595.4 603.1,600.3 604.4,602.9C605.7,605.5 608.0,611.2 609.5,615.5C611.4,621.3 612.3,626.4 612.7,634.0C613.1,642.5 612.8,646.1 611.1,653.2C609.8,658.6 607.5,664.8 605.0,669.2C602.7,673.2 598.5,678.9 595.7,681.8C592.8,684.7 587.8,688.4 584.4,690.1C580.2,692.2 576.3,693.2 571.4,693.6C566.9,694.0 561.9,693.6 557.1,692.6C552.4,691.6 547.0,689.5 542.2,686.8C536.9,683.7 533.0,680.5 528.7,675.5C525.4,671.6 521.4,665.7 519.9,662.4C518.3,659.0 516.2,652.7 515.0,648.4C513.9,644.0 512.7,636.9 512.3,632.5C511.8,626.0 512.2,622.9 514.0,616.0C515.2,611.3 516.5,606.1 516.7,604.3C517.0,602.6 516.5,598.7 515.6,595.6C514.7,592.6 513.5,589.8 513.0,589.5C512.4,589.1 510.4,592.2 508.5,596.2C506.6,600.2 504.1,607.5 503.0,612.5C501.9,617.5 501.0,625.1 501.0,629.5C501.0,633.9 501.6,641.3 502.4,646.0C503.2,651.1 505.4,658.2 507.8,663.7C509.9,668.8 513.1,675.1 514.8,677.7C516.5,680.3 521.2,685.7 525.2,689.6C529.6,693.9 535.1,698.0 539.0,700.0C542.6,701.9 548.2,704.1 551.5,705.1C555.1,706.2 561.1,706.9 566.6,706.9zM569.5,688.6C575.8,688.4 578.6,687.8 582.5,685.8C585.2,684.3 589.4,681.5 591.7,679.5C594.1,677.5 598.4,671.7 601.4,666.6C605.7,659.4 607.2,655.5 608.6,649.0C609.8,643.0 610.1,638.3 609.6,632.5C609.3,628.1 608.3,622.1 607.5,619.3C606.6,616.4 604.9,612.8 603.7,611.3C602.5,609.8 600.6,606.7 599.6,604.5C598.6,602.3 596.2,598.3 594.3,595.7C592.4,593.1 588.3,588.9 585.3,586.5C582.2,584.0 578.8,582.0 577.4,582.0C575.6,582.0 574.5,583.1 572.5,587.0C571.1,589.7 568.7,594.0 567.1,596.5C565.5,599.0 563.0,602.2 561.5,603.6C560.0,605.0 559.1,606.5 559.6,606.9C560.1,607.4 562.6,608.5 565.2,609.5C567.8,610.5 571.8,612.8 574.1,614.8C578.0,618.1 578.4,618.3 580.6,616.9C581.9,616.1 585.4,613.8 588.5,611.7C591.5,609.6 595.3,607.8 596.8,607.7C599.1,607.5 599.5,607.9 599.5,610.0C599.5,612.1 598.2,613.2 591.0,617.0C583.2,621.2 582.5,621.8 582.7,624.4C582.8,626.0 583.4,627.8 583.9,628.3C584.6,629.0 587.2,628.3 591.8,626.2C595.6,624.4 599.6,623.0 600.7,623.0C602.0,623.0 603.0,623.8 603.4,625.2C603.7,626.5 604.0,631.7 604.0,636.8C604.0,641.9 603.5,647.0 603.0,648.0C602.0,649.9 601.7,649.8 593.7,646.9C585.5,643.9 585.5,643.9 583.7,646.1C582.7,647.3 582.1,648.8 582.3,649.4C582.5,650.0 586.1,651.9 590.3,653.6C594.6,655.2 598.8,657.4 599.7,658.3C601.3,659.9 601.3,660.2 599.5,663.6C598.4,665.6 595.4,669.5 592.9,672.2C589.9,675.4 587.6,677.1 586.4,676.8C585.1,676.6 583.4,673.7 580.9,667.2C579.0,662.2 577.1,657.7 576.7,657.4C576.4,657.1 573.6,658.2 570.5,660.0C566.9,662.1 564.1,663.0 562.7,662.6C561.5,662.3 560.0,662.4 559.3,662.8C558.7,663.2 557.2,666.0 556.0,669.0C554.8,672.0 552.6,676.2 550.9,678.2C549.3,680.2 548.0,682.3 548.0,682.9C548.0,683.5 549.3,684.6 551.0,685.5C552.6,686.3 555.6,687.4 557.7,688.0C559.8,688.5 565.1,688.8 569.5,688.6zM544.0,678.7C544.8,678.6 545.6,677.2 545.8,675.7C546.0,673.8 545.1,671.8 542.7,668.7C540.8,666.4 538.5,663.0 537.6,661.2C536.7,659.5 535.3,658.0 534.4,658.0C533.3,658.0 533.0,658.6 533.5,660.2C533.9,661.5 535.3,664.8 536.7,667.5C538.2,670.2 540.0,674.0 540.9,675.7C541.8,677.6 543.2,678.9 544.0,678.7zM164.3,658.5C168.6,658.3 172.9,657.3 175.8,655.9C178.4,654.6 183.7,650.5 187.6,646.6C193.1,641.1 195.6,637.6 198.8,631.0C201.0,626.3 203.3,620.7 203.9,618.5C204.5,616.3 205.0,613.1 205.0,611.4C205.0,609.5 204.4,608.0 203.5,607.7C202.7,607.3 201.7,607.6 201.3,608.3C200.9,609.0 199.4,612.4 198.0,616.0C196.5,619.6 193.3,625.7 190.7,629.6C188.1,633.6 184.4,638.0 182.5,639.5C180.5,640.9 176.8,643.1 174.2,644.2C170.6,645.9 167.7,646.3 161.8,646.2C155.3,646.1 153.0,645.5 148.1,643.1C144.9,641.4 140.8,638.6 138.9,636.8C137.1,635.0 134.4,631.5 132.8,629.0C131.2,626.5 129.1,621.5 128.0,617.9C126.9,614.2 125.4,607.0 124.6,601.9C123.7,595.7 123.5,590.4 124.0,586.5C124.5,583.2 125.9,577.3 127.3,573.4C128.6,569.6 130.5,564.8 131.5,562.9C132.5,561.0 135.3,556.9 137.7,553.7C140.6,550.0 143.8,547.1 147.0,545.5C150.6,543.7 153.5,543.0 157.8,543.0C161.0,543.0 165.9,543.7 168.7,544.5C171.5,545.3 174.3,546.7 175.0,547.5C176.0,548.7 175.9,549.0 174.4,549.0C173.3,549.0 170.9,548.6 169.0,548.0C167.1,547.5 164.7,547.3 163.8,547.6C162.8,547.9 160.2,550.8 158.0,554.0C155.8,557.2 154.0,560.4 154.0,560.9C154.0,561.6 156.6,562.0 160.5,562.0C164.0,562.0 169.3,561.5 172.2,560.9C175.3,560.2 178.8,558.6 180.6,557.1C182.2,555.6 185.0,553.8 186.8,553.1C188.6,552.4 190.0,551.3 190.0,550.8C190.0,550.3 187.6,547.4 184.8,544.3C181.9,541.3 177.3,537.7 174.6,536.3C171.9,534.9 166.9,533.4 163.4,532.8C158.3,532.0 155.9,532.2 151.4,533.5C148.3,534.4 144.1,536.2 142.1,537.4C140.1,538.7 136.2,541.8 133.5,544.2C130.8,546.7 126.4,552.3 123.7,556.7C120.3,562.3 118.3,567.3 116.5,574.4C114.6,582.1 114.0,586.8 114.0,595.7C114.0,604.0 114.6,609.4 116.1,615.3C117.2,619.8 119.8,626.9 121.8,631.0C124.3,636.1 127.5,640.6 132.0,645.1C135.6,648.7 140.9,652.9 143.9,654.4C146.8,655.9 151.1,657.5 153.4,658.0C155.6,658.5 160.6,658.7 164.3,658.5zM556.5,655.0C559.7,655.0 562.7,654.3 564.8,653.0C566.6,651.9 569.3,649.0 570.9,646.4C572.5,643.9 574.4,639.7 575.0,637.0C575.9,633.3 575.9,630.8 575.0,626.6C574.4,623.5 572.8,619.7 571.4,618.1C570.1,616.5 567.0,614.2 564.7,613.1C562.3,611.9 559.2,611.0 557.7,611.0C556.2,611.0 555.0,611.5 555.0,612.0C555.0,612.6 556.1,615.2 557.5,617.8C558.9,620.4 561.2,624.0 562.5,625.9C564.4,628.4 565.0,630.6 565.0,634.3C565.0,638.8 564.6,639.6 560.6,643.6C557.4,646.8 555.5,648.0 553.3,648.0C551.6,648.0 548.5,646.8 546.4,645.4C544.3,643.9 541.9,641.9 541.2,640.9C540.5,639.8 539.5,639.0 538.9,639.0C538.4,639.0 538.0,640.2 538.0,641.7C538.0,643.1 539.1,645.8 540.5,647.5C541.8,649.3 544.8,651.7 547.2,652.9C549.9,654.2 553.4,655.0 556.5,655.0zM532.5,647.8C536.0,647.5 536.5,647.2 536.5,645.0C536.5,643.3 535.7,642.1 533.7,641.2C532.1,640.4 530.2,638.3 529.4,636.4C528.6,634.6 528.0,631.4 528.0,629.3C528.0,627.2 527.5,624.8 527.0,624.0C526.3,622.8 525.8,622.8 524.9,623.7C524.2,624.4 523.4,626.9 523.0,629.2C522.7,631.6 522.8,635.7 523.2,638.4C523.6,641.3 524.8,644.3 526.2,645.7C528.0,647.6 529.3,648.0 532.5,647.8zM164.1,642.0C166.6,642.0 170.9,641.3 173.8,640.5C176.6,639.6 180.8,637.5 183.2,635.7C185.6,633.9 187.6,631.6 187.8,630.7C188.0,629.8 185.6,625.4 182.4,621.0C179.2,616.6 176.3,613.0 175.8,613.0C175.4,613.0 175.0,613.8 175.0,614.8C175.0,615.9 175.9,619.3 177.0,622.5C178.1,625.8 179.7,629.4 180.6,630.7C181.4,632.0 181.8,633.5 181.5,634.0C181.2,634.6 180.0,635.0 178.9,635.0C177.8,635.0 176.1,634.6 175.1,634.1C174.1,633.5 171.9,629.9 170.1,626.0C168.3,622.1 166.2,618.6 165.4,618.3C164.7,618.0 162.8,618.4 161.3,619.2C159.0,620.3 158.0,620.3 156.0,619.3C154.6,618.6 151.8,618.0 149.8,618.0C147.7,618.0 146.0,618.2 146.0,618.5C146.0,618.8 147.6,622.2 149.5,626.1C151.4,630.0 152.7,633.6 152.4,634.1C152.1,634.6 151.4,635.0 150.8,635.0C150.3,635.0 148.1,633.6 146.0,632.0C143.9,630.4 141.9,629.0 141.5,629.0C141.2,629.0 141.8,630.2 143.0,631.7C144.2,633.2 146.6,635.5 148.4,636.8C150.3,638.1 153.5,639.8 155.6,640.5C157.8,641.3 161.6,641.9 164.1,642.0zM549.5,640.0C550.8,640.0 552.2,639.0 553.0,637.5C554.0,635.7 554.1,634.2 553.4,632.2C552.7,630.2 551.7,629.4 549.3,629.2C547.0,629.0 545.8,629.5 544.7,631.1C543.8,632.3 543.4,634.0 543.7,634.9C544.0,635.8 545.0,637.3 545.8,638.2C546.6,639.2 548.3,640.0 549.5,640.0zM538.4,636.0C539.2,636.0 540.5,634.5 541.3,632.8C542.2,631.0 543.8,628.5 545.0,627.2C546.1,626.0 548.2,625.0 549.5,625.0C551.2,625.0 552.0,624.4 552.0,623.2C552.0,622.3 550.4,616.3 548.5,610.0C546.5,603.7 543.8,594.0 542.3,588.5C540.9,583.0 539.1,575.4 538.4,571.5C537.6,567.6 535.8,559.5 534.4,553.5C532.9,547.5 531.2,541.9 530.5,541.1C529.6,540.2 528.1,540.0 525.8,540.4C524.0,540.7 519.7,542.3 516.2,544.0C510.6,546.6 510.0,547.2 510.0,550.0C510.0,551.7 511.6,559.5 513.6,567.3C515.5,575.1 519.8,590.5 523.2,601.5C526.5,612.5 529.6,622.9 530.1,624.6C530.6,626.3 532.4,629.6 534.0,631.9C535.7,634.1 537.6,636.0 538.4,636.0zM157.3,611.0C161.8,611.0 163.0,610.6 165.2,608.2C166.6,606.7 168.0,604.8 168.3,603.9C168.6,603.0 168.3,601.7 167.7,601.1C167.1,600.5 165.2,600.0 163.4,600.0C160.9,600.0 159.5,600.9 156.8,604.2C154.9,606.6 153.0,609.1 152.6,609.8C152.1,610.7 153.2,611.0 157.3,611.0zM142.2,607.0C143.1,607.0 145.3,605.8 147.1,604.3C148.8,602.8 150.9,600.1 151.6,598.4C152.6,596.1 152.8,593.2 152.3,588.8C151.8,583.3 151.2,582.0 148.0,578.8C145.8,576.6 144.8,575.0 145.7,575.0C146.5,575.0 148.4,575.7 150.0,576.5C151.6,577.3 153.7,579.2 154.8,580.7C155.9,582.3 157.1,585.4 157.5,587.8C158.0,590.9 158.8,592.4 160.3,593.0C161.5,593.5 170.8,595.0 181.0,596.4C191.2,597.8 205.4,599.6 212.5,600.5C219.7,601.3 229.1,602.1 233.5,602.1C239.1,602.2 242.4,601.8 244.5,600.7C246.2,599.9 249.6,597.0 252.1,594.3C254.6,591.7 259.3,586.4 262.4,582.7C265.5,579.0 267.8,575.5 267.5,575.0C267.1,574.4 264.3,574.0 261.2,574.0C258.1,574.0 240.9,572.6 223.0,570.9C205.1,569.2 183.1,567.4 174.0,567.1C164.9,566.7 154.4,566.8 150.5,567.3C146.7,567.8 142.4,568.8 141.0,569.5C139.6,570.2 136.9,572.6 134.9,574.7C132.9,576.8 130.7,579.5 130.1,580.7C129.5,581.9 129.0,585.6 129.0,589.0C129.0,592.6 129.7,596.6 130.6,598.6C131.5,600.5 134.0,603.1 136.4,604.5C138.6,605.9 141.3,607.0 142.2,607.0zM370.5,603.9C376.0,604.0 378.6,603.5 382.9,601.5C385.9,600.1 391.2,596.9 394.7,594.4C398.5,591.7 403.3,586.9 406.6,582.6C410.1,577.8 414.2,570.4 418.1,561.4C421.5,553.7 427.0,541.0 430.5,533.0C433.9,525.0 438.9,513.5 441.5,507.5C444.1,501.4 449.3,489.8 453.0,481.5C456.7,473.2 460.1,465.5 460.5,464.2C460.8,463.0 463.8,456.0 467.1,448.8C470.4,441.5 473.7,434.5 474.5,433.3C475.3,432.1 476.0,430.1 476.0,429.0C476.0,427.9 475.1,423.7 474.0,419.8C472.9,415.8 472.0,411.5 472.0,410.3C472.0,409.0 471.5,408.0 471.0,408.0C470.4,408.0 469.7,408.8 469.3,409.8C469.0,410.7 462.6,426.1 455.2,444.0C447.8,461.9 440.5,480.2 438.9,484.7C437.3,489.3 434.7,495.6 433.1,498.7C431.5,501.9 428.2,509.4 425.7,515.5C423.2,521.5 417.5,534.8 413.0,545.0C408.5,555.2 403.3,566.3 401.4,569.8C399.4,573.2 396.1,577.8 393.9,579.9C391.6,582.0 387.6,585.0 384.8,586.5C379.9,589.2 379.4,589.3 369.1,588.6C363.3,588.2 349.7,587.0 339.0,586.0C328.3,584.9 314.1,583.6 307.5,583.0C300.9,582.4 291.0,581.5 285.6,580.9C277.8,580.2 275.3,580.2 274.4,581.2C273.7,581.9 273.1,583.4 273.0,584.5C272.9,585.6 272.8,587.5 272.9,588.7C272.9,590.0 274.0,591.6 275.3,592.5C276.6,593.3 281.2,594.4 285.6,594.9C289.9,595.4 300.2,596.6 308.5,597.5C316.8,598.4 332.5,600.2 343.5,601.5C354.5,602.7 366.6,603.8 370.5,603.9zM470.2,600.9C473.8,601.0 474.0,600.8 475.0,596.8C475.5,594.4 477.0,589.4 478.1,585.5C479.3,581.6 482.2,574.7 484.5,570.0C486.9,565.3 491.1,558.6 493.8,555.1C496.5,551.6 501.8,546.4 505.4,543.4C509.8,540.0 515.1,537.0 520.3,534.9C528.2,531.9 529.0,531.8 544.5,531.8C556.5,531.7 562.4,532.2 568.0,533.5C572.1,534.5 577.8,535.4 580.6,535.4C584.6,535.5 586.6,534.9 589.9,532.7C592.2,531.2 598.4,528.8 603.8,527.3C609.1,525.9 617.3,524.4 621.8,524.0C626.4,523.5 630.4,522.9 630.8,522.6C631.1,522.3 630.5,521.1 629.4,519.9C628.4,518.7 625.8,516.9 623.7,515.8C621.5,514.7 615.8,512.3 611.0,510.5C606.1,508.6 597.3,506.0 591.3,504.6C585.4,503.3 574.6,501.7 567.5,501.1C559.1,500.4 552.4,500.4 548.5,501.0C545.2,501.5 540.0,502.3 537.0,502.9C534.0,503.4 529.7,504.5 527.4,505.3C525.2,506.1 520.9,508.0 517.9,509.5C514.9,511.0 509.4,514.4 505.5,516.9C501.6,519.4 495.2,524.8 491.2,529.0C487.1,533.1 481.8,539.8 479.3,543.8C476.7,547.9 472.8,555.9 470.4,561.7C468.1,567.4 465.6,574.4 465.0,577.2C464.4,580.0 463.7,586.2 463.3,591.0C462.8,599.1 462.9,599.8 464.6,600.3C465.6,600.5 468.2,600.8 470.2,600.9zM139.4,600.0C138.5,600.0 136.3,598.5 134.4,596.6C131.8,594.0 131.0,592.4 131.0,589.7C131.0,587.3 131.9,585.1 133.6,583.1C135.4,581.0 137.1,580.0 139.0,580.0C140.8,580.0 142.9,581.1 144.9,583.1C146.6,584.8 148.3,587.3 148.6,588.6C149.0,589.9 148.7,592.4 148.0,594.1C147.3,595.7 145.5,597.7 143.9,598.5C142.4,599.3 140.4,600.0 139.4,600.0zM138.5,593.0C139.8,593.0 141.3,592.3 142.0,591.5C142.7,590.7 143.0,589.0 142.6,587.6C142.3,586.3 141.3,584.9 140.4,584.6C139.6,584.3 138.0,584.5 136.9,585.0C135.7,585.7 135.0,587.1 135.0,588.9C135.0,590.4 135.3,592.0 135.7,592.3C136.0,592.7 137.3,593.0 138.5,593.0zM376.8,582.8C378.6,582.9 381.7,582.1 383.8,581.1C385.8,580.0 389.0,577.7 390.8,575.9C392.6,574.1 394.5,571.9 395.1,570.9C395.9,569.4 395.4,569.1 390.7,568.6C387.9,568.3 379.0,567.8 371.0,567.5C363.0,567.2 349.5,566.3 341.0,565.5C332.5,564.7 319.6,563.6 312.5,563.0C305.4,562.4 292.5,561.5 284.0,560.9C275.5,560.4 264.7,559.5 260.0,559.0C255.3,558.5 242.9,557.4 232.5,556.6C222.1,555.7 211.0,554.8 207.8,554.5C204.4,554.2 200.3,554.6 197.2,555.5C194.4,556.4 191.1,557.9 189.8,559.0C188.0,560.5 187.8,561.2 188.8,561.8C189.6,562.3 195.0,563.0 200.8,563.4C206.7,563.7 215.1,564.5 219.5,565.0C223.9,565.5 235.6,566.7 245.5,567.5C255.4,568.4 266.1,569.5 269.4,570.0C272.6,570.5 275.7,571.6 276.4,572.4C277.1,573.3 280.6,574.3 285.5,574.9C289.9,575.4 300.5,576.4 309.0,577.0C317.5,577.6 333.5,579.0 344.5,580.0C355.5,581.1 366.5,582.1 369.0,582.3C371.5,582.5 375.0,582.7 376.8,582.8zM362.5,559.5C378.7,559.3 384.4,558.9 387.5,557.7C389.7,556.8 391.2,556.1 390.9,556.1C390.5,556.0 383.8,555.3 375.9,554.5C368.1,553.7 361.5,552.8 361.3,552.6C361.1,552.4 364.0,551.5 367.7,550.7C371.4,549.8 378.1,548.5 382.5,547.6C386.9,546.8 394.0,545.6 398.3,544.9C404.8,543.9 406.4,543.3 407.7,541.3C409.0,539.3 409.1,538.7 408.0,538.0C407.3,537.6 402.6,536.7 397.6,536.1C392.6,535.4 380.2,534.8 370.0,534.7C354.8,534.5 349.2,534.9 338.5,536.7C331.4,538.0 319.0,539.3 311.0,539.6C301.2,540.1 294.7,539.9 291.0,539.1C287.6,538.4 284.5,536.9 282.8,535.3C281.3,533.9 278.7,529.3 277.0,525.3C275.3,521.2 273.6,515.7 273.3,513.1C272.8,508.3 272.8,508.3 280.6,507.6C285.0,507.2 293.9,506.5 300.5,505.9C307.1,505.3 317.6,504.5 323.8,504.1C331.4,503.6 335.4,502.9 336.0,502.1C336.4,501.3 336.4,499.6 336.1,498.1C335.4,495.5 335.4,495.5 321.4,495.6C313.8,495.6 295.8,496.0 281.5,496.4C265.0,496.9 255.0,496.8 254.1,496.2C253.3,495.6 252.4,493.0 251.9,490.4C251.5,487.7 251.1,479.0 251.1,471.0C251.1,463.0 251.5,453.1 252.0,449.0C252.5,444.9 253.9,437.2 255.1,432.0C256.4,426.4 259.2,418.4 262.0,412.5C264.6,407.0 269.2,399.4 272.3,395.5C275.5,391.6 278.0,388.1 278.0,387.6C278.0,387.2 277.0,387.1 275.8,387.4C274.5,387.8 267.0,388.5 259.0,389.0C251.0,389.5 240.4,390.5 235.5,391.1C230.6,391.7 222.4,393.0 217.3,394.1C212.3,395.2 204.2,397.4 199.5,399.0C194.7,400.6 187.0,403.9 182.4,406.4C177.8,408.8 170.2,413.8 165.6,417.5C160.9,421.1 153.8,427.8 149.8,432.3C145.7,436.8 140.2,443.2 137.4,446.5C134.6,449.8 130.2,455.8 127.6,459.8C124.9,463.8 123.0,467.4 123.3,467.6C123.6,467.9 128.7,466.1 134.7,463.5C141.9,460.4 148.6,458.4 155.0,457.3C163.0,455.9 166.0,455.9 173.7,456.8C178.7,457.5 186.4,459.1 190.7,460.5C195.0,461.9 201.1,464.6 204.3,466.5C207.4,468.4 213.1,472.4 216.9,475.5C221.0,478.8 225.9,484.1 228.9,488.4C231.7,492.5 235.6,499.6 237.5,504.2C239.5,508.7 242.4,517.8 244.0,524.3C245.6,530.8 247.2,539.5 247.6,543.6C248.1,549.3 248.7,551.3 250.0,552.0C251.0,552.5 263.4,553.9 277.7,555.0C291.9,556.0 309.8,557.4 317.5,558.0C325.2,558.6 333.8,559.2 336.5,559.4C339.2,559.6 350.9,559.6 362.5,559.5zM227.0,532.6C230.5,532.5 230.5,532.5 230.4,527.9C230.3,525.4 228.4,517.9 226.1,511.3C223.9,504.6 220.5,496.5 218.5,493.1C216.5,489.8 211.9,484.0 208.2,480.2C203.2,475.1 199.6,472.4 194.0,469.7C189.9,467.8 183.5,465.5 179.9,464.6C176.1,463.7 169.2,463.0 163.4,463.0C158.0,463.0 151.1,463.7 148.2,464.4C145.3,465.2 139.5,467.3 135.2,469.0C131.0,470.8 124.9,474.0 121.6,476.1C118.4,478.3 115.4,480.0 114.9,480.0C114.4,480.0 111.3,483.7 107.9,488.2C104.6,492.7 100.8,498.5 99.5,501.0C98.3,503.5 95.6,509.9 93.6,515.4C91.5,520.8 90.0,526.4 90.2,527.9C90.4,529.9 91.1,530.6 93.4,530.8C94.9,531.0 97.3,530.9 98.5,530.6C100.2,530.2 101.4,528.5 103.0,524.2C104.2,521.1 106.5,515.9 108.2,512.7C109.9,509.6 113.2,505.3 115.5,503.1C119.1,499.8 120.5,499.2 126.1,498.6C129.6,498.2 137.2,498.4 143.0,498.9C148.8,499.5 157.6,500.8 162.7,501.9C167.8,503.0 175.0,505.3 178.7,507.1C184.0,509.7 187.7,512.6 195.5,520.6C205.6,530.9 205.6,530.9 214.5,531.8C219.5,532.4 225.1,532.7 227.0,532.6zM496.7,517.0C497.1,516.9 500.6,514.7 504.4,511.9C511.1,506.9 511.2,506.7 510.6,503.2C510.3,501.1 509.5,497.8 509.0,495.8C508.4,493.6 507.1,491.9 505.9,491.5C504.9,491.1 501.7,491.6 498.9,492.5C496.1,493.5 493.6,494.9 493.3,495.7C493.0,496.5 493.3,501.1 493.9,505.9C494.6,510.6 495.3,515.1 495.5,515.8C495.8,516.4 496.3,517.0 496.7,517.0zM517.2,503.0C517.9,503.0 520.5,502.0 523.0,500.9C525.5,499.7 531.8,498.2 537.0,497.6C546.2,496.4 546.5,496.3 546.2,494.0C546.1,492.6 545.1,490.4 544.1,489.0C543.1,487.6 541.1,485.9 539.6,485.2C537.1,483.9 536.6,484.0 534.6,485.9C533.4,487.1 531.8,488.0 531.2,488.0C530.5,488.0 529.5,489.2 529.0,490.6C528.4,492.0 528.0,494.2 528.0,495.5C528.0,497.6 527.2,498.2 522.5,499.5C519.5,500.4 516.8,501.6 516.5,502.1C516.1,502.6 516.5,503.0 517.2,503.0zM487.7,489.0C488.4,489.0 492.5,487.7 496.8,486.1C501.0,484.5 509.4,482.5 515.5,481.5C521.5,480.6 531.3,478.7 537.2,477.4C543.1,476.0 549.1,473.9 550.5,472.8C551.9,471.8 553.0,470.2 553.0,469.4C553.0,468.6 552.4,467.7 551.7,467.4C551.0,467.2 546.4,467.6 541.6,468.5C536.7,469.3 530.1,470.0 526.8,470.0C521.2,470.0 520.9,469.9 521.2,467.8C521.4,466.5 522.7,465.0 524.1,464.3C525.5,463.6 531.7,462.8 537.8,462.4C544.0,462.0 549.4,461.2 549.9,460.6C550.4,460.0 550.4,458.5 549.9,457.2C549.1,455.1 548.5,454.9 545.2,455.5C543.2,455.8 537.7,456.5 533.0,457.1C528.3,457.7 523.4,458.2 522.0,458.3C519.9,458.5 519.4,458.0 519.2,455.6C519.0,454.0 519.2,452.4 519.7,451.9C520.1,451.5 524.9,450.4 530.2,449.6C535.6,448.7 541.5,448.0 543.4,448.0C545.3,448.0 547.1,447.6 547.5,447.0C547.8,446.5 547.1,445.1 545.9,443.9C544.4,442.4 543.2,442.0 541.7,442.5C540.5,442.9 535.9,443.6 531.5,444.1C527.1,444.6 522.3,445.4 520.8,445.9C518.8,446.6 517.8,446.5 517.0,445.5C516.3,444.7 516.0,443.3 516.2,442.3C516.4,441.3 517.7,439.9 519.2,439.2C520.7,438.5 527.1,437.7 533.5,437.3C541.6,436.9 545.0,436.3 545.0,435.5C545.0,434.8 544.2,433.2 543.2,432.0C542.0,430.5 539.9,429.6 537.0,429.3C534.5,429.0 527.6,429.5 521.5,430.4C515.5,431.3 509.5,432.8 508.2,433.6C506.9,434.5 505.5,434.9 505.2,434.5C504.8,434.2 506.3,432.3 508.5,430.5C510.7,428.6 514.3,426.5 516.5,425.8C518.7,425.2 521.1,424.2 521.7,423.7C522.4,423.2 522.7,422.4 522.5,421.9C522.2,421.5 520.0,420.8 517.5,420.4C514.7,420.0 510.4,420.4 505.6,421.4C501.6,422.3 494.7,424.8 490.4,427.0C486.0,429.1 481.6,431.6 480.6,432.4C478.9,433.8 478.8,434.8 479.3,441.7C479.7,446.0 481.1,455.4 482.5,462.5C483.9,469.6 485.3,478.5 485.7,482.2C486.1,487.0 486.7,489.0 487.7,489.0zM149.0,426.8C154.6,420.9 162.8,413.3 167.3,409.9C171.8,406.5 179.6,401.7 184.5,399.4C189.4,397.0 199.6,393.3 207.0,391.1C214.4,388.9 223.9,386.5 228.0,385.8C232.8,385.0 246.8,384.6 267.0,384.6C284.3,384.6 303.8,385.0 310.2,385.4C321.8,386.2 321.9,386.2 321.3,384.1C321.0,382.9 319.6,381.3 318.1,380.6C316.7,379.9 312.8,378.9 309.5,378.6C306.2,378.2 302.8,377.7 302.0,377.5C300.8,377.1 300.6,375.8 300.8,371.6C301.1,366.8 300.9,366.0 298.8,364.7C297.2,363.6 290.7,362.8 276.3,362.0C265.3,361.3 255.7,361.1 255.1,361.4C254.5,361.8 254.0,363.2 254.0,364.5C254.0,365.8 254.4,368.0 255.0,369.4C255.9,372.0 256.1,372.0 267.2,372.1C273.4,372.1 282.4,372.7 287.3,373.4C292.1,374.1 296.5,375.1 297.1,375.7C297.9,376.5 292.0,376.7 274.9,376.3C256.9,375.9 247.8,376.2 235.6,377.4C226.9,378.4 215.4,380.2 210.1,381.6C204.8,383.0 198.0,385.0 195.0,386.1C192.0,387.2 185.5,390.2 180.6,392.8C175.8,395.4 168.1,400.4 163.7,404.0C159.2,407.6 153.4,413.2 150.7,416.5C148.0,419.8 144.3,425.2 142.4,428.6C140.5,431.9 139.0,435.3 139.0,436.1C139.0,436.9 143.5,432.7 149.0,426.8zM482.9,424.0C483.4,424.0 487.6,422.2 492.3,420.0C497.0,417.8 501.2,415.5 501.5,415.0C501.8,414.5 501.2,413.2 500.0,412.0C498.9,410.9 498.0,409.7 498.0,409.2C498.0,408.8 496.2,398.1 494.0,385.5C491.8,372.9 489.1,356.6 488.0,349.5C486.8,342.4 484.8,330.4 483.5,323.0C482.2,315.6 480.4,305.2 479.6,300.0C478.7,294.8 476.7,282.2 475.1,272.0C473.5,261.8 471.0,245.4 469.5,235.5C468.1,225.6 466.2,214.1 465.5,210.0C464.7,205.9 463.4,197.6 462.5,191.5C461.6,185.4 460.0,175.6 458.9,169.5C457.7,163.5 456.4,157.8 455.9,156.8C455.2,155.5 453.7,155.0 450.5,155.0C448.1,155.0 445.5,155.3 444.6,155.6C443.5,156.0 443.0,157.5 443.0,160.4C443.0,162.6 443.9,170.6 444.9,178.0C446.0,185.4 448.7,204.8 450.9,221.0C453.2,237.2 455.9,256.4 457.0,263.5C458.0,270.6 459.6,281.7 460.5,288.0C461.4,294.3 463.4,308.7 465.1,320.0C466.8,331.3 469.2,347.9 470.6,357.0C472.0,366.1 473.7,377.8 474.6,383.0C475.4,388.2 476.5,395.6 477.1,399.5C477.6,403.4 478.8,410.1 479.7,414.5C480.5,418.9 481.4,422.8 481.7,423.2C481.9,423.7 482.5,424.0 482.9,424.0zM275.5,337.6C295.3,337.3 297.0,337.2 305.5,334.5C310.4,333.0 316.3,331.3 318.5,330.8C320.7,330.2 326.9,329.7 332.3,329.7C341.7,329.5 342.0,329.4 340.0,327.8C338.9,326.9 335.4,325.2 332.4,324.1C328.5,322.6 324.6,322.0 318.6,322.0C312.3,322.0 308.3,322.6 302.4,324.6C294.6,327.2 294.3,327.2 270.5,326.7C251.9,326.3 244.3,325.7 237.0,324.2C231.8,323.1 225.5,321.7 223.0,321.0C220.5,320.4 214.8,320.0 210.3,320.2C203.2,320.5 201.7,320.9 197.9,323.5C195.6,325.1 192.8,327.7 191.7,329.2C190.6,330.6 190.1,332.3 190.4,332.9C190.9,333.6 195.9,334.0 204.3,334.1C211.6,334.1 225.8,335.0 236.0,336.0C248.9,337.3 260.8,337.8 275.5,337.6zM455.2,150.2C462.5,150.0 468.7,149.6 468.9,149.4C469.2,149.2 468.9,147.7 468.4,146.2C467.7,144.1 466.6,143.4 463.6,142.9C461.4,142.5 459.1,141.4 458.3,140.4C457.6,139.4 457.0,137.4 457.0,135.9C457.0,134.4 456.3,133.0 455.4,132.6C454.5,132.3 451.4,132.0 448.4,132.0C443.8,132.0 442.8,132.3 441.4,134.5C440.1,136.5 439.9,138.5 440.3,143.0C440.6,146.2 441.0,149.2 441.3,149.7C441.6,150.1 447.8,150.3 455.2,150.2zM450.8,127.0C451.8,127.0 454.1,125.9 455.9,124.6C457.7,123.2 466.1,115.8 474.6,108.0C483.1,100.1 490.0,93.2 490.0,92.5C490.0,91.8 488.7,90.7 487.1,90.0C485.4,89.3 483.5,89.2 482.6,89.7C481.8,90.1 474.3,97.0 466.0,104.9C457.7,112.8 450.2,120.4 449.3,121.6C448.5,122.9 448.0,124.7 448.4,125.5C448.7,126.3 449.8,127.0 450.8,127.0zM498.5,122.7C499.6,122.6 501.0,121.4 501.7,120.1C502.4,118.5 502.5,117.0 502.0,115.9C501.5,115.0 499.1,113.8 496.8,113.2C494.4,112.6 489.7,111.8 486.4,111.4C482.5,111.0 478.9,111.2 476.7,111.9C474.8,112.6 472.9,113.7 472.6,114.5C472.3,115.3 472.3,116.7 472.6,117.5C473.0,118.3 474.2,119.2 475.4,119.4C476.5,119.7 481.1,120.2 485.4,120.5C489.8,120.8 494.1,121.5 494.9,122.0C495.8,122.6 497.4,122.9 498.5,122.7zM354.1,120.0C355.0,120.0 356.6,119.2 357.6,118.3C358.5,117.3 359.9,115.1 360.6,113.3C361.4,111.5 362.0,109.1 362.0,107.9C362.0,106.8 361.2,104.5 360.3,102.9C359.1,100.8 357.8,100.0 355.9,100.0C354.1,100.0 352.2,101.1 350.1,103.5C348.4,105.5 347.0,108.0 347.0,109.1C347.0,110.2 347.7,112.5 348.6,114.3C349.5,116.1 350.7,118.1 351.2,118.8C351.8,119.4 353.1,120.0 354.1,120.0zM513.2,91.0C514.7,91.0 516.1,90.6 516.5,90.1C516.8,89.5 515.2,87.7 513.0,85.9C510.7,84.0 507.7,80.2 506.0,76.7C503.4,71.5 503.0,69.6 503.0,62.6C503.0,56.8 503.6,53.3 504.9,50.4C506.0,48.1 508.5,44.3 510.6,42.0C513.7,38.6 514.1,37.7 512.9,36.9C512.1,36.3 509.5,36.2 507.2,36.5C504.8,36.7 500.9,37.8 498.5,38.9C496.2,39.9 492.3,42.5 490.0,44.6C487.6,46.8 484.9,50.3 483.9,52.5C482.8,54.9 482.0,58.8 482.0,62.5C482.0,65.8 482.6,69.6 483.3,71.0C484.0,72.4 485.2,73.6 486.0,73.8C486.9,73.9 488.0,72.8 488.7,70.9C489.4,69.2 490.4,68.1 490.9,68.4C491.5,68.8 493.3,71.7 495.0,74.9C496.7,78.1 499.5,82.4 501.2,84.5C502.9,86.5 505.7,88.8 507.4,89.6C509.1,90.3 511.7,90.9 513.2,91.0zM526.1,84.0C527.6,84.0 529.9,83.1 531.2,82.0C532.6,80.9 534.5,78.1 535.5,75.8C536.5,73.4 537.2,68.8 537.2,65.5C537.2,61.5 536.5,57.7 535.1,54.3C533.8,51.5 531.7,48.1 530.2,46.7C528.7,45.3 526.4,43.7 525.0,43.2C523.6,42.7 521.5,42.6 520.4,43.0C519.2,43.5 517.7,45.1 517.1,46.7C516.5,48.2 514.8,51.1 513.4,53.0C511.2,56.0 510.9,57.3 511.2,61.7C511.5,64.9 512.4,67.8 513.5,69.0C514.5,70.1 516.1,71.0 517.1,71.0C518.2,71.0 519.2,70.0 519.6,68.6C519.9,67.3 519.7,65.3 519.1,64.2C518.5,63.0 518.0,61.0 518.0,59.5C518.0,57.3 518.3,57.0 520.5,57.6C522.4,58.1 523.0,57.8 523.0,56.6C523.0,55.7 522.6,55.0 522.0,55.0C521.5,55.0 520.2,54.0 519.1,52.8C517.5,51.2 517.3,50.3 518.1,49.3C518.7,48.6 520.3,48.0 521.6,48.0C522.8,48.0 524.5,48.6 525.3,49.4C526.1,50.2 527.0,53.4 527.4,56.5C527.8,60.2 527.6,63.5 526.8,65.6C525.9,68.2 525.9,69.8 526.7,72.0C527.4,73.9 527.5,75.2 526.8,75.6C526.3,75.9 523.4,75.9 520.4,75.5C517.4,75.2 515.0,75.1 515.0,75.5C515.0,75.8 515.5,77.0 516.1,78.1C516.6,79.2 518.6,81.0 520.3,82.0C522.1,83.1 524.7,84.0 526.1,84.0z" />

</svg>