<svg width="228" height="191" viewBox="0 0 228 191" fill="none" xmlns="http://www.w3.org/2000/svg">
<g filter="url(#filter0_d_4_228)">
<rect x="26.5332" y="14" width="174.467" height="137" rx="6.60558" fill="white"/>
<rect x="26.8635" y="14.3303" width="173.807" height="136.339" rx="6.27531" stroke="#F4F4F4" stroke-width="0.660558"/>
</g>
<path d="M60.875 104.867H62.159V114.041H60.875V109.805H56.3878V114.041H55.1038V104.867H56.3878V108.693H60.875V104.867ZM63.5499 115.324C63.6469 115.369 63.7705 115.408 63.9205 115.444C64.0793 115.488 64.2338 115.51 64.3838 115.51C64.8691 115.51 65.2486 115.399 65.5221 115.179C65.7957 114.967 66.0428 114.619 66.2634 114.133C65.7074 113.074 65.1868 111.954 64.7014 110.771C64.2249 109.58 63.8278 108.375 63.5101 107.157H64.8338C64.9309 107.555 65.0456 107.983 65.178 108.441C65.3192 108.9 65.4736 109.372 65.6413 109.858C65.8089 110.343 65.9898 110.828 66.184 111.314C66.3781 111.799 66.5811 112.267 66.7928 112.717C67.1282 111.79 67.4194 110.873 67.6665 109.964C67.9136 109.055 68.1474 108.119 68.368 107.157H69.6387C69.3211 108.455 68.9681 109.703 68.5798 110.903C68.1915 112.095 67.7724 113.211 67.3223 114.252C67.1458 114.649 66.9605 114.989 66.7664 115.272C66.5811 115.563 66.3737 115.801 66.1443 115.986C65.9148 116.172 65.6545 116.308 65.3633 116.397C65.0809 116.485 64.7588 116.529 64.397 116.529C64.2999 116.529 64.1985 116.52 64.0926 116.503C63.9867 116.494 63.8808 116.476 63.7749 116.45C63.6778 116.432 63.5852 116.41 63.4969 116.383C63.4175 116.357 63.3601 116.335 63.3248 116.317L63.5499 115.324ZM75.3844 108.613C75.2344 108.49 75.0182 108.371 74.7358 108.256C74.4534 108.141 74.1446 108.084 73.8092 108.084C73.4563 108.084 73.1518 108.15 72.8959 108.283C72.6488 108.406 72.4459 108.583 72.287 108.812C72.1282 109.033 72.0135 109.297 71.9429 109.606C71.8723 109.915 71.837 110.246 71.837 110.599C71.837 111.402 72.0355 112.024 72.4326 112.465C72.8297 112.898 73.3592 113.114 74.021 113.114C74.3564 113.114 74.6343 113.101 74.8549 113.074C75.0844 113.039 75.2609 113.004 75.3844 112.968V108.613ZM75.3844 103.981L76.6154 103.769V113.842C76.333 113.921 75.9712 114.001 75.53 114.08C75.0888 114.16 74.5814 114.199 74.0078 114.199C73.4783 114.199 73.0018 114.116 72.5782 113.948C72.1547 113.78 71.7928 113.542 71.4928 113.233C71.1928 112.924 70.9589 112.549 70.7913 112.108C70.6324 111.658 70.553 111.155 70.553 110.599C70.553 110.07 70.6192 109.584 70.7516 109.143C70.8928 108.702 71.0957 108.322 71.3604 108.005C71.6252 107.687 71.9473 107.44 72.3267 107.263C72.715 107.087 73.1562 106.999 73.6504 106.999C74.0475 106.999 74.3961 107.052 74.6961 107.157C75.005 107.263 75.2344 107.365 75.3844 107.462V103.981ZM81.273 107.012C81.3789 107.012 81.498 107.021 81.6304 107.038C81.7716 107.047 81.9084 107.065 82.0407 107.091C82.1731 107.109 82.2922 107.131 82.3981 107.157C82.5128 107.175 82.5967 107.193 82.6496 107.21L82.4378 108.283C82.3407 108.247 82.1775 108.208 81.9481 108.163C81.7274 108.11 81.4407 108.084 81.0877 108.084C80.8582 108.084 80.6288 108.11 80.3994 108.163C80.1788 108.208 80.0331 108.238 79.9626 108.256V114.041H78.7315V107.449C79.0227 107.343 79.3846 107.246 79.8169 107.157C80.2493 107.06 80.7347 107.012 81.273 107.012ZM86.1672 113.154C86.4584 113.154 86.7143 113.149 86.9349 113.14C87.1643 113.123 87.3541 113.096 87.5041 113.061V111.009C87.4158 110.965 87.2702 110.93 87.0673 110.903C86.8731 110.868 86.6349 110.85 86.3525 110.85C86.1672 110.85 85.9686 110.864 85.7568 110.89C85.5539 110.917 85.3641 110.974 85.1876 111.062C85.02 111.142 84.8788 111.256 84.7641 111.406C84.6493 111.548 84.592 111.737 84.592 111.976C84.592 112.417 84.7332 112.726 85.0156 112.902C85.2979 113.07 85.6818 113.154 86.1672 113.154ZM86.0613 106.985C86.5554 106.985 86.9702 107.052 87.3055 107.184C87.6497 107.307 87.9232 107.488 88.1262 107.727C88.338 107.956 88.488 108.234 88.5762 108.561C88.6645 108.878 88.7086 109.231 88.7086 109.619V113.921C88.6027 113.939 88.4527 113.966 88.2586 114.001C88.0732 114.027 87.8615 114.054 87.6232 114.08C87.3849 114.107 87.1246 114.129 86.8422 114.146C86.5687 114.173 86.2951 114.186 86.0216 114.186C85.6333 114.186 85.2759 114.146 84.9494 114.067C84.6229 113.988 84.3405 113.864 84.1022 113.696C83.864 113.52 83.6787 113.29 83.5463 113.008C83.4139 112.726 83.3477 112.386 83.3477 111.989C83.3477 111.609 83.4227 111.283 83.5728 111.009C83.7316 110.736 83.9434 110.515 84.2081 110.347C84.4729 110.18 84.7817 110.056 85.1347 109.977C85.4877 109.897 85.8583 109.858 86.2466 109.858C86.3701 109.858 86.4981 109.867 86.6304 109.884C86.7628 109.893 86.8864 109.911 87.0011 109.937C87.1246 109.955 87.2305 109.972 87.3188 109.99C87.407 110.008 87.4688 110.021 87.5041 110.03V109.686C87.5041 109.483 87.482 109.284 87.4379 109.09C87.3938 108.887 87.3143 108.711 87.1996 108.561C87.0849 108.402 86.9261 108.278 86.7231 108.19C86.529 108.093 86.2731 108.044 85.9554 108.044C85.5494 108.044 85.1921 108.075 84.8832 108.137C84.5832 108.19 84.3581 108.247 84.2081 108.309L84.0625 107.29C84.2214 107.219 84.4861 107.153 84.8567 107.091C85.2274 107.021 85.6289 106.985 86.0613 106.985ZM92.8181 114.173C92.0592 114.155 91.5209 113.992 91.2032 113.683C90.8855 113.374 90.7267 112.893 90.7267 112.24V103.981L91.9577 103.769V112.042C91.9577 112.245 91.9754 112.412 92.0107 112.545C92.0459 112.677 92.1033 112.783 92.1827 112.862C92.2621 112.942 92.368 113.004 92.5004 113.048C92.6328 113.083 92.796 113.114 92.9902 113.14L92.8181 114.173ZM95.6036 114.041H94.3726V107.157H95.6036V114.041ZM94.9815 105.913C94.7609 105.913 94.5711 105.843 94.4123 105.701C94.2623 105.551 94.1873 105.353 94.1873 105.106C94.1873 104.859 94.2623 104.665 94.4123 104.523C94.5711 104.373 94.7609 104.298 94.9815 104.298C95.2021 104.298 95.3874 104.373 95.5374 104.523C95.6962 104.665 95.7757 104.859 95.7757 105.106C95.7757 105.353 95.6962 105.551 95.5374 105.701C95.3874 105.843 95.2021 105.913 94.9815 105.913ZM100.712 114.199C100.156 114.199 99.6663 114.111 99.2428 113.935C98.828 113.758 98.475 113.511 98.1838 113.193C97.9014 112.876 97.6896 112.501 97.5485 112.068C97.4073 111.627 97.3367 111.142 97.3367 110.612C97.3367 110.083 97.4117 109.597 97.5617 109.156C97.7205 108.715 97.9411 108.336 98.2235 108.018C98.5059 107.691 98.8501 107.44 99.256 107.263C99.6707 107.078 100.13 106.985 100.633 106.985C100.941 106.985 101.25 107.012 101.559 107.065C101.868 107.118 102.164 107.202 102.446 107.316L102.168 108.362C101.983 108.274 101.767 108.203 101.519 108.15C101.281 108.097 101.025 108.071 100.752 108.071C100.063 108.071 99.534 108.287 99.1633 108.719C98.8015 109.152 98.6206 109.783 98.6206 110.612C98.6206 110.983 98.6603 111.323 98.7398 111.631C98.828 111.94 98.9604 112.205 99.1369 112.426C99.3222 112.646 99.556 112.818 99.8384 112.942C100.121 113.057 100.465 113.114 100.871 113.114C101.197 113.114 101.493 113.083 101.758 113.021C102.022 112.96 102.23 112.893 102.38 112.823L102.552 113.855C102.481 113.899 102.38 113.943 102.247 113.988C102.115 114.023 101.965 114.054 101.797 114.08C101.63 114.116 101.449 114.142 101.255 114.16C101.069 114.186 100.889 114.199 100.712 114.199ZM114.548 109.447C114.548 110.242 114.425 110.934 114.178 111.526C113.931 112.108 113.582 112.593 113.132 112.982C112.682 113.361 112.144 113.648 111.517 113.842C110.89 114.027 110.202 114.12 109.452 114.12C109.081 114.12 108.671 114.102 108.221 114.067C107.78 114.041 107.378 113.983 107.017 113.895V105C107.378 104.912 107.78 104.854 108.221 104.828C108.671 104.792 109.081 104.775 109.452 104.775C110.202 104.775 110.89 104.872 111.517 105.066C112.144 105.251 112.682 105.538 113.132 105.926C113.582 106.306 113.931 106.791 114.178 107.382C114.425 107.965 114.548 108.653 114.548 109.447ZM109.558 112.995C110.776 112.995 111.685 112.686 112.285 112.068C112.885 111.442 113.185 110.568 113.185 109.447C113.185 108.327 112.885 107.457 112.285 106.84C111.685 106.213 110.776 105.9 109.558 105.9C109.196 105.9 108.914 105.904 108.711 105.913C108.517 105.922 108.38 105.931 108.3 105.94V112.955C108.38 112.964 108.517 112.973 108.711 112.982C108.914 112.99 109.196 112.995 109.558 112.995ZM117.604 114.041H116.373V107.157H117.604V114.041ZM116.982 105.913C116.762 105.913 116.572 105.843 116.413 105.701C116.263 105.551 116.188 105.353 116.188 105.106C116.188 104.859 116.263 104.665 116.413 104.523C116.572 104.373 116.762 104.298 116.982 104.298C117.203 104.298 117.388 104.373 117.538 104.523C117.697 104.665 117.777 104.859 117.777 105.106C117.777 105.353 117.697 105.551 117.538 105.701C117.388 105.843 117.203 105.913 116.982 105.913ZM121.323 113.154C121.826 113.154 122.197 113.087 122.435 112.955C122.682 112.823 122.806 112.611 122.806 112.32C122.806 112.02 122.686 111.781 122.448 111.605C122.21 111.428 121.817 111.23 121.27 111.009C121.005 110.903 120.749 110.798 120.502 110.692C120.264 110.577 120.057 110.445 119.88 110.295C119.704 110.145 119.563 109.964 119.457 109.752C119.351 109.54 119.298 109.28 119.298 108.971C119.298 108.362 119.523 107.881 119.973 107.528C120.423 107.166 121.036 106.985 121.813 106.985C122.007 106.985 122.201 106.999 122.395 107.025C122.589 107.043 122.77 107.069 122.938 107.104C123.106 107.131 123.251 107.162 123.375 107.197C123.507 107.232 123.609 107.263 123.679 107.29L123.454 108.349C123.322 108.278 123.114 108.208 122.832 108.137C122.55 108.058 122.21 108.018 121.813 108.018C121.469 108.018 121.169 108.088 120.913 108.23C120.657 108.362 120.529 108.574 120.529 108.865C120.529 109.015 120.555 109.147 120.608 109.262C120.67 109.377 120.758 109.483 120.873 109.58C120.997 109.668 121.147 109.752 121.323 109.831C121.5 109.911 121.711 109.995 121.958 110.083C122.285 110.206 122.576 110.33 122.832 110.453C123.088 110.568 123.304 110.705 123.481 110.864C123.666 111.023 123.807 111.217 123.904 111.446C124.001 111.667 124.05 111.94 124.05 112.267C124.05 112.902 123.812 113.383 123.335 113.71C122.867 114.036 122.197 114.199 121.323 114.199C120.714 114.199 120.238 114.146 119.893 114.041C119.549 113.943 119.315 113.868 119.192 113.816L119.417 112.757C119.558 112.81 119.783 112.889 120.092 112.995C120.401 113.101 120.811 113.154 121.323 113.154ZM128.62 114.199C128.064 114.199 127.575 114.111 127.151 113.935C126.736 113.758 126.383 113.511 126.092 113.193C125.81 112.876 125.598 112.501 125.457 112.068C125.316 111.627 125.245 111.142 125.245 110.612C125.245 110.083 125.32 109.597 125.47 109.156C125.629 108.715 125.849 108.336 126.132 108.018C126.414 107.691 126.758 107.44 127.164 107.263C127.579 107.078 128.038 106.985 128.541 106.985C128.85 106.985 129.159 107.012 129.467 107.065C129.776 107.118 130.072 107.202 130.354 107.316L130.076 108.362C129.891 108.274 129.675 108.203 129.428 108.15C129.189 108.097 128.934 108.071 128.66 108.071C127.972 108.071 127.442 108.287 127.072 108.719C126.71 109.152 126.529 109.783 126.529 110.612C126.529 110.983 126.569 111.323 126.648 111.631C126.736 111.94 126.869 112.205 127.045 112.426C127.23 112.646 127.464 112.818 127.747 112.942C128.029 113.057 128.373 113.114 128.779 113.114C129.106 113.114 129.401 113.083 129.666 113.021C129.931 112.96 130.138 112.893 130.288 112.823L130.46 113.855C130.39 113.899 130.288 113.943 130.156 113.988C130.023 114.023 129.873 114.054 129.706 114.08C129.538 114.116 129.357 114.142 129.163 114.16C128.978 114.186 128.797 114.199 128.62 114.199ZM137.4 114.12C137.215 114.12 137.012 114.116 136.791 114.107C136.579 114.098 136.363 114.085 136.143 114.067C135.931 114.049 135.719 114.027 135.507 114.001C135.295 113.974 135.101 113.939 134.925 113.895V105C135.101 104.956 135.295 104.92 135.507 104.894C135.719 104.867 135.931 104.845 136.143 104.828C136.363 104.81 136.579 104.797 136.791 104.788C137.003 104.779 137.202 104.775 137.387 104.775C137.916 104.775 138.41 104.815 138.869 104.894C139.337 104.973 139.739 105.11 140.074 105.304C140.418 105.49 140.687 105.737 140.881 106.046C141.075 106.354 141.173 106.734 141.173 107.184C141.173 107.687 141.053 108.102 140.815 108.428C140.577 108.746 140.259 108.984 139.862 109.143C140.4 109.302 140.828 109.553 141.146 109.897C141.464 110.242 141.623 110.727 141.623 111.353C141.623 112.271 141.283 112.964 140.603 113.432C139.933 113.891 138.865 114.12 137.4 114.12ZM136.196 109.765V112.995C136.293 113.004 136.407 113.012 136.54 113.021C136.654 113.03 136.787 113.039 136.937 113.048C137.096 113.048 137.277 113.048 137.479 113.048C137.859 113.048 138.216 113.026 138.552 112.982C138.896 112.929 139.196 112.84 139.452 112.717C139.708 112.593 139.911 112.421 140.061 112.201C140.219 111.98 140.299 111.702 140.299 111.367C140.299 111.067 140.242 110.815 140.127 110.612C140.012 110.4 139.844 110.233 139.624 110.109C139.412 109.986 139.156 109.897 138.856 109.844C138.556 109.792 138.221 109.765 137.85 109.765H136.196ZM136.196 108.733H137.546C137.863 108.733 138.163 108.711 138.446 108.666C138.728 108.622 138.971 108.543 139.174 108.428C139.386 108.313 139.549 108.163 139.664 107.978C139.787 107.793 139.849 107.559 139.849 107.277C139.849 107.012 139.787 106.791 139.664 106.615C139.54 106.429 139.368 106.284 139.147 106.178C138.936 106.063 138.684 105.979 138.393 105.926C138.102 105.873 137.793 105.847 137.466 105.847C137.14 105.847 136.884 105.851 136.699 105.86C136.513 105.869 136.346 105.882 136.196 105.9V108.733ZM145.892 107.012C145.998 107.012 146.117 107.021 146.25 107.038C146.391 107.047 146.528 107.065 146.66 107.091C146.793 107.109 146.912 107.131 147.018 107.157C147.132 107.175 147.216 107.193 147.269 107.21L147.057 108.283C146.96 108.247 146.797 108.208 146.568 108.163C146.347 108.11 146.06 108.084 145.707 108.084C145.478 108.084 145.248 108.11 145.019 108.163C144.798 108.208 144.653 108.238 144.582 108.256V114.041H143.351V107.449C143.642 107.343 144.004 107.246 144.436 107.157C144.869 107.06 145.354 107.012 145.892 107.012ZM150.787 113.154C151.078 113.154 151.334 113.149 151.554 113.14C151.784 113.123 151.974 113.096 152.124 113.061V111.009C152.035 110.965 151.89 110.93 151.687 110.903C151.493 110.868 151.254 110.85 150.972 110.85C150.787 110.85 150.588 110.864 150.376 110.89C150.173 110.917 149.984 110.974 149.807 111.062C149.639 111.142 149.498 111.256 149.384 111.406C149.269 111.548 149.211 111.737 149.211 111.976C149.211 112.417 149.353 112.726 149.635 112.902C149.917 113.07 150.301 113.154 150.787 113.154ZM150.681 106.985C151.175 106.985 151.59 107.052 151.925 107.184C152.269 107.307 152.543 107.488 152.746 107.727C152.957 107.956 153.107 108.234 153.196 108.561C153.284 108.878 153.328 109.231 153.328 109.619V113.921C153.222 113.939 153.072 113.966 152.878 114.001C152.693 114.027 152.481 114.054 152.243 114.08C152.004 114.107 151.744 114.129 151.462 114.146C151.188 114.173 150.915 114.186 150.641 114.186C150.253 114.186 149.895 114.146 149.569 114.067C149.242 113.988 148.96 113.864 148.722 113.696C148.483 113.52 148.298 113.29 148.166 113.008C148.033 112.726 147.967 112.386 147.967 111.989C147.967 111.609 148.042 111.283 148.192 111.009C148.351 110.736 148.563 110.515 148.828 110.347C149.092 110.18 149.401 110.056 149.754 109.977C150.107 109.897 150.478 109.858 150.866 109.858C150.99 109.858 151.118 109.867 151.25 109.884C151.382 109.893 151.506 109.911 151.621 109.937C151.744 109.955 151.85 109.972 151.938 109.99C152.026 110.008 152.088 110.021 152.124 110.03V109.686C152.124 109.483 152.101 109.284 152.057 109.09C152.013 108.887 151.934 108.711 151.819 108.561C151.704 108.402 151.546 108.278 151.343 108.19C151.148 108.093 150.893 108.044 150.575 108.044C150.169 108.044 149.812 108.075 149.503 108.137C149.203 108.19 148.978 108.247 148.828 108.309L148.682 107.29C148.841 107.219 149.106 107.153 149.476 107.091C149.847 107.021 150.248 106.985 150.681 106.985ZM157.861 110.255C158.126 110.458 158.404 110.709 158.695 111.009C158.995 111.309 159.286 111.636 159.569 111.989C159.86 112.333 160.133 112.686 160.389 113.048C160.645 113.401 160.861 113.732 161.038 114.041H159.595C159.41 113.732 159.194 113.418 158.947 113.101C158.708 112.774 158.457 112.465 158.192 112.174C157.927 111.874 157.658 111.601 157.385 111.353C157.111 111.106 156.851 110.899 156.604 110.731V114.041H155.373V103.981L156.604 103.769V110.043C156.815 109.831 157.049 109.597 157.305 109.341C157.561 109.086 157.813 108.825 158.06 108.561C158.307 108.296 158.541 108.044 158.761 107.806C158.982 107.559 159.172 107.343 159.33 107.157H160.773C160.57 107.378 160.35 107.621 160.111 107.885C159.873 108.15 159.626 108.419 159.37 108.693C159.114 108.958 158.854 109.227 158.589 109.5C158.333 109.765 158.091 110.017 157.861 110.255ZM161.555 110.612C161.555 110.003 161.644 109.474 161.82 109.024C161.997 108.565 162.23 108.185 162.522 107.885C162.813 107.585 163.148 107.36 163.528 107.21C163.907 107.06 164.295 106.985 164.693 106.985C165.619 106.985 166.329 107.277 166.824 107.859C167.318 108.433 167.565 109.311 167.565 110.493C167.565 110.546 167.565 110.617 167.565 110.705C167.565 110.784 167.56 110.859 167.552 110.93H162.839C162.892 111.645 163.1 112.187 163.462 112.558C163.823 112.929 164.388 113.114 165.156 113.114C165.588 113.114 165.95 113.079 166.241 113.008C166.541 112.929 166.766 112.854 166.916 112.783L167.088 113.816C166.938 113.895 166.674 113.979 166.294 114.067C165.924 114.155 165.5 114.199 165.023 114.199C164.423 114.199 163.903 114.111 163.462 113.935C163.029 113.749 162.672 113.498 162.389 113.18C162.107 112.862 161.895 112.487 161.754 112.055C161.622 111.614 161.555 111.133 161.555 110.612ZM166.281 109.937C166.29 109.381 166.149 108.927 165.857 108.574C165.575 108.212 165.182 108.031 164.679 108.031C164.397 108.031 164.145 108.088 163.925 108.203C163.713 108.309 163.532 108.45 163.382 108.627C163.232 108.803 163.113 109.006 163.025 109.236C162.945 109.465 162.892 109.699 162.866 109.937H166.281ZM170.935 113.154C171.438 113.154 171.808 113.087 172.047 112.955C172.294 112.823 172.417 112.611 172.417 112.32C172.417 112.02 172.298 111.781 172.06 111.605C171.822 111.428 171.429 111.23 170.882 111.009C170.617 110.903 170.361 110.798 170.114 110.692C169.876 110.577 169.669 110.445 169.492 110.295C169.316 110.145 169.174 109.964 169.068 109.752C168.963 109.54 168.91 109.28 168.91 108.971C168.91 108.362 169.135 107.881 169.585 107.528C170.035 107.166 170.648 106.985 171.425 106.985C171.619 106.985 171.813 106.999 172.007 107.025C172.201 107.043 172.382 107.069 172.55 107.104C172.717 107.131 172.863 107.162 172.987 107.197C173.119 107.232 173.22 107.263 173.291 107.29L173.066 108.349C172.934 108.278 172.726 108.208 172.444 108.137C172.161 108.058 171.822 108.018 171.425 108.018C171.08 108.018 170.78 108.088 170.525 108.23C170.269 108.362 170.141 108.574 170.141 108.865C170.141 109.015 170.167 109.147 170.22 109.262C170.282 109.377 170.37 109.483 170.485 109.58C170.608 109.668 170.758 109.752 170.935 109.831C171.111 109.911 171.323 109.995 171.57 110.083C171.897 110.206 172.188 110.33 172.444 110.453C172.7 110.568 172.916 110.705 173.092 110.864C173.278 111.023 173.419 111.217 173.516 111.446C173.613 111.667 173.662 111.94 173.662 112.267C173.662 112.902 173.423 113.383 172.947 113.71C172.479 114.036 171.808 114.199 170.935 114.199C170.326 114.199 169.849 114.146 169.505 114.041C169.161 113.943 168.927 113.868 168.804 113.816L169.029 112.757C169.17 112.81 169.395 112.889 169.704 112.995C170.013 113.101 170.423 113.154 170.935 113.154Z" fill="#42454A"/>
<path d="M111.506 56.8659C111.506 57.87 111.308 58.8344 110.911 59.7592C110.515 60.684 110 61.5823 109.366 62.4543C108.732 63.2998 108.018 64.1189 107.226 64.9115C106.433 65.7042 105.653 66.4572 104.887 67.1706C104.491 67.5406 104.055 67.9633 103.579 68.4389C103.13 68.8881 102.694 69.3505 102.271 69.8261C101.849 70.3017 101.465 70.7509 101.122 71.1736C100.805 71.57 100.607 71.9002 100.527 72.1645H112.338V77.1187H94.0276C93.9747 76.828 93.9483 76.4581 93.9483 76.0089C93.9483 75.5597 93.9483 75.2427 93.9483 75.0577C93.9483 73.7894 94.1465 72.6269 94.5428 71.57C94.9656 70.5131 95.5072 69.5354 96.1678 68.6371C96.8284 67.7123 97.5682 66.8536 98.3873 66.0609C99.2328 65.2682 100.065 64.4756 100.884 63.6829C101.518 63.0752 102.113 62.5071 102.668 61.9787C103.223 61.4238 103.711 60.8953 104.134 60.3933C104.557 59.8649 104.887 59.3496 105.125 58.8476C105.363 58.3192 105.482 57.7907 105.482 57.2623C105.482 56.0997 105.151 55.2806 104.491 54.805C103.83 54.3294 103.011 54.0916 102.034 54.0916C101.32 54.0916 100.646 54.2105 100.012 54.4483C99.4045 54.6597 98.8365 54.9239 98.308 55.241C97.806 55.5316 97.37 55.8355 97.0001 56.1525C96.6302 56.4432 96.3528 56.681 96.1678 56.8659L93.2349 52.744C94.3975 51.6607 95.745 50.7756 97.2775 50.0886C98.8365 49.3752 100.501 49.0185 102.271 49.0185C103.883 49.0185 105.27 49.2035 106.433 49.5734C107.595 49.9433 108.547 50.4717 109.286 51.1587C110.053 51.8193 110.608 52.6384 110.951 53.616C111.321 54.5672 111.506 55.6505 111.506 56.8659ZM125.432 62.6128L129.553 56.2714H135.657L128.523 66.2987C130.108 68.2804 131.548 70.2092 132.843 72.0852C134.138 73.9612 135.168 75.639 135.934 77.1187H129.593C129.382 76.7223 129.117 76.2335 128.8 75.6522C128.483 75.0445 128.127 74.4236 127.73 73.7894C127.334 73.1289 126.911 72.4815 126.462 71.8474C126.039 71.1868 125.617 70.5923 125.194 70.0639C124.797 70.5659 124.388 71.1208 123.965 71.7285C123.569 72.3362 123.186 72.9571 122.816 73.5913C122.446 74.199 122.076 74.8067 121.706 75.4144C121.363 76.0221 121.059 76.5902 120.794 77.1187H114.77C115.087 76.4581 115.523 75.6786 116.078 74.7803C116.633 73.8819 117.227 72.9571 117.862 72.0059C118.522 71.0283 119.209 70.0639 119.923 69.1127C120.636 68.1351 121.336 67.2235 122.023 66.378C120.834 64.7134 119.645 63.0355 118.456 61.3445C117.267 59.6271 116.091 57.936 114.929 56.2714H121.31L125.432 62.6128Z" fill="#42454A"/>
<defs>
<filter id="filter0_d_4_228" x="0.110865" y="0.788831" width="227.311" height="189.845" filterUnits="userSpaceOnUse" color-interpolation-filters="sRGB">
<feFlood flood-opacity="0" result="BackgroundImageFix"/>
<feColorMatrix in="SourceAlpha" type="matrix" values="0 0 0 0 0 0 0 0 0 0 0 0 0 0 0 0 0 0 127 0" result="hardAlpha"/>
<feOffset dy="13.2112"/>
<feGaussianBlur stdDeviation="13.2112"/>
<feColorMatrix type="matrix" values="0 0 0 0 0 0 0 0 0 0 0 0 0 0 0 0 0 0 0.06 0"/>
<feBlend mode="normal" in2="BackgroundImageFix" result="effect1_dropShadow_4_228"/>
<feBlend mode="normal" in="SourceGraphic" in2="effect1_dropShadow_4_228" result="shape"/>
</filter>
</defs>
</svg>
