<svg width="228" height="191" viewBox="0 0 228 191" fill="none" xmlns="http://www.w3.org/2000/svg">
<g filter="url(#filter0_d_4_223)">
<rect x="26.4258" y="14" width="174.467" height="137" rx="6.60558" fill="white"/>
<rect x="26.7561" y="14.3303" width="173.807" height="136.339" rx="6.27531" stroke="#F4F4F4" stroke-width="0.660558"/>
</g>
<path d="M83.4526 105.032H84.7136V114.041H83.4526V109.881H79.0456V114.041H77.7846V105.032H79.0456V108.789H83.4526V105.032ZM88.0816 114.041H86.8726V107.281H88.0816V114.041ZM87.4706 106.059C87.2539 106.059 87.0676 105.989 86.9116 105.851C86.7642 105.703 86.6906 105.508 86.6906 105.266C86.6906 105.023 86.7642 104.832 86.9116 104.694C87.0676 104.546 87.2539 104.473 87.4706 104.473C87.6872 104.473 87.8692 104.546 88.0166 104.694C88.1726 104.832 88.2506 105.023 88.2506 105.266C88.2506 105.508 88.1726 105.703 88.0166 105.851C87.8692 105.989 87.6872 106.059 87.4706 106.059ZM92.1887 114.171C91.4433 114.153 90.9147 113.993 90.6027 113.69C90.2907 113.386 90.1347 112.914 90.1347 112.273V104.161L91.3437 103.953V112.078C91.3437 112.277 91.361 112.442 91.3957 112.572C91.4303 112.702 91.4867 112.806 91.5647 112.884C91.6427 112.962 91.7467 113.022 91.8767 113.066C92.0067 113.1 92.167 113.131 92.3577 113.157L92.1887 114.171ZM95.7434 114.171C94.998 114.153 94.4694 113.993 94.1574 113.69C93.8454 113.386 93.6894 112.914 93.6894 112.273V104.161L94.8984 103.953V112.078C94.8984 112.277 94.9157 112.442 94.9504 112.572C94.985 112.702 95.0414 112.806 95.1194 112.884C95.1974 112.962 95.3014 113.022 95.4314 113.066C95.5614 113.1 95.7217 113.131 95.9124 113.157L95.7434 114.171ZM104.231 114.236C103.598 114.236 103.022 114.132 102.502 113.924C101.982 113.716 101.535 113.412 101.163 113.014C100.79 112.615 100.5 112.125 100.292 111.545C100.092 110.955 99.9928 110.284 99.9928 109.53C99.9928 108.776 100.105 108.108 100.331 107.528C100.565 106.938 100.877 106.444 101.267 106.046C101.657 105.647 102.112 105.344 102.632 105.136C103.152 104.928 103.706 104.824 104.296 104.824C104.668 104.824 105.002 104.85 105.297 104.902C105.6 104.954 105.86 105.014 106.077 105.084C106.302 105.153 106.484 105.222 106.623 105.292C106.761 105.361 106.857 105.413 106.909 105.448L106.545 106.488C106.467 106.436 106.354 106.379 106.207 106.319C106.059 106.258 105.89 106.197 105.7 106.137C105.518 106.076 105.314 106.028 105.089 105.994C104.872 105.95 104.651 105.929 104.426 105.929C103.949 105.929 103.52 106.011 103.139 106.176C102.757 106.34 102.432 106.579 102.164 106.891C101.895 107.203 101.687 107.584 101.54 108.035C101.401 108.477 101.332 108.975 101.332 109.53C101.332 110.067 101.392 110.557 101.514 110.999C101.644 111.441 101.834 111.822 102.086 112.143C102.337 112.455 102.649 112.697 103.022 112.871C103.403 113.044 103.845 113.131 104.348 113.131C104.928 113.131 105.409 113.07 105.791 112.949C106.172 112.827 106.458 112.719 106.649 112.624L106.974 113.664C106.913 113.707 106.805 113.763 106.649 113.833C106.493 113.893 106.298 113.954 106.064 114.015C105.83 114.075 105.557 114.127 105.245 114.171C104.933 114.214 104.595 114.236 104.231 114.236ZM110.368 114.171C109.623 114.153 109.094 113.993 108.782 113.69C108.47 113.386 108.314 112.914 108.314 112.273V104.161L109.523 103.953V112.078C109.523 112.277 109.541 112.442 109.575 112.572C109.61 112.702 109.666 112.806 109.744 112.884C109.822 112.962 109.926 113.022 110.056 113.066C110.186 113.1 110.347 113.131 110.537 113.157L110.368 114.171ZM113.104 114.041H111.895V107.281H113.104V114.041ZM112.493 106.059C112.276 106.059 112.09 105.989 111.934 105.851C111.787 105.703 111.713 105.508 111.713 105.266C111.713 105.023 111.787 104.832 111.934 104.694C112.09 104.546 112.276 104.473 112.493 104.473C112.71 104.473 112.892 104.546 113.039 104.694C113.195 104.832 113.273 105.023 113.273 105.266C113.273 105.508 113.195 105.703 113.039 105.851C112.892 105.989 112.71 106.059 112.493 106.059ZM115.183 107.476C115.46 107.406 115.824 107.333 116.275 107.255C116.734 107.177 117.263 107.138 117.861 107.138C118.294 107.138 118.658 107.198 118.953 107.32C119.248 107.432 119.495 107.601 119.694 107.827C119.755 107.783 119.85 107.723 119.98 107.645C120.11 107.567 120.27 107.493 120.461 107.424C120.652 107.346 120.864 107.281 121.098 107.229C121.332 107.168 121.583 107.138 121.852 107.138C122.372 107.138 122.797 107.216 123.126 107.372C123.455 107.519 123.711 107.731 123.893 108.009C124.084 108.286 124.209 108.615 124.27 108.997C124.339 109.378 124.374 109.794 124.374 110.245V114.041H123.165V110.505C123.165 110.106 123.143 109.764 123.1 109.478C123.065 109.192 122.992 108.953 122.879 108.763C122.775 108.572 122.628 108.433 122.437 108.347C122.255 108.251 122.017 108.204 121.722 108.204C121.315 108.204 120.977 108.26 120.708 108.373C120.448 108.477 120.27 108.572 120.175 108.659C120.244 108.884 120.296 109.131 120.331 109.4C120.366 109.668 120.383 109.95 120.383 110.245V114.041H119.174V110.505C119.174 110.106 119.152 109.764 119.109 109.478C119.066 109.192 118.988 108.953 118.875 108.763C118.771 108.572 118.624 108.433 118.433 108.347C118.251 108.251 118.017 108.204 117.731 108.204C117.61 108.204 117.48 108.208 117.341 108.217C117.202 108.225 117.068 108.238 116.938 108.256C116.817 108.264 116.704 108.277 116.6 108.295C116.496 108.312 116.427 108.325 116.392 108.334V114.041H115.183V107.476ZM127.589 107.58C127.737 107.484 127.958 107.385 128.252 107.281C128.556 107.177 128.902 107.125 129.292 107.125C129.778 107.125 130.207 107.211 130.579 107.385C130.961 107.558 131.281 107.801 131.541 108.113C131.801 108.425 131.996 108.797 132.126 109.231C132.265 109.664 132.334 110.141 132.334 110.661C132.334 111.207 132.252 111.701 132.087 112.143C131.931 112.576 131.706 112.944 131.411 113.248C131.117 113.551 130.761 113.785 130.345 113.95C129.929 114.114 129.461 114.197 128.941 114.197C128.378 114.197 127.88 114.158 127.446 114.08C127.013 114.002 126.658 113.924 126.38 113.846V104.161L127.589 103.953V107.58ZM127.589 112.988C127.711 113.022 127.88 113.057 128.096 113.092C128.322 113.118 128.599 113.131 128.928 113.131C129.578 113.131 130.098 112.918 130.488 112.494C130.878 112.06 131.073 111.449 131.073 110.661C131.073 110.314 131.039 109.989 130.969 109.686C130.9 109.382 130.787 109.122 130.631 108.906C130.475 108.68 130.272 108.507 130.02 108.386C129.778 108.256 129.483 108.191 129.136 108.191C128.807 108.191 128.504 108.247 128.226 108.36C127.949 108.472 127.737 108.589 127.589 108.711V112.988ZM135.245 114.041H134.036V107.281H135.245V114.041ZM134.634 106.059C134.417 106.059 134.231 105.989 134.075 105.851C133.927 105.703 133.854 105.508 133.854 105.266C133.854 105.023 133.927 104.832 134.075 104.694C134.231 104.546 134.417 104.473 134.634 104.473C134.85 104.473 135.032 104.546 135.18 104.694C135.336 104.832 135.414 105.023 135.414 105.266C135.414 105.508 135.336 105.703 135.18 105.851C135.032 105.989 134.85 106.059 134.634 106.059ZM137.324 107.476C137.601 107.406 137.969 107.333 138.429 107.255C138.888 107.177 139.417 107.138 140.015 107.138C140.552 107.138 140.998 107.216 141.354 107.372C141.709 107.519 141.991 107.731 142.199 108.009C142.415 108.277 142.567 108.602 142.654 108.984C142.74 109.365 142.784 109.785 142.784 110.245V114.041H141.575V110.505C141.575 110.089 141.544 109.733 141.484 109.439C141.432 109.144 141.341 108.906 141.211 108.724C141.081 108.542 140.907 108.412 140.691 108.334C140.474 108.247 140.205 108.204 139.885 108.204C139.755 108.204 139.62 108.208 139.482 108.217C139.343 108.225 139.209 108.238 139.079 108.256C138.957 108.264 138.845 108.277 138.741 108.295C138.645 108.312 138.576 108.325 138.533 108.334V114.041H137.324V107.476ZM149.027 113.365C148.923 113.434 148.719 113.525 148.416 113.638C148.121 113.742 147.774 113.794 147.376 113.794C146.968 113.794 146.583 113.729 146.219 113.599C145.863 113.469 145.551 113.269 145.283 113.001C145.014 112.723 144.802 112.381 144.646 111.974C144.49 111.566 144.412 111.081 144.412 110.518C144.412 110.024 144.485 109.573 144.633 109.166C144.78 108.75 144.992 108.394 145.27 108.1C145.556 107.796 145.902 107.562 146.31 107.398C146.717 107.224 147.176 107.138 147.688 107.138C148.251 107.138 148.741 107.181 149.157 107.268C149.581 107.346 149.937 107.419 150.223 107.489V113.521C150.223 114.561 149.954 115.315 149.417 115.783C148.879 116.251 148.065 116.485 146.973 116.485C146.548 116.485 146.145 116.45 145.764 116.381C145.391 116.311 145.066 116.229 144.789 116.134L145.01 115.081C145.252 115.176 145.547 115.258 145.894 115.328C146.249 115.406 146.617 115.445 146.999 115.445C147.718 115.445 148.234 115.302 148.546 115.016C148.866 114.73 149.027 114.275 149.027 113.651V113.365ZM149.014 108.347C148.892 108.312 148.728 108.282 148.52 108.256C148.32 108.221 148.047 108.204 147.701 108.204C147.051 108.204 146.548 108.416 146.193 108.841C145.846 109.265 145.673 109.829 145.673 110.531C145.673 110.921 145.72 111.254 145.816 111.532C145.92 111.809 146.054 112.039 146.219 112.221C146.392 112.403 146.587 112.537 146.804 112.624C147.029 112.71 147.259 112.754 147.493 112.754C147.813 112.754 148.108 112.71 148.377 112.624C148.645 112.528 148.858 112.42 149.014 112.299V108.347Z" fill="#42454A"/>
<path d="M64.5906 56.6787C64.5906 57.692 64.3906 58.6653 63.9906 59.5987C63.5906 60.532 63.0706 61.4387 62.4306 62.3187C61.7906 63.172 61.0706 63.9987 60.2706 64.7987C59.4706 65.5987 58.6839 66.3587 57.9106 67.0787C57.5106 67.452 57.0706 67.8787 56.5906 68.3587C56.1373 68.812 55.6973 69.2787 55.2706 69.7587C54.8439 70.2387 54.4573 70.692 54.1106 71.1187C53.7906 71.5187 53.5906 71.852 53.5106 72.1187H65.4306V77.1187H46.9506C46.8973 76.8253 46.8706 76.452 46.8706 75.9987C46.8706 75.5453 46.8706 75.2253 46.8706 75.0387C46.8706 73.7587 47.0706 72.5853 47.4706 71.5187C47.8973 70.452 48.4439 69.4653 49.1106 68.5587C49.7773 67.6253 50.5239 66.7587 51.3506 65.9587C52.2039 65.1587 53.0439 64.3587 53.8706 63.5587C54.5106 62.9453 55.1106 62.372 55.6706 61.8387C56.2306 61.2787 56.7239 60.7453 57.1506 60.2387C57.5773 59.7053 57.9106 59.1853 58.1506 58.6787C58.3906 58.1453 58.5106 57.612 58.5106 57.0787C58.5106 55.9053 58.1773 55.0787 57.5106 54.5987C56.8439 54.1187 56.0173 53.8787 55.0306 53.8787C54.3106 53.8787 53.6306 53.9987 52.9906 54.2387C52.3773 54.452 51.8039 54.7187 51.2706 55.0387C50.7639 55.332 50.3239 55.6387 49.9506 55.9587C49.5773 56.252 49.2973 56.492 49.1106 56.6787L46.1506 52.5187C47.3239 51.4253 48.6839 50.532 50.2306 49.8387C51.8039 49.1187 53.4839 48.7587 55.2706 48.7587C56.8973 48.7587 58.2973 48.9453 59.4706 49.3187C60.6439 49.692 61.6039 50.2253 62.3506 50.9187C63.1239 51.5853 63.6839 52.412 64.0306 53.3987C64.4039 54.3587 64.5906 55.452 64.5906 56.6787ZM87.325 56.6787C87.325 57.692 87.125 58.6653 86.725 59.5987C86.325 60.532 85.805 61.4387 85.165 62.3187C84.525 63.172 83.805 63.9987 83.005 64.7987C82.205 65.5987 81.4183 66.3587 80.645 67.0787C80.245 67.452 79.805 67.8787 79.325 68.3587C78.8717 68.812 78.4317 69.2787 78.005 69.7587C77.5783 70.2387 77.1917 70.692 76.845 71.1187C76.525 71.5187 76.325 71.852 76.245 72.1187H88.165V77.1187H69.685C69.6317 76.8253 69.605 76.452 69.605 75.9987C69.605 75.5453 69.605 75.2253 69.605 75.0387C69.605 73.7587 69.805 72.5853 70.205 71.5187C70.6317 70.452 71.1783 69.4653 71.845 68.5587C72.5117 67.6253 73.2583 66.7587 74.085 65.9587C74.9383 65.1587 75.7783 64.3587 76.605 63.5587C77.245 62.9453 77.845 62.372 78.405 61.8387C78.965 61.2787 79.4583 60.7453 79.885 60.2387C80.3117 59.7053 80.645 59.1853 80.885 58.6787C81.125 58.1453 81.245 57.612 81.245 57.0787C81.245 55.9053 80.9117 55.0787 80.245 54.5987C79.5783 54.1187 78.7517 53.8787 77.765 53.8787C77.045 53.8787 76.365 53.9987 75.725 54.2387C75.1117 54.452 74.5383 54.7187 74.005 55.0387C73.4983 55.332 73.0583 55.6387 72.685 55.9587C72.3117 56.252 72.0317 56.492 71.845 56.6787L68.885 52.5187C70.0583 51.4253 71.4183 50.532 72.965 49.8387C74.5383 49.1187 76.2183 48.7587 78.005 48.7587C79.6317 48.7587 81.0317 48.9453 82.205 49.3187C83.3783 49.692 84.3383 50.2253 85.085 50.9187C85.8583 51.5853 86.4183 52.412 86.765 53.3987C87.1383 54.3587 87.325 55.452 87.325 56.6787ZM105.779 56.5187C105.779 59.0253 105.139 60.9453 103.859 62.2787C102.579 63.612 100.859 64.2787 98.6994 64.2787C96.5394 64.2787 94.8194 63.612 93.5394 62.2787C92.2594 60.9453 91.6194 59.0253 91.6194 56.5187C91.6194 54.012 92.2594 52.092 93.5394 50.7587C94.8194 49.4253 96.5394 48.7587 98.6994 48.7587C100.859 48.7587 102.579 49.4253 103.859 50.7587C105.139 52.092 105.779 54.012 105.779 56.5187ZM101.259 56.5187C101.259 55.1587 101.019 54.172 100.539 53.5587C100.059 52.9453 99.446 52.6387 98.6994 52.6387C97.926 52.6387 97.2994 52.9453 96.8194 53.5587C96.366 54.172 96.1394 55.1587 96.1394 56.5187C96.1394 57.8787 96.366 58.8787 96.8194 59.5187C97.2994 60.132 97.926 60.4387 98.6994 60.4387C99.446 60.4387 100.059 60.132 100.539 59.5187C101.019 58.8787 101.259 57.8787 101.259 56.5187ZM113.579 49.3987H119.139L103.499 77.1187H97.9394L113.579 49.3987ZM125.539 69.9987C125.539 72.5053 124.899 74.4253 123.619 75.7587C122.339 77.092 120.619 77.7587 118.459 77.7587C116.299 77.7587 114.579 77.092 113.299 75.7587C112.019 74.4253 111.379 72.5053 111.379 69.9987C111.379 67.492 112.019 65.572 113.299 64.2387C114.579 62.9053 116.299 62.2387 118.459 62.2387C120.619 62.2387 122.339 62.9053 123.619 64.2387C124.899 65.572 125.539 67.492 125.539 69.9987ZM121.019 69.9987C121.019 68.6387 120.779 67.652 120.299 67.0387C119.819 66.4253 119.206 66.1187 118.459 66.1187C117.686 66.1187 117.059 66.4253 116.579 67.0387C116.126 67.652 115.899 68.6387 115.899 69.9987C115.899 71.3587 116.126 72.3587 116.579 72.9987C117.059 73.612 117.686 73.9187 118.459 73.9187C119.206 73.9187 119.819 73.612 120.299 72.9987C120.779 72.3587 121.019 71.3587 121.019 69.9987ZM140.437 75.1927C140.929 75.1927 141.277 75.1447 141.481 75.0487C141.685 74.9527 141.787 74.7667 141.787 74.4907C141.787 74.2747 141.655 74.0887 141.391 73.9327C141.127 73.7647 140.725 73.5787 140.185 73.3747C139.765 73.2187 139.381 73.0567 139.033 72.8887C138.697 72.7207 138.409 72.5227 138.169 72.2947C137.929 72.0547 137.743 71.7727 137.611 71.4487C137.479 71.1247 137.413 70.7347 137.413 70.2787C137.413 69.3907 137.743 68.6887 138.403 68.1727C139.063 67.6567 139.969 67.3987 141.121 67.3987C141.697 67.3987 142.249 67.4527 142.777 67.5607C143.305 67.6567 143.725 67.7647 144.037 67.8847L143.569 69.9727C143.257 69.8647 142.915 69.7687 142.543 69.6847C142.183 69.6007 141.775 69.5587 141.319 69.5587C140.479 69.5587 140.059 69.7927 140.059 70.2607C140.059 70.3687 140.077 70.4647 140.113 70.5487C140.149 70.6327 140.221 70.7167 140.329 70.8007C140.437 70.8727 140.581 70.9567 140.761 71.0527C140.953 71.1367 141.193 71.2327 141.481 71.3407C142.069 71.5567 142.555 71.7727 142.939 71.9887C143.323 72.1927 143.623 72.4207 143.839 72.6727C144.067 72.9127 144.223 73.1827 144.307 73.4827C144.403 73.7827 144.451 74.1307 144.451 74.5267C144.451 75.4627 144.097 76.1707 143.389 76.6507C142.693 77.1307 141.703 77.3707 140.419 77.3707C139.579 77.3707 138.877 77.2987 138.313 77.1547C137.761 77.0107 137.377 76.8907 137.161 76.7947L137.611 74.6167C138.067 74.7967 138.535 74.9407 139.015 75.0487C139.495 75.1447 139.969 75.1927 140.437 75.1927ZM150.236 77.2987C149.456 77.2867 148.82 77.2027 148.328 77.0467C147.848 76.8907 147.464 76.6747 147.176 76.3987C146.9 76.1107 146.708 75.7687 146.6 75.3727C146.504 74.9647 146.456 74.5087 146.456 74.0047V63.5827L149.138 63.1507V73.4647C149.138 73.7047 149.156 73.9207 149.192 74.1127C149.228 74.3047 149.294 74.4667 149.39 74.5987C149.498 74.7307 149.648 74.8387 149.84 74.9227C150.032 75.0067 150.29 75.0607 150.614 75.0847L150.236 77.2987ZM161.007 72.3667C161.007 73.1107 160.899 73.7947 160.683 74.4187C160.467 75.0307 160.155 75.5587 159.747 76.0027C159.339 76.4347 158.847 76.7707 158.271 77.0107C157.707 77.2507 157.071 77.3707 156.363 77.3707C155.667 77.3707 155.031 77.2507 154.455 77.0107C153.891 76.7707 153.405 76.4347 152.997 76.0027C152.589 75.5587 152.271 75.0307 152.043 74.4187C151.815 73.7947 151.701 73.1107 151.701 72.3667C151.701 71.6227 151.815 70.9447 152.043 70.3327C152.283 69.7207 152.607 69.1987 153.015 68.7667C153.435 68.3347 153.927 67.9987 154.491 67.7587C155.067 67.5187 155.691 67.3987 156.363 67.3987C157.047 67.3987 157.671 67.5187 158.235 67.7587C158.811 67.9987 159.303 68.3347 159.711 68.7667C160.119 69.1987 160.437 69.7207 160.665 70.3327C160.893 70.9447 161.007 71.6227 161.007 72.3667ZM158.271 72.3667C158.271 71.5387 158.103 70.8907 157.767 70.4227C157.443 69.9427 156.975 69.7027 156.363 69.7027C155.751 69.7027 155.277 69.9427 154.941 70.4227C154.605 70.8907 154.437 71.5387 154.437 72.3667C154.437 73.1947 154.605 73.8547 154.941 74.3467C155.277 74.8267 155.751 75.0667 156.363 75.0667C156.975 75.0667 157.443 74.8267 157.767 74.3467C158.103 73.8547 158.271 73.1947 158.271 72.3667ZM169.151 72.4567C169.151 71.6287 168.965 70.9687 168.593 70.4767C168.221 69.9727 167.669 69.7207 166.937 69.7207C166.697 69.7207 166.475 69.7327 166.271 69.7567C166.067 69.7687 165.899 69.7867 165.767 69.8107V74.6527C165.935 74.7607 166.151 74.8507 166.415 74.9227C166.691 74.9947 166.967 75.0307 167.243 75.0307C168.515 75.0307 169.151 74.1727 169.151 72.4567ZM171.887 72.3847C171.887 73.1167 171.797 73.7827 171.617 74.3827C171.437 74.9827 171.173 75.4987 170.825 75.9307C170.477 76.3627 170.045 76.6987 169.529 76.9387C169.013 77.1787 168.419 77.2987 167.747 77.2987C167.375 77.2987 167.027 77.2627 166.703 77.1907C166.379 77.1187 166.067 77.0167 165.767 76.8847V80.4487H163.085V67.9747C163.325 67.9027 163.601 67.8367 163.913 67.7767C164.225 67.7047 164.549 67.6447 164.885 67.5967C165.233 67.5487 165.581 67.5127 165.929 67.4887C166.289 67.4527 166.631 67.4347 166.955 67.4347C167.735 67.4347 168.431 67.5547 169.043 67.7947C169.655 68.0227 170.171 68.3527 170.591 68.7847C171.011 69.2047 171.329 69.7207 171.545 70.3327C171.773 70.9447 171.887 71.6287 171.887 72.3847ZM173.498 72.4567C173.498 71.6167 173.624 70.8847 173.876 70.2607C174.14 69.6247 174.482 69.0967 174.902 68.6767C175.322 68.2567 175.802 67.9387 176.342 67.7227C176.894 67.5067 177.458 67.3987 178.034 67.3987C179.378 67.3987 180.44 67.8127 181.22 68.6407C182 69.4567 182.39 70.6627 182.39 72.2587C182.39 72.4147 182.384 72.5887 182.372 72.7807C182.36 72.9607 182.348 73.1227 182.336 73.2667H176.252C176.312 73.8187 176.57 74.2567 177.026 74.5807C177.482 74.9047 178.094 75.0667 178.862 75.0667C179.354 75.0667 179.834 75.0247 180.302 74.9407C180.782 74.8447 181.172 74.7307 181.472 74.5987L181.832 76.7767C181.688 76.8487 181.496 76.9207 181.256 76.9927C181.016 77.0647 180.746 77.1247 180.446 77.1727C180.158 77.2327 179.846 77.2807 179.51 77.3167C179.174 77.3527 178.838 77.3707 178.502 77.3707C177.65 77.3707 176.906 77.2447 176.27 76.9927C175.646 76.7407 175.124 76.3987 174.704 75.9667C174.296 75.5227 173.99 75.0007 173.786 74.4007C173.594 73.8007 173.498 73.1527 173.498 72.4567ZM179.798 71.4307C179.786 71.2027 179.744 70.9807 179.672 70.7647C179.612 70.5487 179.51 70.3567 179.366 70.1887C179.234 70.0207 179.06 69.8827 178.844 69.7747C178.64 69.6667 178.382 69.6127 178.07 69.6127C177.77 69.6127 177.512 69.6667 177.296 69.7747C177.08 69.8707 176.9 70.0027 176.756 70.1707C176.612 70.3387 176.498 70.5367 176.414 70.7647C176.342 70.9807 176.288 71.2027 176.252 71.4307H179.798Z" fill="#42454A"/>
<defs>
<filter id="filter0_d_4_223" x="0.00344276" y="0.788831" width="227.311" height="189.845" filterUnits="userSpaceOnUse" color-interpolation-filters="sRGB">
<feFlood flood-opacity="0" result="BackgroundImageFix"/>
<feColorMatrix in="SourceAlpha" type="matrix" values="0 0 0 0 0 0 0 0 0 0 0 0 0 0 0 0 0 0 127 0" result="hardAlpha"/>
<feOffset dy="13.2112"/>
<feGaussianBlur stdDeviation="13.2112"/>
<feColorMatrix type="matrix" values="0 0 0 0 0 0 0 0 0 0 0 0 0 0 0 0 0 0 0.06 0"/>
<feBlend mode="normal" in2="BackgroundImageFix" result="effect1_dropShadow_4_223"/>
<feBlend mode="normal" in="SourceGraphic" in2="effect1_dropShadow_4_223" result="shape"/>
</filter>
</defs>
</svg>
