<svg width="228" height="191" viewBox="0 0 228 191" fill="none" xmlns="http://www.w3.org/2000/svg">
<g filter="url(#filter0_d_4_176)">
<rect x="27" y="14" width="174.467" height="137" rx="6.60558" fill="white"/>
<rect x="27.3303" y="14.3303" width="173.807" height="136.339" rx="6.27531" stroke="#F4F4F4" stroke-width="0.660558"/>
</g>
<path d="M87.6015 114.039C87.4109 113.718 87.1899 113.358 86.9385 112.96C86.6959 112.561 86.4315 112.149 86.1455 111.725C85.8595 111.291 85.5605 110.854 85.2485 110.412C84.9452 109.97 84.6419 109.545 84.3385 109.138C84.0352 108.722 83.7405 108.332 83.4545 107.968C83.1685 107.604 82.9042 107.283 82.6615 107.006V114.039H81.4265V105.03H82.4275C82.8349 105.463 83.2682 105.97 83.7275 106.551C84.1955 107.123 84.6549 107.716 85.1055 108.332C85.5649 108.938 85.9939 109.536 86.3925 110.126C86.7999 110.715 87.1422 111.239 87.4195 111.699V105.03H88.6545V114.039H87.6015ZM90.4295 110.672C90.4295 110.074 90.5162 109.554 90.6895 109.112C90.8629 108.661 91.0925 108.288 91.3785 107.994C91.6645 107.699 91.9939 107.478 92.3665 107.331C92.7392 107.183 93.1205 107.11 93.5105 107.11C94.4205 107.11 95.1182 107.396 95.6035 107.968C96.0889 108.531 96.3315 109.393 96.3315 110.555C96.3315 110.607 96.3315 110.676 96.3315 110.763C96.3315 110.841 96.3272 110.914 96.3185 110.984H91.6905C91.7425 111.686 91.9462 112.219 92.3015 112.583C92.6569 112.947 93.2115 113.129 93.9655 113.129C94.3902 113.129 94.7455 113.094 95.0315 113.025C95.3262 112.947 95.5472 112.873 95.6945 112.804L95.8635 113.818C95.7162 113.896 95.4562 113.978 95.0835 114.065C94.7195 114.151 94.3035 114.195 93.8355 114.195C93.2462 114.195 92.7349 114.108 92.3015 113.935C91.8769 113.753 91.5259 113.506 91.2485 113.194C90.9712 112.882 90.7632 112.513 90.6245 112.089C90.4945 111.655 90.4295 111.183 90.4295 110.672ZM95.0705 110.009C95.0792 109.463 94.9405 109.016 94.6545 108.67C94.3772 108.314 93.9915 108.137 93.4975 108.137C93.2202 108.137 92.9732 108.193 92.7565 108.306C92.5485 108.41 92.3709 108.548 92.2235 108.722C92.0762 108.895 91.9592 109.094 91.8725 109.32C91.7945 109.545 91.7425 109.775 91.7165 110.009H95.0705ZM99.1992 107.279H101.76V108.293H99.1992V111.413C99.1992 111.751 99.2252 112.032 99.2772 112.258C99.3292 112.474 99.4072 112.648 99.5112 112.778C99.6152 112.899 99.7452 112.986 99.9012 113.038C100.057 113.09 100.239 113.116 100.447 113.116C100.811 113.116 101.102 113.077 101.318 112.999C101.544 112.912 101.7 112.851 101.786 112.817L102.02 113.818C101.899 113.878 101.687 113.952 101.383 114.039C101.08 114.134 100.733 114.182 100.343 114.182C99.8839 114.182 99.5026 114.125 99.1992 114.013C98.9046 113.891 98.6662 113.714 98.4842 113.48C98.3022 113.246 98.1722 112.96 98.0942 112.622C98.0249 112.275 97.9902 111.876 97.9902 111.426V105.394L99.1992 105.186V107.279ZM111.313 107.929C110.949 109.09 110.58 110.165 110.208 111.153C109.835 112.141 109.462 113.103 109.09 114.039H107.829C107.369 112.713 106.962 111.313 106.607 109.84C106.26 108.366 105.935 106.763 105.632 105.03H106.958C107.079 105.706 107.205 106.382 107.335 107.058C107.465 107.734 107.599 108.392 107.738 109.034C107.876 109.666 108.015 110.273 108.154 110.854C108.292 111.434 108.435 111.972 108.583 112.466C108.929 111.556 109.298 110.559 109.688 109.476C110.078 108.384 110.442 107.257 110.78 106.096H111.872C112.21 107.257 112.578 108.384 112.977 109.476C113.375 110.559 113.748 111.556 114.095 112.466C114.233 111.98 114.372 111.447 114.511 110.867C114.649 110.286 114.784 109.679 114.914 109.047C115.052 108.405 115.187 107.747 115.317 107.071C115.447 106.386 115.572 105.706 115.694 105.03H116.981C116.669 106.763 116.335 108.366 115.98 109.84C115.633 111.313 115.234 112.713 114.784 114.039H113.523C113.141 113.103 112.769 112.141 112.405 111.153C112.041 110.165 111.677 109.09 111.313 107.929ZM117.712 110.672C117.712 110.074 117.798 109.554 117.972 109.112C118.145 108.661 118.375 108.288 118.661 107.994C118.947 107.699 119.276 107.478 119.649 107.331C120.021 107.183 120.403 107.11 120.793 107.11C121.703 107.11 122.4 107.396 122.886 107.968C123.371 108.531 123.614 109.393 123.614 110.555C123.614 110.607 123.614 110.676 123.614 110.763C123.614 110.841 123.609 110.914 123.601 110.984H118.973C119.025 111.686 119.228 112.219 119.584 112.583C119.939 112.947 120.494 113.129 121.248 113.129C121.672 113.129 122.028 113.094 122.314 113.025C122.608 112.947 122.829 112.873 122.977 112.804L123.146 113.818C122.998 113.896 122.738 113.978 122.366 114.065C122.002 114.151 121.586 114.195 121.118 114.195C120.528 114.195 120.017 114.108 119.584 113.935C119.159 113.753 118.808 113.506 118.531 113.194C118.253 112.882 118.045 112.513 117.907 112.089C117.777 111.655 117.712 111.183 117.712 110.672ZM122.353 110.009C122.361 109.463 122.223 109.016 121.937 108.67C121.659 108.314 121.274 108.137 120.78 108.137C120.502 108.137 120.255 108.193 120.039 108.306C119.831 108.41 119.653 108.548 119.506 108.722C119.358 108.895 119.241 109.094 119.155 109.32C119.077 109.545 119.025 109.775 118.999 110.009H122.353ZM126.559 114.039H125.35V107.279H126.559V114.039ZM125.948 106.057C125.732 106.057 125.545 105.987 125.389 105.849C125.242 105.701 125.168 105.506 125.168 105.264C125.168 105.021 125.242 104.83 125.389 104.692C125.545 104.544 125.732 104.471 125.948 104.471C126.165 104.471 126.347 104.544 126.494 104.692C126.65 104.83 126.728 105.021 126.728 105.264C126.728 105.506 126.65 105.701 126.494 105.849C126.347 105.987 126.165 106.057 125.948 106.057ZM132.877 113.363C132.773 113.432 132.569 113.523 132.266 113.636C131.971 113.74 131.624 113.792 131.226 113.792C130.818 113.792 130.433 113.727 130.069 113.597C129.713 113.467 129.401 113.267 129.133 112.999C128.864 112.721 128.652 112.379 128.496 111.972C128.34 111.564 128.262 111.079 128.262 110.516C128.262 110.022 128.335 109.571 128.483 109.164C128.63 108.748 128.842 108.392 129.12 108.098C129.406 107.794 129.752 107.56 130.16 107.396C130.567 107.222 131.026 107.136 131.538 107.136C132.101 107.136 132.591 107.179 133.007 107.266C133.431 107.344 133.787 107.417 134.073 107.487V113.519C134.073 114.559 133.804 115.313 133.267 115.781C132.729 116.249 131.915 116.483 130.823 116.483C130.398 116.483 129.995 116.448 129.614 116.379C129.241 116.309 128.916 116.227 128.639 116.132L128.86 115.079C129.102 115.174 129.397 115.256 129.744 115.326C130.099 115.404 130.467 115.443 130.849 115.443C131.568 115.443 132.084 115.3 132.396 115.014C132.716 114.728 132.877 114.273 132.877 113.649V113.363ZM132.864 108.345C132.742 108.31 132.578 108.28 132.37 108.254C132.17 108.219 131.897 108.202 131.551 108.202C130.901 108.202 130.398 108.414 130.043 108.839C129.696 109.263 129.523 109.827 129.523 110.529C129.523 110.919 129.57 111.252 129.666 111.53C129.77 111.807 129.904 112.037 130.069 112.219C130.242 112.401 130.437 112.535 130.654 112.622C130.879 112.708 131.109 112.752 131.343 112.752C131.663 112.752 131.958 112.708 132.227 112.622C132.495 112.526 132.708 112.418 132.864 112.297V108.345ZM136.154 114.039V104.159L137.363 103.951V107.409C137.589 107.322 137.827 107.257 138.078 107.214C138.338 107.162 138.594 107.136 138.845 107.136C139.383 107.136 139.829 107.214 140.184 107.37C140.54 107.517 140.821 107.729 141.029 108.007C141.246 108.275 141.398 108.6 141.484 108.982C141.571 109.363 141.614 109.783 141.614 110.243V114.039H140.405V110.503C140.405 110.087 140.375 109.731 140.314 109.437C140.262 109.142 140.171 108.904 140.041 108.722C139.911 108.54 139.738 108.41 139.521 108.332C139.305 108.245 139.036 108.202 138.715 108.202C138.585 108.202 138.451 108.21 138.312 108.228C138.174 108.245 138.039 108.267 137.909 108.293C137.788 108.31 137.675 108.332 137.571 108.358C137.476 108.384 137.407 108.405 137.363 108.423V114.039H136.154ZM144.712 107.279H147.273V108.293H144.712V111.413C144.712 111.751 144.738 112.032 144.79 112.258C144.842 112.474 144.92 112.648 145.024 112.778C145.128 112.899 145.258 112.986 145.414 113.038C145.57 113.09 145.752 113.116 145.96 113.116C146.324 113.116 146.614 113.077 146.831 112.999C147.056 112.912 147.212 112.851 147.299 112.817L147.533 113.818C147.412 113.878 147.199 113.952 146.896 114.039C146.593 114.134 146.246 114.182 145.856 114.182C145.397 114.182 145.015 114.125 144.712 114.013C144.417 113.891 144.179 113.714 143.997 113.48C143.815 113.246 143.685 112.96 143.607 112.622C143.538 112.275 143.503 111.876 143.503 111.426V105.394L144.712 105.186V107.279Z" fill="#42454A"/>
<path d="M65.3395 55.1587C66.1128 54.8387 66.9128 54.4787 67.7395 54.0787C68.5928 53.652 69.4195 53.1987 70.2195 52.7187C71.0195 52.212 71.7795 51.692 72.4995 51.1587C73.2461 50.5987 73.9128 50.012 74.4995 49.3987H78.6595V77.1187H72.6995V57.1587C71.8995 57.692 71.0061 58.1853 70.0195 58.6387C69.0328 59.0653 68.0728 59.4387 67.1395 59.7587L65.3395 55.1587ZM106.634 63.1987C106.634 67.8653 105.741 71.452 103.954 73.9587C102.194 76.4387 99.7539 77.6787 96.6339 77.6787C93.5139 77.6787 91.0605 76.4387 89.2739 73.9587C87.5139 71.452 86.6339 67.8653 86.6339 63.1987C86.6339 60.8787 86.8605 58.8253 87.3139 57.0387C87.7939 55.252 88.4739 53.7453 89.3539 52.5187C90.2339 51.292 91.2872 50.3587 92.5139 49.7186C93.7405 49.0787 95.1139 48.7587 96.6339 48.7587C99.7539 48.7587 102.194 50.012 103.954 52.5187C105.741 54.9987 106.634 58.5587 106.634 63.1987ZM100.554 63.1987C100.554 61.812 100.487 60.5587 100.354 59.4387C100.221 58.292 100.007 57.3053 99.7139 56.4787C99.4205 55.652 99.0205 55.012 98.5139 54.5587C98.0072 54.1053 97.3805 53.8787 96.6339 53.8787C95.8872 53.8787 95.2605 54.1053 94.7539 54.5587C94.2739 55.012 93.8739 55.652 93.5539 56.4787C93.2605 57.3053 93.0472 58.292 92.9139 59.4387C92.7805 60.5587 92.7139 61.812 92.7139 63.1987C92.7139 64.5853 92.7805 65.852 92.9139 66.9987C93.0472 68.1453 93.2605 69.132 93.5539 69.9587C93.8739 70.7853 94.2739 71.4253 94.7539 71.8787C95.2605 72.332 95.8872 72.5587 96.6339 72.5587C97.3805 72.5587 98.0072 72.332 98.5139 71.8787C99.0205 71.4253 99.4205 70.7853 99.7139 69.9587C100.007 69.132 100.221 68.1453 100.354 66.9987C100.487 65.852 100.554 64.5853 100.554 63.1987ZM122.408 68.9587C122.408 68.1853 122.235 67.5053 121.888 66.9187C121.542 66.3053 120.942 65.7987 120.088 65.3987C119.235 64.9987 118.088 64.692 116.648 64.4787C115.208 64.2653 113.395 64.1587 111.208 64.1587C111.502 61.6787 111.742 59.1587 111.928 56.5987C112.115 54.0387 112.262 51.6387 112.368 49.3987H127.368V54.3987H117.368C117.315 55.3587 117.248 56.292 117.168 57.1987C117.115 58.0787 117.048 58.852 116.968 59.5187C120.862 59.7853 123.728 60.7053 125.568 62.2787C127.435 63.8253 128.368 65.9853 128.368 68.7587C128.368 70.0387 128.142 71.2253 127.688 72.3187C127.235 73.412 126.555 74.3587 125.648 75.1587C124.742 75.9587 123.595 76.5853 122.208 77.0387C120.848 77.492 119.248 77.7187 117.408 77.7187C116.688 77.7187 115.928 77.6653 115.128 77.5587C114.355 77.4787 113.595 77.3587 112.848 77.1987C112.128 77.0653 111.475 76.9187 110.888 76.7587C110.302 76.5987 109.848 76.4387 109.528 76.2787L110.608 71.3587C111.275 71.652 112.155 71.9453 113.248 72.2387C114.342 72.5053 115.648 72.6387 117.168 72.6387C119.008 72.6387 120.342 72.2787 121.168 71.5587C121.995 70.812 122.408 69.9453 122.408 68.9587ZM145.304 77.2987C144.524 77.2867 143.888 77.2027 143.396 77.0467C142.916 76.8907 142.532 76.6747 142.244 76.3987C141.968 76.1107 141.776 75.7687 141.668 75.3727C141.572 74.9647 141.524 74.5087 141.524 74.0047V63.5827L144.206 63.1507V73.4647C144.206 73.7047 144.224 73.9207 144.26 74.1127C144.296 74.3047 144.362 74.4667 144.458 74.5987C144.566 74.7307 144.716 74.8387 144.908 74.9227C145.1 75.0067 145.358 75.0607 145.682 75.0847L145.304 77.2987ZM153.285 72.3127C153.285 70.5847 152.649 69.7207 151.377 69.7207C151.101 69.7207 150.825 69.7567 150.549 69.8287C150.285 69.9007 150.069 69.9907 149.901 70.0987V74.9767C150.033 75.0007 150.201 75.0247 150.405 75.0487C150.609 75.0607 150.831 75.0667 151.071 75.0667C151.803 75.0667 152.355 74.8147 152.727 74.3107C153.099 73.8067 153.285 73.1407 153.285 72.3127ZM156.021 72.3847C156.021 73.1407 155.907 73.8247 155.679 74.4367C155.463 75.0487 155.145 75.5707 154.725 76.0027C154.305 76.4347 153.789 76.7707 153.177 77.0107C152.565 77.2387 151.869 77.3527 151.089 77.3527C150.765 77.3527 150.423 77.3347 150.063 77.2987C149.715 77.2747 149.367 77.2387 149.019 77.1907C148.683 77.1427 148.359 77.0887 148.047 77.0287C147.735 76.9567 147.459 76.8847 147.219 76.8127V63.5827L149.901 63.1507V67.8667C150.201 67.7347 150.513 67.6327 150.837 67.5607C151.161 67.4887 151.509 67.4527 151.881 67.4527C152.553 67.4527 153.147 67.5727 153.663 67.8127C154.179 68.0407 154.611 68.3707 154.959 68.8027C155.307 69.2347 155.571 69.7567 155.751 70.3687C155.931 70.9687 156.021 71.6407 156.021 72.3847ZM160.801 75.1927C161.293 75.1927 161.641 75.1447 161.845 75.0487C162.049 74.9527 162.151 74.7667 162.151 74.4907C162.151 74.2747 162.019 74.0887 161.755 73.9327C161.491 73.7647 161.089 73.5787 160.549 73.3747C160.129 73.2187 159.745 73.0567 159.397 72.8887C159.061 72.7207 158.773 72.5227 158.533 72.2947C158.293 72.0547 158.107 71.7727 157.975 71.4487C157.843 71.1247 157.777 70.7347 157.777 70.2787C157.777 69.3907 158.107 68.6887 158.767 68.1727C159.427 67.6567 160.333 67.3987 161.485 67.3987C162.061 67.3987 162.613 67.4527 163.141 67.5607C163.669 67.6567 164.089 67.7647 164.401 67.8847L163.933 69.9727C163.621 69.8647 163.279 69.7687 162.907 69.6847C162.547 69.6007 162.139 69.5587 161.683 69.5587C160.843 69.5587 160.423 69.7927 160.423 70.2607C160.423 70.3687 160.441 70.4647 160.477 70.5487C160.513 70.6327 160.585 70.7167 160.693 70.8007C160.801 70.8727 160.945 70.9567 161.125 71.0527C161.317 71.1367 161.557 71.2327 161.845 71.3407C162.433 71.5567 162.919 71.7727 163.303 71.9887C163.687 72.1927 163.987 72.4207 164.203 72.6727C164.431 72.9127 164.587 73.1827 164.671 73.4827C164.767 73.7827 164.815 74.1307 164.815 74.5267C164.815 75.4627 164.461 76.1707 163.753 76.6507C163.057 77.1307 162.067 77.3707 160.783 77.3707C159.943 77.3707 159.241 77.2987 158.677 77.1547C158.125 77.0107 157.741 76.8907 157.525 76.7947L157.975 74.6167C158.431 74.7967 158.899 74.9407 159.379 75.0487C159.859 75.1447 160.333 75.1927 160.801 75.1927Z" fill="#42454A"/>
<defs>
<filter id="filter0_d_4_176" x="0.577662" y="0.788831" width="227.311" height="189.845" filterUnits="userSpaceOnUse" color-interpolation-filters="sRGB">
<feFlood flood-opacity="0" result="BackgroundImageFix"/>
<feColorMatrix in="SourceAlpha" type="matrix" values="0 0 0 0 0 0 0 0 0 0 0 0 0 0 0 0 0 0 127 0" result="hardAlpha"/>
<feOffset dy="13.2112"/>
<feGaussianBlur stdDeviation="13.2112"/>
<feColorMatrix type="matrix" values="0 0 0 0 0 0 0 0 0 0 0 0 0 0 0 0 0 0 0.06 0"/>
<feBlend mode="normal" in2="BackgroundImageFix" result="effect1_dropShadow_4_176"/>
<feBlend mode="normal" in="SourceGraphic" in2="effect1_dropShadow_4_176" result="shape"/>
</filter>
</defs>
</svg>
