<svg width="229" height="191" viewBox="0 0 229 191" fill="none" xmlns="http://www.w3.org/2000/svg">
<g filter="url(#filter0_d_4_213)">
<rect x="27.2129" y="14" width="174.467" height="137" rx="6.60558" fill="white"/>
<rect x="27.5432" y="14.3303" width="173.807" height="136.339" rx="6.27531" stroke="#F4F4F4" stroke-width="0.660558"/>
</g>
<path d="M86.9265 112.791C86.8399 112.583 86.7229 112.318 86.5755 111.998C86.4369 111.677 86.2852 111.33 86.1205 110.958C85.9559 110.585 85.7782 110.204 85.5875 109.814C85.4055 109.415 85.2322 109.042 85.0675 108.696C84.9029 108.34 84.7469 108.024 84.5995 107.747C84.4609 107.469 84.3482 107.257 84.2615 107.11C84.1662 108.132 84.0882 109.242 84.0275 110.438C83.9669 111.625 83.9149 112.825 83.8715 114.039H82.6365C82.6712 113.259 82.7102 112.474 82.7535 111.686C82.7969 110.888 82.8445 110.108 82.8965 109.346C82.9572 108.574 83.0179 107.825 83.0785 107.097C83.1479 106.369 83.2215 105.68 83.2995 105.03H84.4045C84.6385 105.411 84.8899 105.862 85.1585 106.382C85.4272 106.902 85.6959 107.448 85.9645 108.02C86.2332 108.583 86.4932 109.151 86.7445 109.723C86.9959 110.286 87.2255 110.802 87.4335 111.27C87.6415 110.802 87.8712 110.286 88.1225 109.723C88.3739 109.151 88.6339 108.583 88.9025 108.02C89.1712 107.448 89.4399 106.902 89.7085 106.382C89.9772 105.862 90.2285 105.411 90.4625 105.03H91.5675C91.8622 107.933 92.0832 110.936 92.2305 114.039H90.9955C90.9522 112.825 90.9002 111.625 90.8395 110.438C90.7789 109.242 90.7009 108.132 90.6055 107.11C90.5189 107.257 90.4019 107.469 90.2545 107.747C90.1159 108.024 89.9642 108.34 89.7995 108.696C89.6349 109.042 89.4572 109.415 89.2665 109.814C89.0845 110.204 88.9112 110.585 88.7465 110.958C88.5819 111.33 88.4259 111.677 88.2785 111.998C88.1399 112.318 88.0272 112.583 87.9405 112.791H86.9265ZM96.4178 113.168C96.7038 113.168 96.9551 113.163 97.1718 113.155C97.3971 113.137 97.5834 113.111 97.7308 113.077V111.062C97.6441 111.018 97.5011 110.984 97.3018 110.958C97.1111 110.923 96.8771 110.906 96.5998 110.906C96.4178 110.906 96.2228 110.919 96.0148 110.945C95.8154 110.971 95.6291 111.027 95.4558 111.114C95.2911 111.192 95.1524 111.304 95.0398 111.452C94.9271 111.59 94.8708 111.777 94.8708 112.011C94.8708 112.444 95.0094 112.747 95.2868 112.921C95.5641 113.085 95.9411 113.168 96.4178 113.168ZM96.3138 107.11C96.7991 107.11 97.2064 107.175 97.5358 107.305C97.8738 107.426 98.1424 107.604 98.3418 107.838C98.5498 108.063 98.6971 108.336 98.7838 108.657C98.8704 108.969 98.9138 109.315 98.9138 109.697V113.922C98.8098 113.939 98.6624 113.965 98.4718 114C98.2898 114.026 98.0818 114.052 97.8478 114.078C97.6138 114.104 97.3581 114.125 97.0808 114.143C96.8121 114.169 96.5434 114.182 96.2748 114.182C95.8934 114.182 95.5424 114.143 95.2218 114.065C94.9011 113.987 94.6238 113.865 94.3898 113.701C94.1558 113.527 93.9738 113.302 93.8438 113.025C93.7138 112.747 93.6488 112.414 93.6488 112.024C93.6488 111.651 93.7224 111.33 93.8698 111.062C94.0258 110.793 94.2338 110.576 94.4938 110.412C94.7538 110.247 95.0571 110.126 95.4038 110.048C95.7504 109.97 96.1144 109.931 96.4958 109.931C96.6171 109.931 96.7428 109.939 96.8728 109.957C97.0028 109.965 97.1241 109.983 97.2368 110.009C97.3581 110.026 97.4621 110.043 97.5488 110.061C97.6354 110.078 97.6961 110.091 97.7308 110.1V109.762C97.7308 109.562 97.7091 109.367 97.6658 109.177C97.6224 108.977 97.5444 108.804 97.4318 108.657C97.3191 108.501 97.1631 108.379 96.9638 108.293C96.7731 108.197 96.5218 108.15 96.2098 108.15C95.8111 108.15 95.4601 108.18 95.1568 108.241C94.8621 108.293 94.6411 108.349 94.4938 108.41L94.3508 107.409C94.5068 107.339 94.7668 107.274 95.1308 107.214C95.4948 107.144 95.8891 107.11 96.3138 107.11ZM104.965 114.039C104.869 113.848 104.752 113.636 104.614 113.402C104.475 113.168 104.323 112.929 104.159 112.687C103.994 112.435 103.825 112.188 103.652 111.946C103.478 111.703 103.309 111.473 103.145 111.257C102.98 111.473 102.811 111.707 102.638 111.959C102.464 112.201 102.295 112.448 102.131 112.7C101.975 112.942 101.827 113.181 101.689 113.415C101.55 113.649 101.433 113.857 101.338 114.039H100.09C100.393 113.449 100.753 112.851 101.169 112.245C101.593 111.629 102.014 111.044 102.43 110.49L100.194 107.279H101.559L103.171 109.645L104.796 107.279H106.083L103.899 110.412C104.315 110.975 104.739 111.573 105.173 112.206C105.615 112.83 105.987 113.441 106.291 114.039H104.965ZM115.055 110.269C115.194 110.442 115.367 110.672 115.575 110.958C115.792 111.235 116.013 111.547 116.238 111.894C116.464 112.232 116.685 112.587 116.901 112.96C117.127 113.332 117.317 113.692 117.473 114.039H116.095C115.922 113.709 115.731 113.376 115.523 113.038C115.324 112.7 115.12 112.379 114.912 112.076C114.704 111.764 114.496 111.473 114.288 111.205C114.089 110.936 113.907 110.702 113.742 110.503C113.63 110.511 113.513 110.516 113.391 110.516C113.279 110.516 113.162 110.516 113.04 110.516H111.909V114.039H110.648V105.16C111.004 105.073 111.398 105.017 111.831 104.991C112.273 104.956 112.676 104.939 113.04 104.939C114.306 104.939 115.268 105.177 115.926 105.654C116.594 106.13 116.927 106.841 116.927 107.786C116.927 108.384 116.767 108.895 116.446 109.32C116.134 109.744 115.671 110.061 115.055 110.269ZM113.144 106.044C112.607 106.044 112.195 106.057 111.909 106.083V109.476H112.806C113.24 109.476 113.63 109.454 113.976 109.411C114.323 109.367 114.613 109.285 114.847 109.164C115.09 109.042 115.276 108.873 115.406 108.657C115.536 108.431 115.601 108.137 115.601 107.773C115.601 107.435 115.536 107.153 115.406 106.928C115.276 106.702 115.099 106.525 114.873 106.395C114.657 106.265 114.397 106.174 114.093 106.122C113.799 106.07 113.482 106.044 113.144 106.044ZM121.034 113.168C121.32 113.168 121.571 113.163 121.788 113.155C122.013 113.137 122.2 113.111 122.347 113.077V111.062C122.26 111.018 122.117 110.984 121.918 110.958C121.727 110.923 121.493 110.906 121.216 110.906C121.034 110.906 120.839 110.919 120.631 110.945C120.432 110.971 120.245 111.027 120.072 111.114C119.907 111.192 119.769 111.304 119.656 111.452C119.543 111.59 119.487 111.777 119.487 112.011C119.487 112.444 119.626 112.747 119.903 112.921C120.18 113.085 120.557 113.168 121.034 113.168ZM120.93 107.11C121.415 107.11 121.823 107.175 122.152 107.305C122.49 107.426 122.759 107.604 122.958 107.838C123.166 108.063 123.313 108.336 123.4 108.657C123.487 108.969 123.53 109.315 123.53 109.697V113.922C123.426 113.939 123.279 113.965 123.088 114C122.906 114.026 122.698 114.052 122.464 114.078C122.23 114.104 121.974 114.125 121.697 114.143C121.428 114.169 121.16 114.182 120.891 114.182C120.51 114.182 120.159 114.143 119.838 114.065C119.517 113.987 119.24 113.865 119.006 113.701C118.772 113.527 118.59 113.302 118.46 113.025C118.33 112.747 118.265 112.414 118.265 112.024C118.265 111.651 118.339 111.33 118.486 111.062C118.642 110.793 118.85 110.576 119.11 110.412C119.37 110.247 119.673 110.126 120.02 110.048C120.367 109.97 120.731 109.931 121.112 109.931C121.233 109.931 121.359 109.939 121.489 109.957C121.619 109.965 121.74 109.983 121.853 110.009C121.974 110.026 122.078 110.043 122.165 110.061C122.252 110.078 122.312 110.091 122.347 110.1V109.762C122.347 109.562 122.325 109.367 122.282 109.177C122.239 108.977 122.161 108.804 122.048 108.657C121.935 108.501 121.779 108.379 121.58 108.293C121.389 108.197 121.138 108.15 120.826 108.15C120.427 108.15 120.076 108.18 119.773 108.241C119.478 108.293 119.257 108.349 119.11 108.41L118.967 107.409C119.123 107.339 119.383 107.274 119.747 107.214C120.111 107.144 120.505 107.11 120.93 107.11ZM125.538 107.474C125.815 107.404 126.184 107.331 126.643 107.253C127.102 107.175 127.631 107.136 128.229 107.136C128.766 107.136 129.213 107.214 129.568 107.37C129.923 107.517 130.205 107.729 130.413 108.007C130.63 108.275 130.781 108.6 130.868 108.982C130.955 109.363 130.998 109.783 130.998 110.243V114.039H129.789V110.503C129.789 110.087 129.759 109.731 129.698 109.437C129.646 109.142 129.555 108.904 129.425 108.722C129.295 108.54 129.122 108.41 128.905 108.332C128.688 108.245 128.42 108.202 128.099 108.202C127.969 108.202 127.835 108.206 127.696 108.215C127.557 108.223 127.423 108.236 127.293 108.254C127.172 108.262 127.059 108.275 126.955 108.293C126.86 108.31 126.79 108.323 126.747 108.332V114.039H125.538V107.474ZM137.241 113.363C137.137 113.432 136.933 113.523 136.63 113.636C136.335 113.74 135.988 113.792 135.59 113.792C135.182 113.792 134.797 113.727 134.433 113.597C134.077 113.467 133.765 113.267 133.497 112.999C133.228 112.721 133.016 112.379 132.86 111.972C132.704 111.564 132.626 111.079 132.626 110.516C132.626 110.022 132.699 109.571 132.847 109.164C132.994 108.748 133.206 108.392 133.484 108.098C133.77 107.794 134.116 107.56 134.524 107.396C134.931 107.222 135.39 107.136 135.902 107.136C136.465 107.136 136.955 107.179 137.371 107.266C137.795 107.344 138.151 107.417 138.437 107.487V113.519C138.437 114.559 138.168 115.313 137.631 115.781C137.093 116.249 136.279 116.483 135.187 116.483C134.762 116.483 134.359 116.448 133.978 116.379C133.605 116.309 133.28 116.227 133.003 116.132L133.224 115.079C133.466 115.174 133.761 115.256 134.108 115.326C134.463 115.404 134.831 115.443 135.213 115.443C135.932 115.443 136.448 115.3 136.76 115.014C137.08 114.728 137.241 114.273 137.241 113.649V113.363ZM137.228 108.345C137.106 108.31 136.942 108.28 136.734 108.254C136.534 108.219 136.261 108.202 135.915 108.202C135.265 108.202 134.762 108.414 134.407 108.839C134.06 109.263 133.887 109.827 133.887 110.529C133.887 110.919 133.934 111.252 134.03 111.53C134.134 111.807 134.268 112.037 134.433 112.219C134.606 112.401 134.801 112.535 135.018 112.622C135.243 112.708 135.473 112.752 135.707 112.752C136.027 112.752 136.322 112.708 136.591 112.622C136.859 112.526 137.072 112.418 137.228 112.297V108.345ZM140.141 110.672C140.141 110.074 140.228 109.554 140.401 109.112C140.575 108.661 140.804 108.288 141.09 107.994C141.376 107.699 141.706 107.478 142.078 107.331C142.451 107.183 142.832 107.11 143.222 107.11C144.132 107.11 144.83 107.396 145.315 107.968C145.801 108.531 146.043 109.393 146.043 110.555C146.043 110.607 146.043 110.676 146.043 110.763C146.043 110.841 146.039 110.914 146.03 110.984H141.402C141.454 111.686 141.658 112.219 142.013 112.583C142.369 112.947 142.923 113.129 143.677 113.129C144.102 113.129 144.457 113.094 144.743 113.025C145.038 112.947 145.259 112.873 145.406 112.804L145.575 113.818C145.428 113.896 145.168 113.978 144.795 114.065C144.431 114.151 144.015 114.195 143.547 114.195C142.958 114.195 142.447 114.108 142.013 113.935C141.589 113.753 141.238 113.506 140.96 113.194C140.683 112.882 140.475 112.513 140.336 112.089C140.206 111.655 140.141 111.183 140.141 110.672ZM144.782 110.009C144.791 109.463 144.652 109.016 144.366 108.67C144.089 108.314 143.703 108.137 143.209 108.137C142.932 108.137 142.685 108.193 142.468 108.306C142.26 108.41 142.083 108.548 141.935 108.722C141.788 108.895 141.671 109.094 141.584 109.32C141.506 109.545 141.454 109.775 141.428 110.009H144.782Z" fill="#42454A"/>
<path d="M73.5533 77.7187C72.8333 77.7187 72.0733 77.6653 71.2733 77.5587C70.4733 77.4787 69.7 77.3587 68.9533 77.1987C68.2067 77.0387 67.5267 76.8653 66.9133 76.6787C66.3 76.492 65.82 76.3187 65.4733 76.1587L66.6333 71.1987C67.3267 71.492 68.2067 71.812 69.2733 72.1587C70.3667 72.4787 71.7133 72.6387 73.3133 72.6387C75.1533 72.6387 76.5 72.292 77.3533 71.5987C78.2067 70.9053 78.6333 69.972 78.6333 68.7987C78.6333 68.0787 78.4733 67.4787 78.1533 66.9987C77.86 66.492 77.4467 66.092 76.9133 65.7987C76.38 65.4787 75.74 65.2653 74.9933 65.1587C74.2733 65.0253 73.5 64.9587 72.6733 64.9587H70.3533V60.1587H72.9933C73.58 60.1587 74.14 60.1053 74.6733 59.9987C75.2333 59.892 75.7267 59.7187 76.1533 59.4787C76.58 59.212 76.9133 58.8653 77.1533 58.4387C77.42 57.9853 77.5533 57.4253 77.5533 56.7587C77.5533 56.252 77.4467 55.812 77.2333 55.4387C77.02 55.0653 76.74 54.7587 76.3933 54.5187C76.0733 54.2787 75.6867 54.1053 75.2333 53.9987C74.8067 53.8653 74.3667 53.7987 73.9133 53.7987C72.7667 53.7987 71.7 53.972 70.7133 54.3187C69.7533 54.6653 68.8733 55.092 68.0733 55.5987L65.9533 51.2387C66.38 50.972 66.8733 50.692 67.4333 50.3987C68.02 50.1053 68.66 49.8387 69.3533 49.5987C70.0467 49.3587 70.78 49.1587 71.5533 48.9987C72.3533 48.8387 73.1933 48.7587 74.0733 48.7587C75.7 48.7587 77.1 48.9587 78.2733 49.3587C79.4733 49.732 80.46 50.2787 81.2333 50.9987C82.0067 51.692 82.58 52.5187 82.9533 53.4787C83.3267 54.412 83.5133 55.4387 83.5133 56.5587C83.5133 57.652 83.2067 58.7187 82.5933 59.7587C81.98 60.772 81.1533 61.5453 80.1133 62.0787C81.5533 62.6653 82.66 63.5453 83.4333 64.7187C84.2333 65.8653 84.6333 67.252 84.6333 68.8787C84.6333 70.1587 84.42 71.3453 83.9933 72.4387C83.5667 73.5053 82.9 74.4387 81.9933 75.2387C81.0867 76.012 79.9267 76.6253 78.5133 77.0787C77.1267 77.5053 75.4733 77.7187 73.5533 77.7187ZM108.368 69.3987C108.368 70.5987 108.154 71.7053 107.728 72.7187C107.328 73.7053 106.714 74.572 105.888 75.3187C105.061 76.0653 104.021 76.652 102.768 77.0787C101.541 77.4787 100.114 77.6787 98.4877 77.6787C96.621 77.6787 95.061 77.4253 93.8077 76.9187C92.581 76.3853 91.581 75.732 90.8077 74.9587C90.061 74.1853 89.5277 73.3453 89.2077 72.4387C88.8877 71.5053 88.7277 70.652 88.7277 69.8787C88.7277 69.0787 88.8344 68.3453 89.0477 67.6787C89.261 67.012 89.5544 66.412 89.9277 65.8787C90.301 65.3187 90.7144 64.812 91.1677 64.3587C91.6477 63.9053 92.1544 63.4787 92.6877 63.0787C91.541 62.1453 90.6877 61.2253 90.1277 60.3187C89.5944 59.412 89.3277 58.252 89.3277 56.8387C89.3277 55.772 89.541 54.7453 89.9677 53.7587C90.421 52.772 91.0477 51.9187 91.8477 51.1987C92.6477 50.452 93.6077 49.8653 94.7277 49.4387C95.8744 48.9853 97.141 48.7587 98.5277 48.7587C100.154 48.7587 101.541 48.9987 102.688 49.4787C103.861 49.932 104.821 50.5187 105.568 51.2387C106.314 51.9587 106.848 52.772 107.168 53.6787C107.514 54.5587 107.688 55.4387 107.688 56.3187C107.688 57.5987 107.341 58.7987 106.648 59.9187C105.981 61.012 105.141 61.8787 104.128 62.5187C105.648 63.5053 106.728 64.5453 107.368 65.6387C108.034 66.7053 108.368 67.9587 108.368 69.3987ZM94.5277 69.6387C94.5277 69.9587 94.5944 70.3187 94.7277 70.7187C94.8877 71.092 95.1277 71.4387 95.4477 71.7587C95.7677 72.0787 96.181 72.3453 96.6877 72.5587C97.1944 72.772 97.8077 72.8787 98.5277 72.8787C99.9144 72.8787 100.928 72.5453 101.568 71.8787C102.208 71.212 102.528 70.4653 102.528 69.6387C102.528 69.0253 102.381 68.4787 102.088 67.9987C101.821 67.5187 101.448 67.1053 100.968 66.7587C100.488 66.3853 99.9144 66.0653 99.2477 65.7987C98.6077 65.5053 97.9144 65.2387 97.1677 64.9987C96.421 65.5587 95.7944 66.212 95.2877 66.9587C94.781 67.7053 94.5277 68.5987 94.5277 69.6387ZM101.928 56.4787C101.928 56.1853 101.861 55.8787 101.728 55.5587C101.621 55.212 101.421 54.892 101.128 54.5987C100.861 54.3053 100.514 54.0653 100.088 53.8787C99.661 53.6653 99.141 53.5587 98.5277 53.5587C97.941 53.5587 97.4344 53.652 97.0077 53.8387C96.581 54.0253 96.221 54.2787 95.9277 54.5987C95.661 54.892 95.461 55.212 95.3277 55.5587C95.1944 55.9053 95.1277 56.2387 95.1277 56.5587C95.1277 57.412 95.4344 58.212 96.0477 58.9587C96.6877 59.7053 97.7677 60.3453 99.2877 60.8787C100.141 60.3453 100.794 59.732 101.248 59.0387C101.701 58.3453 101.928 57.492 101.928 56.4787ZM125.885 72.0967C125.885 71.2327 125.771 70.6207 125.543 70.2607C125.327 69.9007 124.949 69.7207 124.409 69.7207C124.241 69.7207 124.067 69.7327 123.887 69.7567C123.707 69.7687 123.533 69.7867 123.365 69.8107V77.1187H120.683V67.9747C120.911 67.9147 121.175 67.8547 121.475 67.7947C121.787 67.7227 122.111 67.6627 122.447 67.6147C122.795 67.5547 123.149 67.5127 123.509 67.4887C123.869 67.4527 124.223 67.4347 124.571 67.4347C125.255 67.4347 125.807 67.5247 126.227 67.7047C126.659 67.8727 127.013 68.0767 127.289 68.3167C127.673 68.0407 128.111 67.8247 128.603 67.6687C129.107 67.5127 129.569 67.4347 129.989 67.4347C130.745 67.4347 131.363 67.5427 131.843 67.7587C132.335 67.9627 132.725 68.2567 133.013 68.6407C133.301 69.0247 133.499 69.4807 133.607 70.0087C133.715 70.5367 133.769 71.1247 133.769 71.7727V77.1187H131.087V72.0967C131.087 71.2327 130.973 70.6207 130.745 70.2607C130.529 69.9007 130.151 69.7207 129.611 69.7207C129.467 69.7207 129.263 69.7567 128.999 69.8287C128.747 69.9007 128.537 69.9907 128.369 70.0987C128.453 70.3747 128.507 70.6687 128.531 70.9807C128.555 71.2807 128.567 71.6047 128.567 71.9527V77.1187H125.885V72.0967ZM138.887 77.1187H136.205V67.6507H138.887V77.1187ZM139.139 64.9147C139.139 65.4067 138.977 65.7967 138.653 66.0847C138.341 66.3607 137.969 66.4987 137.537 66.4987C137.105 66.4987 136.727 66.3607 136.403 66.0847C136.091 65.7967 135.935 65.4067 135.935 64.9147C135.935 64.4227 136.091 64.0387 136.403 63.7627C136.727 63.4747 137.105 63.3307 137.537 63.3307C137.969 63.3307 138.341 63.4747 138.653 63.7627C138.977 64.0387 139.139 64.4227 139.139 64.9147ZM145.188 77.2987C144.408 77.2867 143.772 77.2027 143.28 77.0467C142.8 76.8907 142.416 76.6747 142.128 76.3987C141.852 76.1107 141.66 75.7687 141.552 75.3727C141.456 74.9647 141.408 74.5087 141.408 74.0047V63.5827L144.09 63.1507V73.4647C144.09 73.7047 144.108 73.9207 144.144 74.1127C144.18 74.3047 144.246 74.4667 144.342 74.5987C144.45 74.7307 144.6 74.8387 144.792 74.9227C144.984 75.0067 145.242 75.0607 145.566 75.0847L145.188 77.2987ZM146.653 72.4567C146.653 71.6167 146.779 70.8847 147.031 70.2607C147.295 69.6247 147.637 69.0967 148.057 68.6767C148.477 68.2567 148.957 67.9387 149.497 67.7227C150.049 67.5067 150.613 67.3987 151.189 67.3987C152.533 67.3987 153.595 67.8127 154.375 68.6407C155.155 69.4567 155.545 70.6627 155.545 72.2587C155.545 72.4147 155.539 72.5887 155.527 72.7807C155.515 72.9607 155.503 73.1227 155.491 73.2667H149.407C149.467 73.8187 149.725 74.2567 150.181 74.5807C150.637 74.9047 151.249 75.0667 152.017 75.0667C152.509 75.0667 152.989 75.0247 153.457 74.9407C153.937 74.8447 154.327 74.7307 154.627 74.5987L154.987 76.7767C154.843 76.8487 154.651 76.9207 154.411 76.9927C154.171 77.0647 153.901 77.1247 153.601 77.1727C153.313 77.2327 153.001 77.2807 152.665 77.3167C152.329 77.3527 151.993 77.3707 151.657 77.3707C150.805 77.3707 150.061 77.2447 149.425 76.9927C148.801 76.7407 148.279 76.3987 147.859 75.9667C147.451 75.5227 147.145 75.0007 146.941 74.4007C146.749 73.8007 146.653 73.1527 146.653 72.4567ZM152.953 71.4307C152.941 71.2027 152.899 70.9807 152.827 70.7647C152.767 70.5487 152.665 70.3567 152.521 70.1887C152.389 70.0207 152.215 69.8827 151.999 69.7747C151.795 69.6667 151.537 69.6127 151.225 69.6127C150.925 69.6127 150.667 69.6667 150.451 69.7747C150.235 69.8707 150.055 70.0027 149.911 70.1707C149.767 70.3387 149.653 70.5367 149.569 70.7647C149.497 70.9807 149.443 71.2027 149.407 71.4307H152.953ZM160.333 75.1927C160.825 75.1927 161.173 75.1447 161.377 75.0487C161.581 74.9527 161.683 74.7667 161.683 74.4907C161.683 74.2747 161.551 74.0887 161.287 73.9327C161.023 73.7647 160.621 73.5787 160.081 73.3747C159.661 73.2187 159.277 73.0567 158.929 72.8887C158.593 72.7207 158.305 72.5227 158.065 72.2947C157.825 72.0547 157.639 71.7727 157.507 71.4487C157.375 71.1247 157.309 70.7347 157.309 70.2787C157.309 69.3907 157.639 68.6887 158.299 68.1727C158.959 67.6567 159.865 67.3987 161.017 67.3987C161.593 67.3987 162.145 67.4527 162.673 67.5607C163.201 67.6567 163.621 67.7647 163.933 67.8847L163.465 69.9727C163.153 69.8647 162.811 69.7687 162.439 69.6847C162.079 69.6007 161.671 69.5587 161.215 69.5587C160.375 69.5587 159.955 69.7927 159.955 70.2607C159.955 70.3687 159.973 70.4647 160.009 70.5487C160.045 70.6327 160.117 70.7167 160.225 70.8007C160.333 70.8727 160.477 70.9567 160.657 71.0527C160.849 71.1367 161.089 71.2327 161.377 71.3407C161.965 71.5567 162.451 71.7727 162.835 71.9887C163.219 72.1927 163.519 72.4207 163.735 72.6727C163.963 72.9127 164.119 73.1827 164.203 73.4827C164.299 73.7827 164.347 74.1307 164.347 74.5267C164.347 75.4627 163.993 76.1707 163.285 76.6507C162.589 77.1307 161.599 77.3707 160.315 77.3707C159.475 77.3707 158.773 77.2987 158.209 77.1547C157.657 77.0107 157.273 76.8907 157.057 76.7947L157.507 74.6167C157.963 74.7967 158.431 74.9407 158.911 75.0487C159.391 75.1447 159.865 75.1927 160.333 75.1927Z" fill="#42454A"/>
<defs>
<filter id="filter0_d_4_213" x="0.790552" y="0.788831" width="227.311" height="189.845" filterUnits="userSpaceOnUse" color-interpolation-filters="sRGB">
<feFlood flood-opacity="0" result="BackgroundImageFix"/>
<feColorMatrix in="SourceAlpha" type="matrix" values="0 0 0 0 0 0 0 0 0 0 0 0 0 0 0 0 0 0 127 0" result="hardAlpha"/>
<feOffset dy="13.2112"/>
<feGaussianBlur stdDeviation="13.2112"/>
<feColorMatrix type="matrix" values="0 0 0 0 0 0 0 0 0 0 0 0 0 0 0 0 0 0 0.06 0"/>
<feBlend mode="normal" in2="BackgroundImageFix" result="effect1_dropShadow_4_213"/>
<feBlend mode="normal" in="SourceGraphic" in2="effect1_dropShadow_4_213" result="shape"/>
</filter>
</defs>
</svg>
