<svg width="228" height="191" viewBox="0 0 228 191" fill="none" xmlns="http://www.w3.org/2000/svg">
<g filter="url(#filter0_d_4_208)">
<rect x="27.1064" y="14" width="174.467" height="137" rx="6.60558" fill="white"/>
<rect x="27.4367" y="14.3303" width="173.807" height="136.339" rx="6.27531" stroke="#F4F4F4" stroke-width="0.660558"/>
</g>
<path d="M90.4211 105.03V106.122H87.5871V114.039H86.3261V106.122H83.4921V105.03H90.4211ZM96.9308 110.659C96.9308 111.196 96.8528 111.681 96.6968 112.115C96.5408 112.548 96.3198 112.921 96.0338 113.233C95.7564 113.545 95.4228 113.787 95.0328 113.961C94.6428 114.125 94.2181 114.208 93.7588 114.208C93.2994 114.208 92.8748 114.125 92.4848 113.961C92.0948 113.787 91.7568 113.545 91.4708 113.233C91.1934 112.921 90.9768 112.548 90.8208 112.115C90.6648 111.681 90.5868 111.196 90.5868 110.659C90.5868 110.13 90.6648 109.649 90.8208 109.216C90.9768 108.774 91.1934 108.397 91.4708 108.085C91.7568 107.773 92.0948 107.534 92.4848 107.37C92.8748 107.196 93.2994 107.11 93.7588 107.11C94.2181 107.11 94.6428 107.196 95.0328 107.37C95.4228 107.534 95.7564 107.773 96.0338 108.085C96.3198 108.397 96.5408 108.774 96.6968 109.216C96.8528 109.649 96.9308 110.13 96.9308 110.659ZM95.6698 110.659C95.6698 109.896 95.4964 109.294 95.1498 108.852C94.8118 108.401 94.3481 108.176 93.7588 108.176C93.1694 108.176 92.7014 108.401 92.3548 108.852C92.0168 109.294 91.8478 109.896 91.8478 110.659C91.8478 111.421 92.0168 112.028 92.3548 112.479C92.7014 112.921 93.1694 113.142 93.7588 113.142C94.3481 113.142 94.8118 112.921 95.1498 112.479C95.4964 112.028 95.6698 111.421 95.6698 110.659ZM103.325 110.672C103.325 109.883 103.13 109.276 102.74 108.852C102.35 108.427 101.83 108.215 101.18 108.215C100.816 108.215 100.53 108.228 100.322 108.254C100.122 108.28 99.9621 108.31 99.8407 108.345V112.609C99.9881 112.73 100.2 112.847 100.478 112.96C100.755 113.072 101.058 113.129 101.388 113.129C101.734 113.129 102.029 113.068 102.272 112.947C102.523 112.817 102.727 112.643 102.883 112.427C103.039 112.201 103.151 111.941 103.221 111.647C103.29 111.343 103.325 111.018 103.325 110.672ZM104.586 110.672C104.586 111.183 104.516 111.655 104.378 112.089C104.248 112.522 104.053 112.895 103.793 113.207C103.533 113.519 103.212 113.761 102.831 113.935C102.458 114.108 102.029 114.195 101.544 114.195C101.154 114.195 100.807 114.143 100.504 114.039C100.209 113.935 99.9881 113.835 99.8407 113.74V116.444H98.6317V107.487C98.9177 107.417 99.2731 107.344 99.6977 107.266C100.131 107.179 100.629 107.136 101.193 107.136C101.713 107.136 102.181 107.218 102.597 107.383C103.013 107.547 103.368 107.781 103.663 108.085C103.957 108.388 104.183 108.761 104.339 109.203C104.503 109.636 104.586 110.126 104.586 110.672ZM111.467 113.142C112.784 113.142 113.443 112.691 113.443 111.79C113.443 111.512 113.382 111.278 113.261 111.088C113.148 110.888 112.992 110.719 112.793 110.581C112.593 110.433 112.364 110.308 112.104 110.204C111.852 110.1 111.584 109.996 111.298 109.892C110.968 109.779 110.656 109.653 110.362 109.515C110.067 109.367 109.811 109.198 109.595 109.008C109.378 108.808 109.205 108.574 109.075 108.306C108.953 108.037 108.893 107.712 108.893 107.331C108.893 106.542 109.161 105.927 109.699 105.485C110.236 105.043 110.977 104.822 111.922 104.822C112.468 104.822 112.962 104.882 113.404 105.004C113.854 105.116 114.184 105.242 114.392 105.381L113.989 106.408C113.807 106.295 113.534 106.187 113.17 106.083C112.814 105.97 112.398 105.914 111.922 105.914C111.679 105.914 111.454 105.94 111.246 105.992C111.038 106.044 110.856 106.122 110.7 106.226C110.544 106.33 110.418 106.464 110.323 106.629C110.236 106.785 110.193 106.971 110.193 107.188C110.193 107.43 110.24 107.634 110.336 107.799C110.431 107.963 110.565 108.111 110.739 108.241C110.912 108.362 111.111 108.475 111.337 108.579C111.571 108.683 111.826 108.787 112.104 108.891C112.494 109.047 112.849 109.203 113.17 109.359C113.499 109.515 113.781 109.701 114.015 109.918C114.257 110.134 114.444 110.394 114.574 110.698C114.704 110.992 114.769 111.352 114.769 111.777C114.769 112.565 114.478 113.172 113.898 113.597C113.326 114.021 112.515 114.234 111.467 114.234C111.111 114.234 110.782 114.208 110.479 114.156C110.184 114.112 109.92 114.06 109.686 114C109.452 113.93 109.248 113.861 109.075 113.792C108.91 113.714 108.78 113.649 108.685 113.597L109.062 112.557C109.261 112.669 109.564 112.795 109.972 112.934C110.379 113.072 110.877 113.142 111.467 113.142ZM120.908 110.672C120.908 109.883 120.713 109.276 120.323 108.852C119.933 108.427 119.413 108.215 118.763 108.215C118.399 108.215 118.113 108.228 117.905 108.254C117.705 108.28 117.545 108.31 117.424 108.345V112.609C117.571 112.73 117.783 112.847 118.061 112.96C118.338 113.072 118.641 113.129 118.971 113.129C119.317 113.129 119.612 113.068 119.855 112.947C120.106 112.817 120.31 112.643 120.466 112.427C120.622 112.201 120.734 111.941 120.804 111.647C120.873 111.343 120.908 111.018 120.908 110.672ZM122.169 110.672C122.169 111.183 122.099 111.655 121.961 112.089C121.831 112.522 121.636 112.895 121.376 113.207C121.116 113.519 120.795 113.761 120.414 113.935C120.041 114.108 119.612 114.195 119.127 114.195C118.737 114.195 118.39 114.143 118.087 114.039C117.792 113.935 117.571 113.835 117.424 113.74V116.444H116.215V107.487C116.501 107.417 116.856 107.344 117.281 107.266C117.714 107.179 118.212 107.136 118.776 107.136C119.296 107.136 119.764 107.218 120.18 107.383C120.596 107.547 120.951 107.781 121.246 108.085C121.54 108.388 121.766 108.761 121.922 109.203C122.086 109.636 122.169 110.126 122.169 110.672ZM123.493 110.672C123.493 110.074 123.58 109.554 123.753 109.112C123.926 108.661 124.156 108.288 124.442 107.994C124.728 107.699 125.057 107.478 125.43 107.331C125.803 107.183 126.184 107.11 126.574 107.11C127.484 107.11 128.182 107.396 128.667 107.968C129.152 108.531 129.395 109.393 129.395 110.555C129.395 110.607 129.395 110.676 129.395 110.763C129.395 110.841 129.391 110.914 129.382 110.984H124.754C124.806 111.686 125.01 112.219 125.365 112.583C125.72 112.947 126.275 113.129 127.029 113.129C127.454 113.129 127.809 113.094 128.095 113.025C128.39 112.947 128.611 112.873 128.758 112.804L128.927 113.818C128.78 113.896 128.52 113.978 128.147 114.065C127.783 114.151 127.367 114.195 126.899 114.195C126.31 114.195 125.798 114.108 125.365 113.935C124.94 113.753 124.589 113.506 124.312 113.194C124.035 112.882 123.827 112.513 123.688 112.089C123.558 111.655 123.493 111.183 123.493 110.672ZM128.134 110.009C128.143 109.463 128.004 109.016 127.718 108.67C127.441 108.314 127.055 108.137 126.561 108.137C126.284 108.137 126.037 108.193 125.82 108.306C125.612 108.41 125.434 108.548 125.287 108.722C125.14 108.895 125.023 109.094 124.936 109.32C124.858 109.545 124.806 109.775 124.78 110.009H128.134ZM130.755 110.672C130.755 110.074 130.841 109.554 131.015 109.112C131.188 108.661 131.418 108.288 131.704 107.994C131.99 107.699 132.319 107.478 132.692 107.331C133.064 107.183 133.446 107.11 133.836 107.11C134.746 107.11 135.443 107.396 135.929 107.968C136.414 108.531 136.657 109.393 136.657 110.555C136.657 110.607 136.657 110.676 136.657 110.763C136.657 110.841 136.652 110.914 136.644 110.984H132.016C132.068 111.686 132.271 112.219 132.627 112.583C132.982 112.947 133.537 113.129 134.291 113.129C134.715 113.129 135.071 113.094 135.357 113.025C135.651 112.947 135.872 112.873 136.02 112.804L136.189 113.818C136.041 113.896 135.781 113.978 135.409 114.065C135.045 114.151 134.629 114.195 134.161 114.195C133.571 114.195 133.06 114.108 132.627 113.935C132.202 113.753 131.851 113.506 131.574 113.194C131.296 112.882 131.088 112.513 130.95 112.089C130.82 111.655 130.755 111.183 130.755 110.672ZM135.396 110.009C135.404 109.463 135.266 109.016 134.98 108.67C134.702 108.314 134.317 108.137 133.823 108.137C133.545 108.137 133.298 108.193 133.082 108.306C132.874 108.41 132.696 108.548 132.549 108.722C132.401 108.895 132.284 109.094 132.198 109.32C132.12 109.545 132.068 109.775 132.042 110.009H135.396ZM142.761 108.709C142.614 108.587 142.402 108.47 142.124 108.358C141.847 108.245 141.544 108.189 141.214 108.189C140.868 108.189 140.569 108.254 140.317 108.384C140.075 108.505 139.875 108.678 139.719 108.904C139.563 109.12 139.451 109.38 139.381 109.684C139.312 109.987 139.277 110.312 139.277 110.659C139.277 111.447 139.472 112.058 139.862 112.492C140.252 112.916 140.772 113.129 141.422 113.129C141.752 113.129 142.025 113.116 142.241 113.09C142.467 113.055 142.64 113.02 142.761 112.986V108.709ZM142.761 104.159L143.97 103.951V113.844C143.693 113.922 143.338 114 142.904 114.078C142.471 114.156 141.973 114.195 141.409 114.195C140.889 114.195 140.421 114.112 140.005 113.948C139.589 113.783 139.234 113.549 138.939 113.246C138.645 112.942 138.415 112.574 138.25 112.141C138.094 111.699 138.016 111.205 138.016 110.659C138.016 110.139 138.081 109.662 138.211 109.229C138.35 108.795 138.549 108.423 138.809 108.111C139.069 107.799 139.386 107.556 139.758 107.383C140.14 107.209 140.573 107.123 141.058 107.123C141.448 107.123 141.791 107.175 142.085 107.279C142.389 107.383 142.614 107.482 142.761 107.578V104.159Z" fill="#42454A"/>
<path d="M88.0086 56.6787C88.0086 57.692 87.8086 58.6653 87.4086 59.5987C87.0086 60.532 86.4886 61.4387 85.8486 62.3187C85.2086 63.172 84.4886 63.9987 83.6886 64.7987C82.8886 65.5987 82.1019 66.3587 81.3286 67.0787C80.9286 67.452 80.4886 67.8787 80.0086 68.3587C79.5552 68.812 79.1152 69.2787 78.6886 69.7587C78.2619 70.2387 77.8752 70.692 77.5286 71.1187C77.2086 71.5187 77.0086 71.852 76.9286 72.1187H88.8486V77.1187H70.3686C70.3152 76.8253 70.2886 76.452 70.2886 75.9987C70.2886 75.5453 70.2886 75.2253 70.2886 75.0387C70.2886 73.7587 70.4886 72.5853 70.8886 71.5187C71.3152 70.452 71.8619 69.4653 72.5286 68.5587C73.1952 67.6253 73.9419 66.7587 74.7686 65.9587C75.6219 65.1587 76.4619 64.3587 77.2886 63.5587C77.9286 62.9453 78.5286 62.372 79.0886 61.8387C79.6486 61.2787 80.1419 60.7453 80.5686 60.2387C80.9952 59.7053 81.3286 59.1853 81.5686 58.6787C81.8086 58.1453 81.9286 57.612 81.9286 57.0787C81.9286 55.9053 81.5952 55.0787 80.9286 54.5987C80.2619 54.1187 79.4352 53.8787 78.4486 53.8787C77.7286 53.8787 77.0486 53.9987 76.4086 54.2387C75.7952 54.452 75.2219 54.7187 74.6886 55.0387C74.1819 55.332 73.7419 55.6387 73.3686 55.9587C72.9952 56.252 72.7152 56.492 72.5286 56.6787L69.5686 52.5187C70.7419 51.4253 72.1019 50.532 73.6486 49.8387C75.2219 49.1187 76.9019 48.7587 78.6886 48.7587C80.3152 48.7587 81.7152 48.9453 82.8886 49.3187C84.0619 49.692 85.0219 50.2253 85.7686 50.9187C86.5419 51.5853 87.1019 52.412 87.4486 53.3987C87.8219 54.3587 88.0086 55.452 88.0086 56.6787ZM101.863 64.0787C101.276 64.0787 100.65 64.132 99.983 64.2387C99.3163 64.3453 98.7963 64.492 98.423 64.6787C98.423 64.7853 98.4096 64.9453 98.383 65.1587C98.383 65.372 98.383 65.5587 98.383 65.7187C98.383 66.6787 98.4496 67.5853 98.583 68.4387C98.7163 69.292 98.943 70.0387 99.263 70.6787C99.583 71.3187 100.01 71.8253 100.543 72.1987C101.076 72.5453 101.743 72.7187 102.543 72.7187C103.21 72.7187 103.77 72.5853 104.223 72.3187C104.703 72.0253 105.09 71.6653 105.383 71.2387C105.703 70.812 105.93 70.3453 106.063 69.8387C106.223 69.3053 106.303 68.7987 106.303 68.3187C106.303 66.9587 105.956 65.9187 105.263 65.1987C104.596 64.452 103.463 64.0787 101.863 64.0787ZM102.623 59.4387C104.356 59.4387 105.823 59.6787 107.023 60.1587C108.25 60.612 109.25 61.2387 110.023 62.0387C110.796 62.8387 111.356 63.772 111.703 64.8387C112.05 65.9053 112.223 67.0387 112.223 68.2387C112.223 69.3053 112.023 70.3987 111.623 71.5187C111.25 72.6387 110.663 73.652 109.863 74.5587C109.09 75.4653 108.09 76.212 106.863 76.7987C105.663 77.3853 104.236 77.6787 102.583 77.6787C99.2496 77.6787 96.7163 76.6253 94.983 74.5187C93.2496 72.412 92.383 69.5053 92.383 65.7987C92.383 63.132 92.7963 60.772 93.623 58.7187C94.4496 56.6653 95.623 54.9453 97.143 53.5587C98.6896 52.1453 100.543 51.0787 102.703 50.3587C104.89 49.612 107.343 49.2253 110.063 49.1987C110.116 50.0253 110.17 50.8387 110.223 51.6387C110.276 52.412 110.33 53.2253 110.383 54.0787C109.023 54.1053 107.743 54.2387 106.543 54.4787C105.37 54.692 104.29 55.0387 103.303 55.5187C102.343 55.9987 101.503 56.6253 100.783 57.3987C100.063 58.1453 99.503 59.0653 99.103 60.1587C99.6896 59.892 100.29 59.7053 100.903 59.5987C101.516 59.492 102.09 59.4387 102.623 59.4387ZM129.621 72.0967C129.621 71.2327 129.507 70.6207 129.279 70.2607C129.063 69.9007 128.685 69.7207 128.145 69.7207C127.977 69.7207 127.803 69.7327 127.623 69.7567C127.443 69.7687 127.269 69.7867 127.101 69.8107V77.1187H124.419V67.9747C124.647 67.9147 124.911 67.8547 125.211 67.7947C125.523 67.7227 125.847 67.6627 126.183 67.6147C126.531 67.5547 126.885 67.5127 127.245 67.4887C127.605 67.4527 127.959 67.4347 128.307 67.4347C128.991 67.4347 129.543 67.5247 129.963 67.7047C130.395 67.8727 130.749 68.0767 131.025 68.3167C131.409 68.0407 131.847 67.8247 132.339 67.6687C132.843 67.5127 133.305 67.4347 133.725 67.4347C134.481 67.4347 135.099 67.5427 135.579 67.7587C136.071 67.9627 136.461 68.2567 136.749 68.6407C137.037 69.0247 137.235 69.4807 137.343 70.0087C137.451 70.5367 137.505 71.1247 137.505 71.7727V77.1187H134.823V72.0967C134.823 71.2327 134.709 70.6207 134.481 70.2607C134.265 69.9007 133.887 69.7207 133.347 69.7207C133.203 69.7207 132.999 69.7567 132.735 69.8287C132.483 69.9007 132.273 69.9907 132.105 70.0987C132.189 70.3747 132.243 70.6687 132.267 70.9807C132.291 71.2807 132.303 71.6047 132.303 71.9527V77.1187H129.621V72.0967ZM146.006 72.4567C146.006 71.6287 145.82 70.9687 145.448 70.4767C145.076 69.9727 144.524 69.7207 143.792 69.7207C143.552 69.7207 143.33 69.7327 143.126 69.7567C142.922 69.7687 142.754 69.7867 142.622 69.8107V74.6527C142.79 74.7607 143.006 74.8507 143.27 74.9227C143.546 74.9947 143.822 75.0307 144.098 75.0307C145.37 75.0307 146.006 74.1727 146.006 72.4567ZM148.742 72.3847C148.742 73.1167 148.652 73.7827 148.472 74.3827C148.292 74.9827 148.028 75.4987 147.68 75.9307C147.332 76.3627 146.9 76.6987 146.384 76.9387C145.868 77.1787 145.274 77.2987 144.602 77.2987C144.23 77.2987 143.882 77.2627 143.558 77.1907C143.234 77.1187 142.922 77.0167 142.622 76.8847V80.4487H139.94V67.9747C140.18 67.9027 140.456 67.8367 140.768 67.7767C141.08 67.7047 141.404 67.6447 141.74 67.5967C142.088 67.5487 142.436 67.5127 142.784 67.4887C143.144 67.4527 143.486 67.4347 143.81 67.4347C144.59 67.4347 145.286 67.5547 145.898 67.7947C146.51 68.0227 147.026 68.3527 147.446 68.7847C147.866 69.2047 148.184 69.7207 148.4 70.3327C148.628 70.9447 148.742 71.6287 148.742 72.3847ZM150.803 77.1187V63.5827L153.485 63.1507V67.6867C153.665 67.6267 153.893 67.5727 154.169 67.5247C154.457 67.4647 154.733 67.4347 154.997 67.4347C155.765 67.4347 156.401 67.5427 156.905 67.7587C157.421 67.9627 157.829 68.2567 158.129 68.6407C158.441 69.0247 158.657 69.4807 158.777 70.0087C158.909 70.5367 158.975 71.1247 158.975 71.7727V77.1187H156.293V72.0967C156.293 71.2327 156.179 70.6207 155.951 70.2607C155.735 69.9007 155.327 69.7207 154.727 69.7207C154.487 69.7207 154.259 69.7447 154.043 69.7927C153.839 69.8287 153.653 69.8707 153.485 69.9187V77.1187H150.803Z" fill="#42454A"/>
<defs>
<filter id="filter0_d_4_208" x="0.684107" y="0.788831" width="227.311" height="189.845" filterUnits="userSpaceOnUse" color-interpolation-filters="sRGB">
<feFlood flood-opacity="0" result="BackgroundImageFix"/>
<feColorMatrix in="SourceAlpha" type="matrix" values="0 0 0 0 0 0 0 0 0 0 0 0 0 0 0 0 0 0 127 0" result="hardAlpha"/>
<feOffset dy="13.2112"/>
<feGaussianBlur stdDeviation="13.2112"/>
<feColorMatrix type="matrix" values="0 0 0 0 0 0 0 0 0 0 0 0 0 0 0 0 0 0 0.06 0"/>
<feBlend mode="normal" in2="BackgroundImageFix" result="effect1_dropShadow_4_208"/>
<feBlend mode="normal" in="SourceGraphic" in2="effect1_dropShadow_4_208" result="shape"/>
</filter>
</defs>
</svg>
