<svg width="229" height="191" viewBox="0 0 229 191" fill="none" xmlns="http://www.w3.org/2000/svg">
<g filter="url(#filter0_d_4_218)">
<rect x="27.3193" y="14" width="174.467" height="137" rx="6.60558" fill="white"/>
<rect x="27.6496" y="14.3303" width="173.807" height="136.339" rx="6.27531" stroke="#F4F4F4" stroke-width="0.660558"/>
</g>
<path d="M81.9611 112.793C81.8744 112.585 81.7574 112.32 81.6101 112C81.4714 111.679 81.3198 111.332 81.1551 110.96C80.9904 110.587 80.8128 110.206 80.6221 109.816C80.4401 109.417 80.2668 109.044 80.1021 108.698C79.9374 108.342 79.7814 108.026 79.6341 107.749C79.4954 107.471 79.3828 107.259 79.2961 107.112C79.2008 108.134 79.1228 109.244 79.0621 110.44C79.0014 111.627 78.9494 112.827 78.9061 114.041H77.6711C77.7058 113.261 77.7448 112.476 77.7881 111.688C77.8314 110.89 77.8791 110.11 77.9311 109.348C77.9918 108.576 78.0524 107.827 78.1131 107.099C78.1824 106.371 78.2561 105.682 78.3341 105.032H79.4391C79.6731 105.413 79.9244 105.864 80.1931 106.384C80.4618 106.904 80.7304 107.45 80.9991 108.022C81.2678 108.585 81.5278 109.153 81.7791 109.725C82.0304 110.288 82.2601 110.804 82.4681 111.272C82.6761 110.804 82.9058 110.288 83.1571 109.725C83.4084 109.153 83.6684 108.585 83.9371 108.022C84.2058 107.45 84.4744 106.904 84.7431 106.384C85.0118 105.864 85.2631 105.413 85.4971 105.032H86.6021C86.8968 107.935 87.1178 110.938 87.2651 114.041H86.0301C85.9868 112.827 85.9348 111.627 85.8741 110.44C85.8134 109.244 85.7354 108.134 85.6401 107.112C85.5534 107.259 85.4364 107.471 85.2891 107.749C85.1504 108.026 84.9988 108.342 84.8341 108.698C84.6694 109.044 84.4918 109.417 84.3011 109.816C84.1191 110.206 83.9458 110.587 83.7811 110.96C83.6164 111.332 83.4604 111.679 83.3131 112C83.1744 112.32 83.0618 112.585 82.9751 112.793H81.9611ZM91.4523 113.17C91.7383 113.17 91.9896 113.165 92.2063 113.157C92.4316 113.139 92.618 113.113 92.7653 113.079V111.064C92.6786 111.02 92.5356 110.986 92.3363 110.96C92.1456 110.925 91.9116 110.908 91.6343 110.908C91.4523 110.908 91.2573 110.921 91.0493 110.947C90.85 110.973 90.6636 111.029 90.4903 111.116C90.3256 111.194 90.187 111.306 90.0743 111.454C89.9616 111.592 89.9053 111.779 89.9053 112.013C89.9053 112.446 90.044 112.749 90.3213 112.923C90.5986 113.087 90.9756 113.17 91.4523 113.17ZM91.3483 107.112C91.8336 107.112 92.241 107.177 92.5703 107.307C92.9083 107.428 93.177 107.606 93.3763 107.84C93.5843 108.065 93.7316 108.338 93.8183 108.659C93.905 108.971 93.9483 109.317 93.9483 109.699V113.924C93.8443 113.941 93.697 113.967 93.5063 114.002C93.3243 114.028 93.1163 114.054 92.8823 114.08C92.6483 114.106 92.3926 114.127 92.1153 114.145C91.8466 114.171 91.578 114.184 91.3093 114.184C90.928 114.184 90.577 114.145 90.2563 114.067C89.9356 113.989 89.6583 113.867 89.4243 113.703C89.1903 113.529 89.0083 113.304 88.8783 113.027C88.7483 112.749 88.6833 112.416 88.6833 112.026C88.6833 111.653 88.757 111.332 88.9043 111.064C89.0603 110.795 89.2683 110.578 89.5283 110.414C89.7883 110.249 90.0916 110.128 90.4383 110.05C90.785 109.972 91.149 109.933 91.5303 109.933C91.6516 109.933 91.7773 109.941 91.9073 109.959C92.0373 109.967 92.1586 109.985 92.2713 110.011C92.3926 110.028 92.4966 110.045 92.5833 110.063C92.67 110.08 92.7306 110.093 92.7653 110.102V109.764C92.7653 109.564 92.7436 109.369 92.7003 109.179C92.657 108.979 92.579 108.806 92.4663 108.659C92.3536 108.503 92.1976 108.381 91.9983 108.295C91.8076 108.199 91.5563 108.152 91.2443 108.152C90.8456 108.152 90.4946 108.182 90.1913 108.243C89.8966 108.295 89.6756 108.351 89.5283 108.412L89.3853 107.411C89.5413 107.341 89.8013 107.276 90.1653 107.216C90.5293 107.146 90.9236 107.112 91.3483 107.112ZM99.9993 114.041C99.904 113.85 99.787 113.638 99.6483 113.404C99.5096 113.17 99.358 112.931 99.1933 112.689C99.0286 112.437 98.8596 112.19 98.6863 111.948C98.513 111.705 98.344 111.475 98.1793 111.259C98.0146 111.475 97.8456 111.709 97.6723 111.961C97.499 112.203 97.33 112.45 97.1653 112.702C97.0093 112.944 96.862 113.183 96.7233 113.417C96.5846 113.651 96.4676 113.859 96.3723 114.041H95.1243C95.4276 113.451 95.7873 112.853 96.2033 112.247C96.628 111.631 97.0483 111.046 97.4643 110.492L95.2283 107.281H96.5933L98.2053 109.647L99.8303 107.281H101.117L98.9333 110.414C99.3493 110.977 99.774 111.575 100.207 112.208C100.649 112.832 101.022 113.443 101.325 114.041H99.9993ZM111.702 105.032V106.124H108.868V114.041H107.607V106.124H104.773V105.032H111.702ZM118.211 110.661C118.211 111.198 118.133 111.683 117.977 112.117C117.821 112.55 117.6 112.923 117.314 113.235C117.037 113.547 116.703 113.789 116.313 113.963C115.923 114.127 115.499 114.21 115.039 114.21C114.58 114.21 114.155 114.127 113.765 113.963C113.375 113.789 113.037 113.547 112.751 113.235C112.474 112.923 112.257 112.55 112.101 112.117C111.945 111.683 111.867 111.198 111.867 110.661C111.867 110.132 111.945 109.651 112.101 109.218C112.257 108.776 112.474 108.399 112.751 108.087C113.037 107.775 113.375 107.536 113.765 107.372C114.155 107.198 114.58 107.112 115.039 107.112C115.499 107.112 115.923 107.198 116.313 107.372C116.703 107.536 117.037 107.775 117.314 108.087C117.6 108.399 117.821 108.776 117.977 109.218C118.133 109.651 118.211 110.132 118.211 110.661ZM116.95 110.661C116.95 109.898 116.777 109.296 116.43 108.854C116.092 108.403 115.629 108.178 115.039 108.178C114.45 108.178 113.982 108.403 113.635 108.854C113.297 109.296 113.128 109.898 113.128 110.661C113.128 111.423 113.297 112.03 113.635 112.481C113.982 112.923 114.45 113.144 115.039 113.144C115.629 113.144 116.092 112.923 116.43 112.481C116.777 112.03 116.95 111.423 116.95 110.661ZM122.408 107.138C122.512 107.138 122.629 107.146 122.759 107.164C122.898 107.172 123.032 107.19 123.162 107.216C123.292 107.233 123.409 107.255 123.513 107.281C123.626 107.298 123.708 107.315 123.76 107.333L123.552 108.386C123.457 108.351 123.297 108.312 123.071 108.269C122.855 108.217 122.573 108.191 122.226 108.191C122.001 108.191 121.776 108.217 121.55 108.269C121.334 108.312 121.191 108.342 121.121 108.36V114.041H119.912V107.567C120.198 107.463 120.554 107.367 120.978 107.281C121.403 107.185 121.88 107.138 122.408 107.138ZM125.659 110.674C125.659 111.02 125.693 111.345 125.763 111.649C125.832 111.943 125.945 112.203 126.101 112.429C126.257 112.645 126.456 112.819 126.699 112.949C126.95 113.07 127.249 113.131 127.596 113.131C127.925 113.131 128.228 113.074 128.506 112.962C128.783 112.849 128.995 112.732 129.143 112.611V108.347C129.021 108.312 128.857 108.282 128.649 108.256C128.449 108.23 128.168 108.217 127.804 108.217C127.154 108.217 126.634 108.429 126.244 108.854C125.854 109.278 125.659 109.885 125.659 110.674ZM124.398 110.674C124.398 110.128 124.476 109.638 124.632 109.205C124.796 108.763 125.026 108.39 125.321 108.087C125.615 107.783 125.971 107.549 126.387 107.385C126.803 107.22 127.271 107.138 127.791 107.138C128.354 107.138 128.848 107.181 129.273 107.268C129.706 107.346 130.066 107.419 130.352 107.489V116.446H129.143V113.742C128.995 113.837 128.77 113.937 128.467 114.041C128.172 114.145 127.83 114.197 127.44 114.197C126.954 114.197 126.521 114.11 126.14 113.937C125.767 113.763 125.451 113.521 125.191 113.209C124.931 112.897 124.731 112.524 124.593 112.091C124.463 111.657 124.398 111.185 124.398 110.674ZM137.812 113.846C137.535 113.915 137.166 113.989 136.707 114.067C136.256 114.145 135.732 114.184 135.134 114.184C134.614 114.184 134.176 114.11 133.821 113.963C133.466 113.807 133.18 113.59 132.963 113.313C132.746 113.035 132.59 112.71 132.495 112.338C132.4 111.956 132.352 111.536 132.352 111.077V107.281H133.561V110.817C133.561 111.64 133.691 112.229 133.951 112.585C134.211 112.94 134.649 113.118 135.264 113.118C135.394 113.118 135.528 113.113 135.667 113.105C135.806 113.096 135.936 113.087 136.057 113.079C136.178 113.061 136.287 113.048 136.382 113.04C136.486 113.022 136.56 113.005 136.603 112.988V107.281H137.812V113.846ZM139.518 110.674C139.518 110.076 139.604 109.556 139.778 109.114C139.951 108.663 140.181 108.29 140.467 107.996C140.753 107.701 141.082 107.48 141.455 107.333C141.827 107.185 142.209 107.112 142.599 107.112C143.509 107.112 144.206 107.398 144.692 107.97C145.177 108.533 145.42 109.395 145.42 110.557C145.42 110.609 145.42 110.678 145.42 110.765C145.42 110.843 145.415 110.916 145.407 110.986H140.779C140.831 111.688 141.034 112.221 141.39 112.585C141.745 112.949 142.3 113.131 143.054 113.131C143.478 113.131 143.834 113.096 144.12 113.027C144.414 112.949 144.635 112.875 144.783 112.806L144.952 113.82C144.804 113.898 144.544 113.98 144.172 114.067C143.808 114.153 143.392 114.197 142.924 114.197C142.334 114.197 141.823 114.11 141.39 113.937C140.965 113.755 140.614 113.508 140.337 113.196C140.059 112.884 139.851 112.515 139.713 112.091C139.583 111.657 139.518 111.185 139.518 110.674ZM144.159 110.011C144.167 109.465 144.029 109.018 143.743 108.672C143.465 108.316 143.08 108.139 142.586 108.139C142.308 108.139 142.061 108.195 141.845 108.308C141.637 108.412 141.459 108.55 141.312 108.724C141.164 108.897 141.047 109.096 140.961 109.322C140.883 109.547 140.831 109.777 140.805 110.011H144.159ZM148.73 113.17C149.224 113.17 149.588 113.105 149.822 112.975C150.064 112.845 150.186 112.637 150.186 112.351C150.186 112.056 150.069 111.822 149.835 111.649C149.601 111.475 149.215 111.28 148.678 111.064C148.418 110.96 148.166 110.856 147.924 110.752C147.69 110.639 147.486 110.509 147.313 110.362C147.139 110.214 147.001 110.037 146.897 109.829C146.793 109.621 146.741 109.365 146.741 109.062C146.741 108.464 146.962 107.991 147.404 107.645C147.846 107.289 148.448 107.112 149.211 107.112C149.401 107.112 149.592 107.125 149.783 107.151C149.973 107.168 150.151 107.194 150.316 107.229C150.48 107.255 150.623 107.285 150.745 107.32C150.875 107.354 150.974 107.385 151.044 107.411L150.823 108.451C150.693 108.381 150.489 108.312 150.212 108.243C149.934 108.165 149.601 108.126 149.211 108.126C148.873 108.126 148.578 108.195 148.327 108.334C148.075 108.464 147.95 108.672 147.95 108.958C147.95 109.105 147.976 109.235 148.028 109.348C148.088 109.46 148.175 109.564 148.288 109.66C148.409 109.746 148.556 109.829 148.73 109.907C148.903 109.985 149.111 110.067 149.354 110.154C149.674 110.275 149.96 110.396 150.212 110.518C150.463 110.63 150.675 110.765 150.849 110.921C151.031 111.077 151.169 111.267 151.265 111.493C151.36 111.709 151.408 111.978 151.408 112.299C151.408 112.923 151.174 113.395 150.706 113.716C150.246 114.036 149.588 114.197 148.73 114.197C148.132 114.197 147.664 114.145 147.326 114.041C146.988 113.945 146.758 113.872 146.637 113.82L146.858 112.78C146.996 112.832 147.217 112.91 147.521 113.014C147.824 113.118 148.227 113.17 148.73 113.17Z" fill="#42454A"/>
<path d="M95.0128 69.3987C95.0128 70.5987 94.7994 71.7053 94.3728 72.7187C93.9728 73.7053 93.3594 74.572 92.5328 75.3187C91.7061 76.0653 90.6661 76.652 89.4128 77.0787C88.1861 77.4787 86.7594 77.6787 85.1328 77.6787C83.2661 77.6787 81.7061 77.4253 80.4528 76.9187C79.2261 76.3853 78.2261 75.732 77.4528 74.9587C76.7061 74.1853 76.1728 73.3453 75.8528 72.4387C75.5328 71.5053 75.3728 70.652 75.3728 69.8787C75.3728 69.0787 75.4794 68.3453 75.6928 67.6787C75.9061 67.012 76.1994 66.412 76.5728 65.8787C76.9461 65.3187 77.3594 64.812 77.8128 64.3587C78.2928 63.9053 78.7994 63.4787 79.3328 63.0787C78.1861 62.1453 77.3328 61.2253 76.7728 60.3187C76.2394 59.412 75.9728 58.252 75.9728 56.8387C75.9728 55.772 76.1861 54.7453 76.6128 53.7587C77.0661 52.772 77.6928 51.9187 78.4928 51.1987C79.2928 50.452 80.2528 49.8653 81.3728 49.4387C82.5194 48.9853 83.7861 48.7587 85.1728 48.7587C86.7994 48.7587 88.1861 48.9987 89.3328 49.4787C90.5061 49.932 91.4661 50.5187 92.2128 51.2387C92.9594 51.9587 93.4928 52.772 93.8128 53.6787C94.1594 54.5587 94.3328 55.4387 94.3328 56.3187C94.3328 57.5987 93.9861 58.7987 93.2928 59.9187C92.6261 61.012 91.7861 61.8787 90.7728 62.5187C92.2928 63.5053 93.3728 64.5453 94.0128 65.6387C94.6794 66.7053 95.0128 67.9587 95.0128 69.3987ZM81.1728 69.6387C81.1728 69.9587 81.2394 70.3187 81.3728 70.7187C81.5328 71.092 81.7728 71.4387 82.0928 71.7587C82.4128 72.0787 82.8261 72.3453 83.3328 72.5587C83.8394 72.772 84.4528 72.8787 85.1728 72.8787C86.5594 72.8787 87.5728 72.5453 88.2128 71.8787C88.8528 71.212 89.1728 70.4653 89.1728 69.6387C89.1728 69.0253 89.0261 68.4787 88.7328 67.9987C88.4661 67.5187 88.0928 67.1053 87.6128 66.7587C87.1328 66.3853 86.5594 66.0653 85.8928 65.7987C85.2528 65.5053 84.5594 65.2387 83.8128 64.9987C83.0661 65.5587 82.4394 66.212 81.9328 66.9587C81.4261 67.7053 81.1728 68.5987 81.1728 69.6387ZM88.5728 56.4787C88.5728 56.1853 88.5061 55.8787 88.3728 55.5587C88.2661 55.212 88.0661 54.892 87.7728 54.5987C87.5061 54.3053 87.1594 54.0653 86.7328 53.8787C86.3061 53.6653 85.7861 53.5587 85.1728 53.5587C84.5861 53.5587 84.0794 53.652 83.6528 53.8387C83.2261 54.0253 82.8661 54.2787 82.5728 54.5987C82.3061 54.892 82.1061 55.212 81.9728 55.5587C81.8394 55.9053 81.7728 56.2387 81.7728 56.5587C81.7728 57.412 82.0794 58.212 82.6928 58.9587C83.3328 59.7053 84.4128 60.3453 85.9328 60.8787C86.7861 60.3453 87.4394 59.732 87.8928 59.0387C88.3461 58.3453 88.5728 57.492 88.5728 56.4787ZM108.107 62.2387C108.72 62.2387 109.36 62.1853 110.027 62.0787C110.694 61.9453 111.187 61.772 111.507 61.5587V61.1987C111.507 61.092 111.507 60.9853 111.507 60.8787C111.534 60.772 111.547 60.6787 111.547 60.5987C111.52 59.6387 111.44 58.7453 111.307 57.9187C111.174 57.0653 110.947 56.332 110.627 55.7187C110.307 55.0787 109.867 54.5853 109.307 54.2387C108.774 53.8653 108.107 53.6787 107.307 53.6787C106.667 53.6787 106.107 53.812 105.627 54.0787C105.147 54.3453 104.76 54.692 104.467 55.1187C104.174 55.5453 103.947 56.012 103.787 56.5187C103.654 57.0253 103.587 57.5187 103.587 57.9987C103.587 59.4387 103.934 60.5053 104.627 61.1987C105.347 61.892 106.507 62.2387 108.107 62.2387ZM111.027 66.1187C110.467 66.3853 109.84 66.5853 109.147 66.7187C108.48 66.8253 107.907 66.8787 107.427 66.8787C105.694 66.8787 104.214 66.6787 102.987 66.2787C101.76 65.852 100.747 65.2653 99.9471 64.5187C99.1738 63.7453 98.6005 62.8253 98.2271 61.7587C97.8538 60.692 97.6671 59.5187 97.6671 58.2387C97.6671 57.172 97.8405 56.0787 98.1871 54.9587C98.5605 53.8387 99.1338 52.8253 99.9071 51.9187C100.68 50.9853 101.654 50.2253 102.827 49.6387C104.027 49.0253 105.467 48.7187 107.147 48.7187C110.587 48.7187 113.174 49.7853 114.907 51.9187C116.667 54.0253 117.547 57.0653 117.547 61.0387C117.547 63.652 117.2 65.9587 116.507 67.9587C115.84 69.9587 114.787 71.6387 113.347 72.9987C111.934 74.3587 110.12 75.3987 107.907 76.1187C105.694 76.812 103.067 77.172 100.027 77.1987C100 76.3453 99.9605 75.5187 99.9071 74.7187C99.8538 73.9187 99.8005 73.092 99.7471 72.2387C101.267 72.212 102.64 72.1053 103.867 71.9187C105.094 71.7053 106.174 71.372 107.107 70.9187C108.04 70.4387 108.827 69.812 109.467 69.0387C110.134 68.2653 110.654 67.292 111.027 66.1187ZM130.063 67.9747C130.519 67.8427 131.107 67.7227 131.827 67.6147C132.547 67.4947 133.303 67.4347 134.095 67.4347C134.899 67.4347 135.565 67.5427 136.093 67.7587C136.633 67.9627 137.059 68.2567 137.371 68.6407C137.683 69.0247 137.905 69.4807 138.037 70.0087C138.169 70.5367 138.235 71.1247 138.235 71.7727V77.1187H135.553V72.0967C135.553 71.2327 135.439 70.6207 135.211 70.2607C134.983 69.9007 134.557 69.7207 133.933 69.7207C133.741 69.7207 133.537 69.7327 133.321 69.7567C133.105 69.7687 132.913 69.7867 132.745 69.8107V77.1187H130.063V67.9747ZM145.864 72.0967C145.864 71.2327 145.75 70.6207 145.522 70.2607C145.306 69.9007 144.928 69.7207 144.388 69.7207C144.22 69.7207 144.046 69.7327 143.866 69.7567C143.686 69.7687 143.512 69.7867 143.344 69.8107V77.1187H140.662V67.9747C140.89 67.9147 141.154 67.8547 141.454 67.7947C141.766 67.7227 142.09 67.6627 142.426 67.6147C142.774 67.5547 143.128 67.5127 143.488 67.4887C143.848 67.4527 144.202 67.4347 144.55 67.4347C145.234 67.4347 145.786 67.5247 146.206 67.7047C146.638 67.8727 146.992 68.0767 147.268 68.3167C147.652 68.0407 148.09 67.8247 148.582 67.6687C149.086 67.5127 149.548 67.4347 149.968 67.4347C150.724 67.4347 151.342 67.5427 151.822 67.7587C152.314 67.9627 152.704 68.2567 152.992 68.6407C153.28 69.0247 153.478 69.4807 153.586 70.0087C153.694 70.5367 153.748 71.1247 153.748 71.7727V77.1187H151.066V72.0967C151.066 71.2327 150.952 70.6207 150.724 70.2607C150.508 69.9007 150.13 69.7207 149.59 69.7207C149.446 69.7207 149.242 69.7567 148.978 69.8287C148.726 69.9007 148.516 69.9907 148.348 70.0987C148.432 70.3747 148.486 70.6687 148.51 70.9807C148.534 71.2807 148.546 71.6047 148.546 71.9527V77.1187H145.864V72.0967Z" fill="#42454A"/>
<defs>
<filter id="filter0_d_4_218" x="0.896997" y="0.788831" width="227.311" height="189.845" filterUnits="userSpaceOnUse" color-interpolation-filters="sRGB">
<feFlood flood-opacity="0" result="BackgroundImageFix"/>
<feColorMatrix in="SourceAlpha" type="matrix" values="0 0 0 0 0 0 0 0 0 0 0 0 0 0 0 0 0 0 127 0" result="hardAlpha"/>
<feOffset dy="13.2112"/>
<feGaussianBlur stdDeviation="13.2112"/>
<feColorMatrix type="matrix" values="0 0 0 0 0 0 0 0 0 0 0 0 0 0 0 0 0 0 0.06 0"/>
<feBlend mode="normal" in2="BackgroundImageFix" result="effect1_dropShadow_4_218"/>
<feBlend mode="normal" in="SourceGraphic" in2="effect1_dropShadow_4_218" result="shape"/>
</filter>
</defs>
</svg>
